<?xml version="1.0" standalone="no"?>
<!DOCTYPE svg PUBLIC "-//W3C//DTD SVG 1.1//EN" "http://www.w3.org/Graphics/SVG/1.1/DTD/svg11.dtd" >
<svg xmlns="http://www.w3.org/2000/svg" xmlns:xlink="http://www.w3.org/1999/xlink" version="1.1">
<metadata>
Created by FontForge 20200314 at Sun Jul 24 20:33:01 1994
 By Unknown
Digital Typeface data licensed from the WSI-Font Collection.  Copyright (c)1993 Weatherly Systems, Inc.  All Rights Reserved.  Redistribution strictly prohibited.
</metadata>
<defs>
<font id="PyxidiumQuick" horiz-adv-x="936" >
  <font-face 
    font-family="Pyxidium Quick"
    font-weight="5"
    font-stretch="normal"
    units-per-em="1000"
    panose-1="0 0 0 0 0 0 0 0 0 0"
    ascent="800"
    descent="-200"
    x-height="703"
    cap-height="735"
    bbox="-217 -231 1296 936.235"
    underline-thickness="50"
    underline-position="-125"
    unicode-range="U+0020-F002"
  />
<missing-glyph horiz-adv-x="800" 
d="M50 0v800h700v-800h-700zM700 50v700h-600v-700h600z" />
    <glyph glyph-name=".notdef" horiz-adv-x="800" 
d="M50 0v800h700v-800h-700zM700 50v700h-600v-700h600z" />
    <glyph glyph-name=".null" horiz-adv-x="0" 
 />
    <glyph glyph-name="nonmarkingreturn" horiz-adv-x="300" 
 />
    <glyph glyph-name="space" unicode=" " horiz-adv-x="300" 
 />
    <glyph glyph-name="exclam" unicode="!" horiz-adv-x="318" 
d="M280 604q-25 -43 -80 -186q-58 -150 -75 -216q-3 -1 -5 -1q-10 -2 -13 -2q-7 0 -14.5 2t-14.5 11q8 77 15 121q22 133 54 193l-24 35l45 91q31 5 40 6t21 1q24 0 33.5 -11.5t17.5 -43.5zM144 64q0 -31 -24.5 -54.5t-55.5 -23.5q-30 0 -54 25t-24 57t25 54t55 22
q31 0 54.5 -24.5t23.5 -55.5z" />
    <glyph glyph-name="quotedbl" unicode="&#x22;" horiz-adv-x="228" 
d="M258 739l-19 -222h-38l19 222h38zM184 739l-20 -222h-38l20 222h38z" />
    <glyph glyph-name="numbersign" unicode="#" horiz-adv-x="531" 
d="M554 495l-8 -37h-119l-38 -177h119l-7 -37h-121l-46 -221h-37l46 221h-119l-47 -221h-37l47 221h-120l9 37h118l38 177h-119l7 37h121l46 221h37l-46 -221h119l47 221h37l-47 -221h120zM389 458h-119l-38 -177h119z" />
    <glyph glyph-name="dollar" unicode="$" horiz-adv-x="906" 
d="M861 648q0 -38 -50 -63q-41 -21 -76 -21q-64 0 -76 33q-15 41 -48 51l-85 -222q22 0 73 -10q86 -17 137 -48q74 -45 74 -116q0 -107 -121 -186q-127 -83 -317 -83l-49 -124l-62 1l-23 30l40 94q-8 -2 -26 -2q-75 0 -170 48q-100 51 -100 96q0 41 63.5 104.5t108.5 55.5
q28 -5 28 -24q0 -8 -7 -15l-79 -100q0 -43 55.5 -65t154.5 -22l121 319q-32 0 -82 7q-94 13 -154 43q-83 41 -83 108q0 82 127 136t317 54l50 194q11 3 22 4t22 1q49 0 65 -32q5 -10 6 -33q-13 -17 -45 -79l-29 -58q73 -8 109 -15q109 -23 109 -61zM526 654q-113 0 -216 -41
q-94 -37 -94 -67q0 -52 117 -84q39 -10 117 -21zM702 234q0 56 -37 83q-42 31 -161 50l-105 -307q122 0 213 57q84 53 90 117z" />
    <glyph glyph-name="percent" unicode="%" horiz-adv-x="1018" 
d="M912 231q0 -95 -59 -174q-67 -90 -169 -90q-55 0 -92.5 34.5t-37.5 90.5q0 74 49 149q54 82 125 93l10 -13q12 14 39.5 23.5t50.5 9.5q39 0 61.5 -32.5t22.5 -90.5zM765 637q-62 -59 -175 -211q-79 -106 -178 -251l-82 -122q-5 -25 -9 -37q-14 -38 -36 -38q-19 0 -38 27
q-6 9 -15 28q70 114 212 302q148 196 213 257q-42 -13 -77 -13q-10 -1 -22.5 -1.5t-18.5 -0.5q-55 0 -101 17q2 -9 0 -18t-3 -18q0 -102 -65 -161q-54 -49 -124 -49t-105 29q-42 35 -42 115q0 46 25 99t57 79q20 -1 30 -3q31 -8 31 -31q0 -7 -3 -16q-40 -23 -58 -82
q-6 -20 -11 -56q0 -45 20.5 -69.5t55.5 -24.5q49 0 88 62q35 56 35 114l-7 61q-94 43 -87 71q6 10 11 14q16 15 35 15q38 0 68 -28q24 -22 32 -46q27 -15 61.5 -22.5t75.5 -7.5q34 0 119 20q28 6 79 20zM842 224q0 43 -10 60t-34 13q-14 -2 -48 -27q-11 -8 -32 -25l-7 9
q-37 -35 -62 -84.5t-25 -85.5q0 -33 16.5 -54t49.5 -21q58 0 105 69t47 146z" />
    <glyph glyph-name="ampersand" unicode="&#x26;" horiz-adv-x="766" 
d="M675 615q0 -75 -89 -138q-56 -40 -182.5 -93t-154.5 -74q36 -43 72 -85q23 -23 102 -76q42 30 74 55q39 31 71 63l11 20q43 25 66 25t23 -26q0 -12 -3 -21q-86 -83 -182 -153q36 -19 107 -32q23 -4 64 -9l5 -46q-27 -24 -60 -34q-35 0 -116 36q-26 12 -74 36
q-59 -41 -127 -61q-57 -17 -117 -17q-81 0 -135 41.5t-54 99.5q0 86 92 149q30 21 92 46q-9 20 -15 42t-6 43q0 125 111 218t248 93q108 0 146 -27q31 -22 31 -75zM564 606q0 28 -23 40t-78 12q-95 -10 -174 -74t-79 -137q-1 -6 -1 -17q0 -39 17 -75q6 0 87 39
q100 48 163 95q88 65 88 117zM350 102q-46 30 -87 73.5t-77 97.5q-54 -28 -87 -72t-33 -81q0 -35 28.5 -59t71.5 -24t76 10q46 14 108 55z" />
    <glyph glyph-name="quotesingle" unicode="'" horiz-adv-x="153" 
d="M184 739l-20 -222h-38l20 222h38z" />
    <glyph glyph-name="parenleft" unicode="(" horiz-adv-x="273" 
d="M303 658q-101 -121 -158 -249q-64 -143 -64 -277q0 -96 16 -164.5t40 -102.5q-8 -21 -14 -31q-19 -32 -41 -32q-7 0 -12 2q-7 3 -15 10q-26 59 -39 131t-13 145q0 171 60 311q69 160 217 288q14 0 20 -15q1 -5 3 -16z" />
    <glyph glyph-name="parenright" unicode=")" horiz-adv-x="285" 
d="M201 426q0 -204 -71.5 -392t-157.5 -238q-27 0 -42 6q-30 12 -30 44q0 15 7 35q89 36 164 236q70 187 70 345q0 97 -31 153q-26 48 -64 51q-4 5 -6 8q-6 10 -6 18q0 13 17 21q66 -10 104 -72q46 -74 46 -215z" />
    <glyph glyph-name="asterisk" unicode="*" horiz-adv-x="517" 
d="M517 619q-42 -19 -87.5 -40.5t-82.5 -41.5l131 -134q2 -7 2 -11q0 -9 -7.5 -16t-26.5 -7q-28 34 -59 64.5t-64 56.5l-21 -151q-3 -2 -5 -2q-9 -3 -14 -3q-14 0 -25 12l13 144q-29 -20 -70 -59q-30 -29 -47 -33q-9 -4 -18 -4q-14 0 -19.5 11t-5.5 28q0 15 3 30q0 2 2 7
q22 16 61 40q32 20 69 41q-3 3 -64 41q-47 30 -57 48q-4 21 14.5 36.5t41.5 15.5q11 0 19 -5l79 -79l15 112q18 9 36.5 14.5t27.5 5.5q21 0 28 -16q2 -5 3 -17q-12 -27 -17 -42q-17 -45 -22 -65q45 17 68 25q72 26 80 26q14 -5 18 -23q0 -3 1 -9z" />
    <glyph glyph-name="plus" unicode="+" horiz-adv-x="613" 
d="M554 396q-18 -54 -36 -74t-45 -20q-12 0 -61 9t-91 9q-14 -48 -21 -75q-24 -88 -29 -111q-10 -13 -16 -19q-21 -20 -39 -20q-17 0 -32 18q-5 12 -5 27q0 42 30 115q10 24 31 66q-64 -2 -128.5 -4.5t-83.5 -5.5q-1 5 -10 15t-9 18q0 12 9.5 28t35.5 44q28 -12 125 -20
q31 -2 90 -6q15 58 23 88q26 91 37 106q18 13 30.5 18.5t22.5 5.5q11 0 18 -7q11 -11 8 -25q4 -16 -30 -101q-11 -28 -36 -84l155 16l10 1z" />
    <glyph glyph-name="comma" unicode="," horiz-adv-x="207" 
d="M65 71q-41 -59 -82 -119t-53 -90q-5 -4 -8 -5q-9 -5 -16 -5q-18 0 -18 29q0 36 39 115q13 26 40 73q3 18 4 29t2 25q12 13 32 18t42 5q15 -1 17 -1q4 -4 6 -11.5t2 -16.5q0 -13 -2.5 -24t-4.5 -22z" />
    <glyph glyph-name="hyphen" unicode="-" horiz-adv-x="428" 
d="M368 430q8 -6 11 -10q12 -14 12 -28q0 -12 -8 -25t-27 -27l-11 -1q-14 9 -27.5 12.5t-27.5 3.5q-7 0 -20.5 -1t-19.5 -1q-80 0 -104 -8q-35 -14 -70 -27q-11 5 -16 9q-17 14 -17 33q0 12 5.5 24.5t20.5 28.5q31 10 89 14.5t116 4.5q33 0 55.5 -0.5t38.5 -1.5z" />
    <glyph glyph-name="period" unicode="." horiz-adv-x="266" 
d="M115 58q0 -30 -23 -54t-55 -24q-7 1 -10 1q-31 3 -51 26t-20 55q0 33 24.5 54.5t59.5 21.5q30 0 52.5 -24.5t22.5 -55.5z" />
    <glyph glyph-name="slash" unicode="/" horiz-adv-x="353" 
d="M363 705q4 -9 4 -25q0 -63 -84 -222q-16 -30 -162 -284q-93 -162 -104 -211q-12 -7 -30 -7t-25 14q23 88 100 229q130 237 134 246q71 148 89 269q9 10 19.5 15.5t18.5 5.5q15 0 29 -15q4 -5 11 -15z" />
    <glyph glyph-name="zero" unicode="0" horiz-adv-x="543" 
d="M470 302q0 -131 -125 -236q-114 -96 -223 -96q-68 0 -102.5 42.5t-34.5 120.5q0 100 80 197q91 110 217 110q35 0 61 -10q8 -3 20 -11l4 -19q14 4 21 4q31 0 56.5 -27t25.5 -75zM374 296q0 31 -37 31q-26 0 -26 16q0 6 5 15q1 2 5 7q-6 4 -9 5q-8 4 -12 4
q-69 0 -152.5 -103t-83.5 -173q0 -64 62 -64t151 83q97 91 97 179z" />
    <glyph glyph-name="one" unicode="1" horiz-adv-x="544" 
d="M384 486q0 -28 -40 -135q-36 -96 -73 -197.5t-33 -130.5q-5 -12 -11 -17q-19 -18 -55 -18q-18 0 -29 4t-18 17q-2 21 37 121q10 24 73 179q41 100 41 115t-4 26.5t-13 11.5q-3 -1 -65 -27q-20 -8 -61 -26q-12 -2 -22.5 4t-10.5 18q0 41 63 70q81 37 151 37t70 -52z" />
    <glyph glyph-name="two" unicode="2" horiz-adv-x="541" 
d="M448 400q0 -72 -89 -146q-55 -45 -176 -111q-108 -58 -123 -76q19 -2 63.5 -5t69.5 -3q47 0 79 5.5t41 19.5q15 3 21 4q7 1 23 1t25.5 -2t13.5 -2q6 -16 13 -34t7 -33q0 -6 -5 -12q-2 -3 -11 -10q-32 -5 -59 -6t-76 -1h-17h-15h-14h-13h-11q-19 0 -38.5 0.5t-39.5 0.5
h-13h-15q-48 0 -73 8q-46 15 -46 53q0 53 98 110l182 96q98 58 98 115q0 68 -90 68q-20 0 -37.5 -3.5t-26.5 -14.5l-32 -2q-48 0 -64 17q-8 9 -8 31q0 41 63 59q44 13 101 13q79 0 136.5 -41t57.5 -99z" />
    <glyph glyph-name="three" unicode="3" horiz-adv-x="541" 
d="M448 476q0 -65 -80 -136q-26 -23 -81 -58q35 -16 66 -59t31 -85q0 -89 -150 -169q-129 -69 -216 -69q-19 0 -27 10t-8 27q0 26 20.5 42.5t49.5 16.5q9 0 24 -4.5t22 -4.5q41 0 107 51t66 86q0 63 -43 100t-43 51q0 22 78 77t78 98q0 28 -17 41q-22 17 -83 17
q-14 -3 -23 -4q-32 -5 -49 -5q-23 0 -37.5 5.5t-14.5 19.5q0 43 62 57q20 4 62 5q96 0 151 -32t55 -78z" />
    <glyph glyph-name="four" unicode="4" horiz-adv-x="543" 
d="M442 69q3 -11 3 -20q0 -27 -26 -38q-19 -8 -48 -8h-15q-2 0 -6 1l-24 -96q-18 -18 -46 -18q-26 0 -43 24l18 87l-136 7q-77 10 -106 28q-35 22 -35 70q0 41 48 173q45 123 92 221q15 18 34 26.5t38 8.5q23 0 40.5 -11t17.5 -29q0 -31 -25 -63q-11 -15 -51 -52
q-33 -55 -58 -126q-15 -41 -30 -106l-10 -44q2 -23 71 -33q1 0 34 -2t54 -2q32 0 39 4q8 37 32 105q8 23 25 65q2 1 23 13q12 7 24 7q15 0 34 -17q3 -3 8 -9l-28 -84q-16 -49 -23 -78q8 1 17.5 1.5t21.5 0.5q34 0 36 -6z" />
    <glyph glyph-name="five" unicode="5" horiz-adv-x="541" 
d="M442 474q0 -12 -11 -28q-2 -3 -23 -27q-12 -6 -29 -6q-18 0 -35 7q-3 1 -7 4q-35 3 -69 3q-47 0 -92 -6l-99 -168q115 23 181 23q87 0 126 -35q36 -32 36 -97q0 -114 -117 -181q-83 -48 -217 -68q-73 -11 -118 -11l-9 15q-9 17 -9 27t5 17.5t15 16.5q41 0 92 5
q108 11 173 36q93 36 93 99q0 43 -31 68q-39 32 -121 32q-18 0 -77 -7q-20 -2 -59 -8q-5 -1 -13 -1q-23 0 -29 22q-1 7 -1 22l134 274l13 9q26 4 60.5 6t67.5 2q81 0 148 -11q8 -7 11 -11q11 -13 11 -23z" />
    <glyph glyph-name="six" unicode="6" horiz-adv-x="542" 
d="M501 550q2 -10 2 -17q0 -16 -9 -25t-33 -9q-6 0 -16.5 2.5t-20.5 5.5q-139 -28 -244 -157q-98 -121 -98 -236q0 -41 24.5 -64.5t63.5 -23.5q51 0 105 56q47 48 55 82q2 17 -6.5 26.5t-25.5 9.5q-37 0 -67 -18.5t-36 -18.5q-13 0 -20 4.5t-7 19.5v13q0 29 70 61
q60 27 88 27q80 0 80 -72q0 -83 -79 -166q-83 -88 -177 -88q-63 0 -100 40q-40 43 -40 122q0 158 136 315q143 165 310 165q27 0 36 -17q3 -6 9 -37z" />
    <glyph glyph-name="seven" unicode="7" horiz-adv-x="542" 
d="M442 291q8 -7 8 -19t-8 -28q-1 -2 -4 -6l-60 1q-35 -78 -112 -209q-73 -123 -104 -161h-37.5t-37.5 -1q-7 10 -10 16q-12 19 -13 25q96 99 155.5 178.5t92.5 151.5q-7 1 -21 1q-28 0 -60 -8l-56 -18q-16 -2 -26.5 10.5t-10.5 29.5q0 19 27 31t89 12l76 1q7 12 8.5 22.5
t1.5 27.5q0 59 -38 84q-30 20 -80 20q-26 0 -56 -6q-9 -2 -24 -6q-39 0 -54 19q-11 14 -11 39q0 15 14 32t33 19.5t37 2.5q19 0 42 -4t44 -7q87 -17 126 -50t39 -97q0 -17 -3.5 -42t-9.5 -55z" />
    <glyph glyph-name="eight" unicode="8" horiz-adv-x="546" 
d="M502 462q0 -75 -72 -149q-52 -53 -142 -105q-45 -26 -97 -49q4 -125 -22 -205t-93 -80q-44 0 -78 25q-40 30 -40 81q0 67 86 142q28 25 87 62q-1 14 -1.5 30t-0.5 25q0 97 13 155q20 91 69 91q19 0 30 -17.5t11 -40.5q-22 -50 -38 -95q-19 -52 -19 -105q4 0 54 39
q60 46 100 91q55 61 55 101q0 26 -30 26q-8 0 -18 -5q-25 -12 -34 -12q-5 0 -8 1q-15 4 -21 7q-12 7 -12 21q0 28 34.5 45t84.5 21q47 0 74.5 -25.5t27.5 -74.5zM125 110q-99 -70 -99 -112q-1 -10 -1 -13q0 -25 15 -38q12 -10 32 -13q30 0 39 23q14 35 14 153z" />
    <glyph glyph-name="nine" unicode="9" horiz-adv-x="542" 
d="M500 461q0 -30 -7 -47q-10 -24 -32 -24q-10 0 -65 35q-27 17 -56 17q-84 0 -153 -57q-62 -51 -66 -100q-2 -18 8.5 -28.5t28.5 -10.5q34 0 93 37q63 40 126 81q17 0 29.5 -13.5t12.5 -31.5q0 -22 -21 -60q-29 -51 -34 -67q-35 -110 -69 -220q-41 -106 -99 -106
q-35 0 -105 37q-78 41 -78 75q0 26 16 47.5t38 18.5q27 -4 47.5 -27t23.5 -47q10 -13 16 -19q20 -20 33 -20q21 0 54 107t85 232q-64 -47 -120 -72q-50 -22 -84 -22q-82 0 -82 100q0 76 88 165q98 99 212 99q47 0 103.5 -30t56.5 -49z" />
    <glyph glyph-name="colon" unicode=":" horiz-adv-x="302" 
d="M212 332q0 -34 -24 -57t-58 -23t-57 24t-23 58t24 57t58 23t57 -24t23 -58zM148 58q0 -33 -24.5 -56.5t-57.5 -23.5t-56.5 24.5t-23.5 57.5t24.5 56.5t57.5 23.5t56.5 -24.5t23.5 -57.5z" />
    <glyph glyph-name="semicolon" unicode=";" horiz-adv-x="295" 
d="M218 336q0 -33 -23.5 -56.5t-56.5 -23.5t-56.5 23.5t-23.5 56.5t23.5 56.5t56.5 23.5t56.5 -23.5t23.5 -56.5zM117 75q-41 -59 -82 -119t-53 -90q-5 -4 -8 -5q-9 -5 -16 -5q-18 0 -18 29q0 36 39 115q13 26 40 73q3 18 4 29t2 25q12 13 32 18t42 5q15 -1 17 -1
q4 -4 6 -11.5t2 -16.5q0 -13 -2.5 -24t-4.5 -22z" />
    <glyph glyph-name="less" unicode="&#x3c;" horiz-adv-x="556" 
d="M518 123l-436 246l436 247v-43l-369 -204l369 -204v-42z" />
    <glyph glyph-name="equal" unicode="=" horiz-adv-x="632" 
d="M571 465q-9 -26 -17 -38q-26 -38 -72 -38q-17 0 -29.5 2.5t-31.5 10.5q-6 5 -31 8t-56 3q-38 0 -122 -4t-116 -4q-45 0 -59 6q-3 6 -3 13q0 18 15 43q1 2 27 37q57 -10 183 -13.5t243 -3.5h42.5h17.5q9 -11 9 -22zM534 328q0 -43 -6.5 -58.5t-27.5 -29.5l-95 -3
q0 10 -21.5 14.5t-61.5 4.5q-51 0 -139.5 -7.5t-182.5 -15.5q-10 0 -13 1q-2 6 -3 10q-4 16 -4 27q0 12 3.5 24.5t11.5 23.5q13 -1 25.5 -1.5t24.5 -0.5q55 0 213 8t212 8q53 0 64 -5z" />
    <glyph glyph-name="greater" unicode="&#x3e;" horiz-adv-x="556" 
d="M563 369l-437 -246v42l370 204l-370 204v43z" />
    <glyph glyph-name="question" unicode="?" horiz-adv-x="445" 
d="M452 564q0 -63 -81.5 -148.5t-166.5 -171.5q0 -10 28 -21q14 -6 14 -12q0 -18 -11 -23q-4 -2 -14 -2q-16 2 -23 2q-70 0 -70 68q0 46 66 115q16 16 124 114q68 61 68 83q0 12 -26.5 19t-62.5 7q-27 0 -53 -5t-50 -18q-4 -25 -8 -36q-7 -20 -39 -20q-13 0 -35 34.5
t-19 65.5q0 21 55.5 41t135.5 20q74 0 121 -32t47 -80zM206 58q0 -30 -26 -54t-58 -24q-30 0 -54 23t-24 55q0 35 26 58.5t58 23.5q30 0 54 -26t24 -56z" />
    <glyph glyph-name="at" unicode="@" horiz-adv-x="822" 
d="M791 372q-19 -100 -71 -161q-48 -57 -108 -65q-5 -1 -15 -1q-35 0 -59 23t-24 56q0 9 1 13q-11 -33 -42 -55t-67 -22q-51 0 -84 37q-36 41 -36 115q0 113 59 205.5t139 92.5q38 0 63 -27q6 -7 28 -43l13 66l48 -1l-72 -321q-6 -26 -6 -45q0 -27 14.5 -39.5t51.5 -12.5
q33 0 73 60q36 53 50 134q6 36 6 70q0 122 -67.5 195.5t-177.5 73.5q-137 0 -238.5 -107.5t-101.5 -258.5q0 -143 77 -235q81 -97 219 -97q69 0 145 40q68 36 123 94l25 -19q-58 -61 -134 -103q-88 -48 -163 -48q-157 0 -253 108q-91 102 -91 258q0 159 114.5 281.5
t271.5 122.5q132 0 215 -82t83 -217q0 -41 -9 -85zM552 478q0 39 -19.5 64.5t-50.5 25.5q-52 0 -97 -81.5t-45 -189.5q0 -54 19 -77.5t51 -23.5q67 0 111 141q14 47 31 141z" />
    <glyph glyph-name="A" unicode="A" horiz-adv-x="854" 
d="M757 284q0 -22 -32 -33q-10 -3 -33 -7q16 -59 23.5 -121t7.5 -127l-4 -4q-11 -9 -18 -10q-9 0 -22 10q-2 1 -6 6q0 67 -8.5 125.5t-28.5 118.5q-120 0 -254 -21.5t-296 -71.5q-15 -22 -21 -34q-21 -37 -19 -47t16 -19q4 -3 15 -7q0 -15 -5 -26t-9 -21q-36 -7 -78 -7
q-9 0 -20.5 1t-17.5 1q-7 16 -15 33.5t-8 34.5q0 8 2.5 26.5t73.5 101.5q80 93 191 185q136 112 281 192q13 -2 19.5 -9.5t6.5 -15.5q0 -7 -3 -13.5t-3 -7.5q-101 -62 -191 -138t-169 -169q92 31 217 56q80 16 187 30q76 10 80 10l-95 302q-14 3 -21 5q-22 8 -22 17
q0 26 22.5 43t48.5 17q13 0 31 -24l15 -24l80 -332q7 2 15.5 3t20.5 1q21 0 33.5 -6t12.5 -24z" />
    <glyph glyph-name="B" unicode="B" horiz-adv-x="866" 
d="M784 204q0 -125 -176 -208q-162 -76 -374 -76q-36 0 -61 15t-30 46q-5 33 36 60q35 23 63 23q20 0 27 -11t7 -26v-7q0 -1 -1 -3q4 -4 13.5 -10t11.5 -7q188 0 307 71q107 64 107 147q0 46 -61.5 79t-158.5 33q-42 0 -108 -6.5t-88 -15.5q-4 -14 -9 -20q-15 -20 -44 -20
q-16 0 -33 17q-11 11 -11 18q0 62 143 78q97 7 136 11q31 17 46 30q46 39 46 84q0 41 -39 66.5t-111 25.5q-16 0 -75 -10.5t-78 -10.5q-7 0 -21.5 0.5t-14.5 19.5q0 26 119 44q39 5 120 13q100 0 148 -32q44 -29 44 -84q0 -39 -31 -80q-34 -45 -91 -72q21 0 62 -9
q73 -16 117 -49q63 -47 63 -124zM224 526q-1 0 -36 -78q-46 -103 -69 -167q-37 -105 -37 -157q0 -16 5 -32.5t11 -35.5q0 -26 -18 -40.5t-44 -14.5q-15 0 -26.5 33.5t-11.5 67.5q0 33 32.5 113t66.5 159q43 102 57 155q10 10 18 16q12 9 22 9q5 0 14.5 -4.5t15.5 -23.5z" />
    <glyph glyph-name="C" unicode="C" horiz-adv-x="875" 
d="M888 681q-80 -90 -118 -208q-5 -5 -16 -5q-23 0 -39 19q14 67 40.5 125.5t66.5 112.5l32 7q12 -4 18 -7q19 -11 19 -30q0 -6 -3 -14zM724 22q0 -29 -80 -35q-38 -3 -83 -3h-24.5h-14.5q-241 0 -391 86q-131 75 -131 167q0 57 142 152q130 87 299 156q176 72 263 72
q9 0 15 -9.5t4 -19.5q-2 -12 -169 -84q-214 -92 -308 -146q-166 -95 -166 -164q0 -45 93 -81q115 -45 313 -45q181 11 200 11q17 0 27.5 -17.5t10.5 -39.5z" />
    <glyph glyph-name="D" unicode="D" horiz-adv-x="828" 
d="M798 494q0 -183 -237.5 -354.5t-494.5 -171.5q-35 0 -65 5.5t-67 17.5q-4 17 16 54q24 43 52 43q37 -19 84.5 -33.5t83.5 -14.5q85 0 210 59q131 62 218 148q100 99 100 193q0 73 -46 122q-59 62 -176 62q-47 0 -111.5 -8.5t-125.5 -27.5q0 -20 -39 -128
q-25 -70 -73 -192q-39 -100 -40 -100q-14 -25 -36 -25q-15 -2 -23 12q-1 2 -3 7q45 101 75.5 196.5t51.5 200.5q-6 11 -9 17q-10 19 -10 49q0 26 32.5 51t76.5 25q17 0 17 -24q0 -15 -5 -33q0 -3 -3 -8q55 27 123 42.5t146 15.5q123 0 193 -41q85 -50 85 -159z" />
    <glyph glyph-name="E" unicode="E" horiz-adv-x="676" 
d="M658 687q0 -22 -18 -32q-6 -3 -19 -6q-27 0 -75 14q-24 7 -43 7q-50 0 -116 -13q-22 -4 -58 -14q-27 -50 -74 -126q-51 -81 -64 -106q-31 -57 -57 -135q248 42 451 42l26 -23q-4 -18 -13 -25q-83 0 -228 -26t-258 -61q-3 -20 -3 -38q0 -8 2 -22q8 -57 46.5 -88t100.5 -31
q35 0 73 19q12 6 32 20q9 24 16 35q22 35 50 35q57 0 57 -38q0 -48 -97 -95q-91 -44 -167 -44q-97 0 -154.5 50.5t-57.5 129.5q0 63 55 199q38 95 102 219q53 104 55 104q-11 1 -18 1q-42 5 -47 24q-4 19 14 37.5t41 18.5q8 0 33 -4.5t61 -4.5l222 16q39 0 85 -10
q15 -3 40 -11q2 -4 2 -6q3 -9 3 -12z" />
    <glyph glyph-name="F" unicode="F" horiz-adv-x="640" 
d="M685 621q0 -29 -21 -63q-7 -11 -22 -29q-12 -2 -23 -2q-16 0 -25 5q-14 8 -14 27q4 12 8 25q0 18 -27.5 27.5t-88.5 9.5q-7 0 -114 -10q-64 -6 -104 -6q4 -6 9 -12q2 -4 2 -9q0 -33 -44 -144q-23 -58 -48 -113q66 14 143.5 20t163.5 6q7 -3 10 -6q10 -9 10 -23
q0 -13 -13 -23q-2 -1 -7 -4q-37 4 -52 4.5t-25 0.5q-46 0 -105.5 -9.5t-151.5 -32.5q-17 -53 -25 -81q-25 -86 -25 -109q0 -1 2 -14t2 -23q0 -5 -2 -15q-7 -25 -19.5 -40.5t-33.5 -15.5q-32 0 -45.5 29t-13.5 71q0 51 49.5 157t98.5 208q54 116 61 170l-113 -24q-9 5 -13 8
q-13 10 -13 19q0 10 8 17l16 14q140 35 247.5 51t192.5 16q6 1 13.5 1.5t18.5 0.5q52 0 84 -13q49 -20 49 -66z" />
    <glyph glyph-name="G" unicode="G" horiz-adv-x="865" 
d="M835 707q0 -20 -21 -39q-49 -44 -58 -143q-1 -9 -9 -13t-31 -4q-32 0 -32 29q0 51 42.5 127t82.5 76q12 0 19 -10t7 -23zM770 276q0 -9 -41 -72q-50 -77 -76 -128q-42 -82 -42 -131q0 -6 -30 -17q-16 -6 -22 -6q-9 0 -16 6t-7 16q5 57 81 190q35 61 35 101q0 28 -15 28
q-7 0 -31.5 -9.5t-38.5 -9.5q-16 0 -23 13q-3 6 -3 12q0 24 36.5 48t86.5 24q11 -1 16 -1q57 -8 73.5 -22t16.5 -42zM680 619q0 -10 -126 -43q-84 -22 -144 -60q-96 -61 -155 -110q-80 -66 -125 -132q-52 -76 -52 -150q0 -106 146 -106q67 0 150 35q96 41 156 110q9 2 14 2
q11 0 19.5 -6t8.5 -22q0 -31 -131 -103q-142 -78 -247 -78q-96 0 -152 52t-56 138q0 133 108 254q99 111 257 181.5t308 70.5q10 0 15.5 -10t5.5 -23z" />
    <glyph glyph-name="H" unicode="H" horiz-adv-x="673" 
d="M711 713q-22 -61 -43 -121q-38 -107 -83 -236t-48 -142q-18 -90 -18 -115q0 -13 3 -28q0 -11 -1.5 -19.5t-10.5 -35.5q-20 -15 -40 -24t-38 -9q-7 0 -17 13t-13 25q34 136 82 262q-77 20 -161 32t-160 12q-27 -73 -41 -129t-14 -98q0 -16 11 -55q3 -13 11 -37
q0 -27 -36 -40q-12 -4 -37 -7q-22 22 -32.5 48.5t-10.5 66.5t18 106q14 51 47 146l-58 -6q-8 16 -8 30q0 33 48 48q16 4 48 8l101 238q12 8 26.5 17t30.5 7q6 -3 9 -5q10 -7 10 -11q-28 -62 -54 -126.5t-46 -126.5q86 -14 161 -31.5t152 -41.5l138 391q10 8 16 11
q18 10 30 7q19 -5 28 -24z" />
    <glyph glyph-name="I" unicode="I" horiz-adv-x="257" 
d="M272 718l-17 -106q-33 -39 -77 -194q-30 -107 -65 -271l-28 -138q-16 -19 -34 -19t-36 17q-6 5 -15 18q1 0 44 170q54 210 82 326q44 180 44 199q16 5 24 7q28 8 33 8q15 0 26 -3.5t19 -13.5z" />
    <glyph glyph-name="J" unicode="J" horiz-adv-x="505" 
d="M543 690l-35 -95q-75 -140 -118.5 -332t-59.5 -223q-43 -84 -154 -84q-91 0 -140 69q-52 73 -52 217q0 33 9.5 59t27.5 51q13 6 20 8q25 9 38 9q23 0 31 -12.5t8 -32.5q0 -8 -0.5 -15.5t-0.5 -14.5q0 -12 -9 -22q-22 -25 -22 -97q0 -89 30 -127q25 -32 74 -32
q83 0 103 74q14 115 29 230q27 199 106 392q10 7 15 10q17 12 27 17h26.5t27.5 -2q19 -22 19 -47z" />
    <glyph glyph-name="K" unicode="K" horiz-adv-x="785" 
d="M811 662q2 -13 2 -20q0 -5 -3 -16q-52 -52 -105 -91q-71 -53 -164 -99q-108 -54 -253 -104q93 -104 166 -160q69 -53 136 -75q26 -12 38 -20q26 -18 26 -40q0 -12 -20 -32t-34 -20q-24 0 -43 4q-132 88 -243 200t-111 156q0 14 13 22t31 11q5 1 13 -4q2 -1 7 -6
q4 0 101 55q115 65 189 115q102 69 102 95l54 54q13 5 20 7q15 5 24 5q19 0 36 -11t18 -26zM270 690q0 -24 -51.5 -175t-100.5 -296q-53 -163 -53 -203q-29 -21 -53 -21q-16 0 -29 11q-4 4 -13 16l183 570l-5 42l20 79q8 7 17 15.5t19 8.5q34 0 50 -14q10 -9 16 -33z" />
    <glyph glyph-name="L" unicode="L" horiz-adv-x="522" 
d="M417 42q0 -18 -30 -38q-5 -3 -14 -8q-36 6 -84 9t-85 3q-90 0 -171 -9q-14 -1 -35 -5q-15 3 -21 8q-10 8 -14 26l-1 20q62 134 112 287q55 169 96 368q19 12 29 18q32 19 42 19q30 0 43 -24q8 -15 8 -39v-10q-1 -1 -12.5 -13t-73.5 -168q-42 -106 -104 -278
q-26 -72 -51 -144q68 16 120 23q69 10 138 10q12 0 50 -7q13 -2 38 -8q11 -12 15.5 -19.5t4.5 -20.5z" />
    <glyph glyph-name="M" unicode="M" horiz-adv-x="893" 
d="M878 584q-2 0 -44 -110.5t-78 -221.5q-44 -137 -44 -184q-6 -26 -11 -39q-16 -40 -39 -40q-37 0 -53 17q-11 12 -11 31q0 5 1 10q0 1 1 4q27 103 82 236q39 96 91 203q41 86 43 86q-43 -20 -85 -40q-103 -45 -199 -74q-133 -40 -226 -40q-133 0 -210 61.5t-77 154.5
q0 21 22 40.5t48 19.5q13 0 32 -49q25 -63 58 -93q56 -50 157 -50q117 0 239 35q80 23 177 67q79 36 82 36q30 0 40 -30q3 -10 4 -30zM194 399l-60 -166q-23 -68 -23 -115q0 -19 3 -40q-13 -53 -17 -61q-14 -31 -42 -31q-15 0 -29 8.5t-26 16.5q0 57 31 156q23 74 58 158
q30 72 32 72q14 7 27.5 12.5t27.5 7.5q14 -9 18 -18z" />
    <glyph glyph-name="N" unicode="N" horiz-adv-x="805" 
d="M790 674q0 -72 -51 -235q-57 -183 -129 -304q-89 -151 -172 -151q-69 0 -127 129q-41 92 -73 241q-12 65 -24 131q-57 -113 -99 -245q-45 -144 -45 -230q-13 -13 -29 -18.5t-39 -5.5q-14 0 -19.5 8t-5.5 22t5 31q0 3 3 8q3 29 48 149q58 156 82 233q44 142 44 217
q17 17 20 19q16 11 37 11q31 0 44 -14q9 -10 9 -25q0 -3 -1 -9q0 -12 -14 -52q-2 -7 -7 -19q22 -117 98 -319q80 -212 107 -212q16 0 65.5 93.5t92.5 211.5q51 137 68 243l-12 47q1 33 6 49q17 50 68 50q30 0 42 -12q9 -9 9 -26q-1 -12 -1 -16z" />
    <glyph glyph-name="O" unicode="O" 
d="M886 380q0 -133 -190 -264q-200 -138 -432 -138q-123 0 -197.5 51.5t-74.5 134.5q0 73 65 158q72 94 192 160q137 76 309 97q11 -7 15 -13t4 -13q0 -8 -5 -15q0 -1 -3 -2q-170 -36 -281 -111q-90 -61 -133 -141q-33 -62 -33 -122q0 -66 40 -101t122 -35q153 0 314 102
q172 109 172 234q0 45 -33 76q-43 40 -127 40q-3 0 -18.5 -2.5t-20.5 -2.5q-14 0 -22 5t-8 18q0 26 51 35q17 2 52 3q93 0 153 -26q89 -38 89 -128z" />
    <glyph glyph-name="P" unicode="P" horiz-adv-x="713" 
d="M746 542q0 -95 -95 -170q-77 -61 -207 -100q-114 -34 -202 -34q-21 0 -36 11.5t-15 30.5q0 38 48 51q16 4 49 5q181 0 301 82q99 68 99 130q0 35 -36.5 49t-139.5 14q-72 0 -180 -22q-128 -26 -155 -59l-77 -19q-23 0 -34.5 11.5t-11.5 31.5q0 44 98 73q80 24 185 33.5
t185 9.5q116 0 170 -29t54 -99zM179 417q0 -17 -26 -111q-22 -79 -48 -165.5t-27 -86.5q2 -15 3.5 -31t-0.5 -22q-12 -46 -59 -46q-23 0 -37.5 16.5t-14.5 41.5q0 26 36 110t73 172t37 123q0 22 5 31q10 16 33 16q13 0 19 -17.5t6 -30.5z" />
    <glyph glyph-name="Q" unicode="Q" horiz-adv-x="947" 
d="M886 382q0 -87 -98 -190q-107 -112 -260 -166q84 -23 132 -34q147 -35 207 -35l-20 -33q-121 0 -229.5 20t-191.5 54l-162 -18q-125 0 -196.5 52.5t-71.5 137.5q0 66 57 145q65 89 173 154q127 76 290 104q9 3 29 3q16 0 25 -4t9 -15q0 -5 -3 -12q-1 -2 -4 -7
q-206 -41 -339 -164q-115 -107 -115 -206q0 -70 43 -104t137 -34q6 0 21 -1t23 -1q10 0 14 1l-118 64q-3 5 -4 8q-5 11 -6 16q-2 18 7 32.5t24 14.5q28 0 64 -32q11 -10 30 -32l103 -46q123 44 220.5 139t97.5 165q0 56 -35 86q-40 34 -123 34q-1 0 -15 -2t-25 -2
q-16 0 -25 5t-9 18q0 27 54 36q18 2 54 3q94 0 154 -29q82 -39 82 -125z" />
    <glyph glyph-name="R" unicode="R" horiz-adv-x="816" 
d="M786 540q0 -84 -67 -154q-80 -83 -258 -154q34 -75 91 -117q42 -31 71 -31q15 -15 22 -23q23 -25 23 -34q0 -33 -20 -47q-16 -11 -43 -11q-17 0 -25.5 1.5t-13.5 3.5q-83 76 -130 156q-42 71 -42 118q0 25 18 31q8 2 20 -2q2 0 6 -3q111 24 179 108q55 68 55 124
q0 39 -21.5 60.5t-60.5 21.5q-78 0 -172 -54q-101 -58 -207 -171q-33 -91 -73 -170q-44 -88 -110 -191q-9 -2 -25.5 -3t-27.5 -1q-16 0 -22 16.5t-6 40.5v15q0 2 1 7q21 33 41 67q52 83 93 141q57 82 96 120q19 85 19 122q0 24 -8 43q8 13 13 19q16 19 31 19q13 0 18.5 -12
t5.5 -35q0 -19 -4.5 -45.5t-10.5 -44.5q84 84 200 143.5t192 59.5q65 0 108.5 -38.5t43.5 -95.5z" />
    <glyph glyph-name="S" unicode="S" horiz-adv-x="755" 
d="M703 558q-2 -10 -5 -16q-3 -5 -15 -17l-124 9q-10 28 -47 37q-12 2 -36 3q-87 0 -165 -31q-97 -39 -97 -103q0 -54 110 -111q102 -48 205 -96q111 -59 111 -117q0 -67 -93 -109q-108 -49 -313 -49q-115 0 -212 18q-134 25 -134 72q0 28 23 46q7 6 23 13q114 -34 207 -45
t205 -11q169 0 212 16q18 7 18 31q0 33 -121 77q-177 65 -225 91q-122 67 -122 154t90 147q100 66 275 66q86 0 134.5 -8t91.5 -30q2 -8 3.5 -19.5t0.5 -17.5z" />
    <glyph glyph-name="T" unicode="T" horiz-adv-x="557" 
d="M633 642q0 -40 -139 -78q-46 -12 -140 -30l16 -23q-27 -77 -52 -155q-31 -96 -44 -158q-18 -83 -18 -142v-18q2 -12 2 -17q-5 -23 -18.5 -29t-37.5 -6q-34 0 -49 25q-10 17 -10 42v11q0 1 1 2q0 28 9 68q13 59 44 142q40 109 106 251q-45 -5 -92.5 -8.5t-88.5 -3.5h-12
q-28 0 -41 5q-20 8 -25 31q-6 29 43 55q16 8 51 21q89 -10 177 -10q101 0 175 11t106 29q10 -1 21 -2q16 -4 16 -13z" />
    <glyph glyph-name="U" unicode="U" horiz-adv-x="753" 
d="M745 577q-48 -273 -185 -435q-129 -152 -286 -152q-98 0 -168 58q-76 63 -76 166q1 24 3 49q8 60 33 129q33 93 95 183q18 5 27 7q32 8 40 8q21 0 29.5 -8.5t8.5 -22.5q0 -10 -2.5 -17t-5.5 -13q-60 -95 -94 -181.5t-34 -147.5q0 -78 39 -117t111 -39q16 -2 23 -2
q121 0 232 163q117 172 117 385l18 22q8 6 18 6q38 0 51 -20q4 -6 6 -21z" />
    <glyph glyph-name="V" unicode="V" horiz-adv-x="691" 
d="M826 686q0 -69 -59 -98q-19 -9 -60 -15q-4 0 -103 -89q-122 -110 -215 -211q-132 -144 -188 -249q-6 -22 -7 -22q-9 -7 -60 -7q-19 0 -27 10t-8 26q0 14 4 28q1 5 5 13q0 127 -7.5 209.5t-20.5 154.5q-8 46 -10 46q-2 7 -2 11q-3 18 -3 29q0 27 11.5 46.5t41.5 19.5
q16 0 29 -6l20 -12q17 -45 24 -109.5t7 -144.5q0 -72 -6 -151q-2 -26 -6 -65q110 169 244 323q146 167 314 307l34 3q20 0 28 -4q20 -10 20 -43z" />
    <glyph glyph-name="W" unicode="W" horiz-adv-x="993" 
d="M933 393q0 -133 -100.5 -272t-184.5 -139q-75 0 -113 76t-65 76q-108 -59 -191 -102q-91 -48 -161 -48q-56 0 -90 30t-34 87q-1 6 -1 8q0 85 79 225q88 155 199 234h49q4 -3 10 -34q2 -10 5 -31q-109 -97 -177 -191q-52 -72 -76 -136q-13 -36 -19 -73q-6 -55 55 -55
q40 0 113.5 33t145 67t93.5 34q29 0 81 -45t107 -45q72 0 130 65q66 74 66 189q0 22 -20 77t-20 88q0 9 -2 15q5 14 20 29t30 15q22 5 45 -15q8 -7 20 -23q4 -10 5 -23.5t1 -51.5v-64z" />
    <glyph glyph-name="X" unicode="X" horiz-adv-x="646" 
d="M698 686q0 -51 -52 -72q-17 -6 -52 -11l-242 -192q37 -84 75.5 -170.5t74.5 -148.5q9 -14 13 -22q14 -28 14 -45q0 -16 -10 -25t-36 -9q-25 0 -49 19q-2 22 -40 110q-26 60 -69 152q-36 77 -37 77q-41 -43 -136 -129q-79 -72 -106 -105q-43 -53 -43 -95q1 -8 1 -12
q-10 -11 -20 -23q-12 -11 -26 -11q-19 0 -33.5 7t-14.5 21q0 59 45 110q20 22 123.5 110t183.5 179l-100 224q-1 5 -1 14q0 27 11 43.5t36 16.5q15 0 37 -14q7 -4 19 -14q5 -23 35 -118q10 -31 30 -91l303 269q8 3 12 4q15 4 23 2q22 -5 26.5 -17t4.5 -34z" />
    <glyph glyph-name="Y" unicode="Y" horiz-adv-x="670" 
d="M721 604q0 -48 -76 -108q-67 -53 -158 -91q-89 -104 -178 -207q-94 -114 -131 -183q-22 -15 -27 -17q-17 -9 -31 -9q-9 0 -16.5 2.5t-16.5 10.5t-17 16q0 30 69 115q51 63 129 145q68 71 70 71q-22 -7 -48 -10t-50 -3q-67 0 -119.5 60.5t-52.5 135.5q0 44 9 71
q16 48 57 48q18 0 32.5 -6t14.5 -21v-11q0 -34 -15 -76q-5 -14 -15 -35q20 -48 70.5 -78t113.5 -30q6 0 14 1t12 1l29 5q74 68 133 118q63 54 141 112q19 -2 28 -4q29 -7 29 -23z" />
    <glyph glyph-name="Z" unicode="Z" horiz-adv-x="676" 
d="M706 546q0 -103 -177 -207q-81 -48 -331 -154q-178 -76 -178 -109q0 -24 35.5 -29.5t110.5 -5.5q116 0 160 9t66 28q8 2 18.5 3t23.5 1q22 0 34 -5t12 -19q0 -13 -8 -31q-2 -6 -9 -17l-263 -26q-140 0 -208 29t-68 79q0 26 178 117q272 139 331 174q179 107 179 171
q0 37 -45 56t-122 19q-121 0 -189 -34q-22 -11 -44 -34q-6 -1 -16 -2t-16 -1q-29 0 -46 8q-24 11 -24 38q0 43 58 65q66 25 236 25q128 0 206 -31q96 -38 96 -117z" />
    <glyph glyph-name="bracketleft" unicode="[" horiz-adv-x="351" 
d="M514 694q0 -23 -29 -32.5t-75 -9.5q-37 0 -82.5 5t-62.5 7q-9 -40 -76 -215q-88 -230 -116 -308q-61 -169 -61 -207q0 -27 19 -38.5t51 -11.5q29 0 60 6q5 1 45 11q16 4 28 -10.5t15 -36.5q4 -27 -51 -37q-18 -3 -56 -5q-126 0 -160.5 16.5t-34.5 69.5q0 49 65 215.5
t131 331.5q78 202 98 296l17 10q44 -14 102 -18.5t157 -4.5q6 -7 8 -11q8 -13 8 -23z" />
    <glyph glyph-name="backslash" unicode="\" horiz-adv-x="365" 
d="M313 0h-38l-130 739h38z" />
    <glyph glyph-name="bracketright" unicode="]" horiz-adv-x="357" 
d="M372 663q0 -43 -67 -219t-133 -348q-80 -208 -97 -284l-16 -9q-50 15 -108 19.5t-150 4.5l-9 9q-9 11 -9 21q0 24 31 33.5t82 9.5q37 0 73 -3q2 0 67 -7q6 34 69 202q90 242 114 309q60 172 60 217q0 57 -54 57l-114 -22q-18 0 -31 13t-13 30q0 32 73 45q24 4 73 6
q99 0 134 -26q25 -18 25 -58z" />
    <glyph glyph-name="asciicircum" unicode="^" horiz-adv-x="572" 
d="M557 187h-42l-206 365l-206 -365h-43l249 432z" />
    <glyph glyph-name="underscore" unicode="_" horiz-adv-x="453" 
d="M410 -23h-372v23h372v-23z" />
    <glyph glyph-name="grave" unicode="`" horiz-adv-x="292" 
d="M353 788q12 -16 12 -28q0 -9 -7 -15q-2 -2 -8 -5q-72 19 -108 29q-110 31 -116 37q-15 9 -23 14q-25 15 -28 21q0 15 13 34q4 6 14 16l66 -18q8 -3 15.5 -10t15.5 -13z" />
    <glyph glyph-name="a" unicode="a" horiz-adv-x="806" 
d="M730 248q0 -16 -8.5 -21t-16.5 -9l-42 -6q-18 -68 -28 -99q-15 -48 -40 -103q-9 -9 -19.5 -15t-23.5 -6q-37 0 -47 28q-3 9 -3 28l66 167q-124 0 -188 -13q-52 -16 -104 -31q-17 0 -33.5 9t-16.5 25q0 47 183 69q61 7 184 13q37 104 52.5 160.5t15.5 92.5t-31 36
q-42 0 -196.5 -112.5t-274.5 -234.5q-142 -144 -142 -214l-7 -11q-26 -10 -58 -10q-15 0 -22 1q-4 27 -5 40q-5 41 -5 43q71 108 214 244q138 132 276 224q148 99 220 99q51 0 73.5 -24.5t22.5 -83.5q0 -38 -8 -86t-34 -161h31q5 -4 7 -7q8 -12 8 -32z" />
    <glyph glyph-name="b" unicode="b" horiz-adv-x="804" 
d="M750 600q0 -67 -69 -128q-49 -44 -130 -82q-61 -29 -70 -29q3 0 51 -38q64 -51 97 -92q52 -64 52 -117q-3 -21 -5 -42q-16 -49 -65 -78q-71 -42 -204 -42q-20 0 -35 11t-15 30q0 10 13 31l6 9q76 6 114 12q115 20 115 60q0 29 -58 78l-108 84q-58 49 -58 78q0 19 70 61
q107 64 132 83q71 56 71 108q0 28 -13 43q-17 20 -57 20q-131 0 -256 -173q-89 -124 -166 -321q-30 -87 -59 -174q-8 -6 -13 -8q-16 -9 -25 -9q-16 0 -27 20q-3 6 -8 20q33 138 56 268q17 98 25 176t8 120q0 33 -1 45.5t-4 20.5q0 22 18 45.5t45 23.5q21 0 36.5 -11
t19.5 -36q-20 -69 -37.5 -157t-27.5 -171q62 143 145 241q71 84 149 125q68 36 126 36q71 0 116.5 -42t45.5 -99z" />
    <glyph glyph-name="c" unicode="c" horiz-adv-x="839" 
d="M796 629q1 -4 1 -13q0 -35 -23 -61t-58 -26q-29 0 -42 18q-9 13 -9 33q0 10 1 15q0 1 1 2q-12 4 -27.5 6.5t-30.5 2.5q-89 0 -227 -88q-130 -83 -229 -193q-105 -117 -105 -190q0 -43 42 -64q77 -38 303 -38q64 0 136 8.5t146 17.5q21 0 29.5 -4.5t8.5 -19.5
q0 -38 -99 -56q-81 -15 -203 -15q-219 0 -335 50q-100 43 -100 106q0 86 92 224q100 150 237 249q163 118 322 118q66 0 113 -20.5t56 -61.5z" />
    <glyph glyph-name="d" unicode="d" horiz-adv-x="863" 
d="M780 213q0 -116 -128 -170.5t-388 -54.5q-7 -1 -28.5 -2.5t-44.5 -1.5q-61 0 -89 7.5t-40 21.5l-4 22q62 104 90 181q20 56 20 95q0 13 -1 19q7 31 15 46q25 47 73 47q30 0 41 -8.5t11 -20.5q0 -5 -2 -11q0 -2 -2 -5q0 -36 -73 -188q-49 -103 -62 -135l111 -4
q202 0 317 44t115 127q0 88 -155 190q-111 73 -289 146q-141 58 -156 58q-11 -2 -26 -3.5t-23 -0.5q-30 4 -41 31q-6 14 -6 35q3 26 18.5 41.5t47.5 15.5q47 0 213 -78q192 -90 320 -194q166 -134 166 -250z" />
    <glyph glyph-name="e" unicode="e" horiz-adv-x="770" 
d="M732 600q0 -26 -16.5 -43.5t-41.5 -17.5q-14 0 -34 14q-6 4 -17 15q-78 0 -132 -12l-102 -28q-19 0 -34 10.5t-15 28.5q0 25 133 50t235 25q8 -9 12 -14q12 -16 12 -28zM635 67q0 -38 -82.5 -58.5t-234.5 -20.5h-13h-5q-145 0 -209 28.5t-64 97.5q0 25 13 85q4 20 14 57
h-12q-28 3 -28 31q0 20 35 33q11 4 36 9q13 37 48 120q13 31 39 91v53q13 36 30 48q24 17 82 17q11 0 18 -33q2 -11 4 -33q-29 -57 -58 -115q-32 -65 -56 -118q90 16 202.5 32t150.5 16q15 -5 22 -10q22 -15 22 -41t-13 -36q-9 -7 -30 -7q-15 1 -23 1q-12 0 -25.5 4t-24.5 8
q-75 0 -159 -16q-66 -13 -156 -39q-27 -55 -35.5 -88t-8.5 -57q0 -37 27 -51.5t102 -14.5q97 0 182.5 13t172.5 28q37 0 37 -34z" />
    <glyph glyph-name="f" unicode="f" horiz-adv-x="550" 
d="M617 681q2 -8 2 -12q0 -19 -13.5 -34.5t-31.5 -15.5q-24 0 -68 12t-84 12q-51 0 -119 -13t-179 -49q-9 -6 -14 -8q-18 -9 -27 -9q-17 0 -31 13t-14 31q0 12 10 22l14 14q92 33 225 52q95 13 171.5 16.5t118.5 3.5q11 -6 17 -10q19 -13 23 -25zM530 379q5 -24 -16.5 -41
t-51.5 -23q-18 -3 -46 7q-9 3 -26 11q-39 0 -82.5 -7t-83.5 -14l-45 -194q5 -16 9 -39t4 -42q0 -41 -40 -60q-13 -6 -41 -10q-34 0 -40 22q-1 5 -7 43q-3 22 36 147q25 80 32 109q-10 -6 -16 -8q-20 -8 -31 -4q-9 2 -18 5q-8 5 -8 24q0 26 44 47q14 6 45 15q8 45 12 67
q13 68 16 74.5t18 20.5q20 19 37 16q16 -4 25.5 -11.5t9.5 -20.5q0 -19 -11 -75q-3 -19 -12 -54q54 10 134 19t117 9q11 -1 15 -1q9 -1 13.5 -10t7.5 -22z" />
    <glyph glyph-name="g" unicode="g" horiz-adv-x="826" 
d="M792 606q0 -26 -26 -53t-59 -27q-26 0 -35.5 12t-9.5 32q0 8 2 18q0 3 2 8q-10 2 -22 4.5t-20 2.5q-101 0 -241 -82q-134 -78 -233 -188q-105 -116 -105 -201q0 -44 30 -70t81 -26q72 0 174 57q72 40 158 108q34 29 69 58q8 1 23.5 3t25.5 2q30 0 42 -13
q5 -24 19.5 -70.5t19.5 -66.5q16 -16 24 -25q25 -30 25 -54q0 -23 -20.5 -40.5t-45.5 -17.5q-43 0 -64 43.5t-35 162.5q-120 -102 -236 -162q-111 -57 -183 -57q-78 0 -125.5 44.5t-47.5 117.5q0 112 104 250q100 133 250 226q160 100 297 100q55 0 102 -21q60 -27 60 -75z
" />
    <glyph glyph-name="h" unicode="h" horiz-adv-x="719" 
d="M750 664q-24 -36 -81 -208q-40 -120 -93 -298q-23 -76 -45 -152q-7 -6 -11 -8q-15 -9 -26 -9q-14 0 -23 10q-12 13 -18 42l76 248q-74 0 -143 -5q-30 -2 -238 -24q-20 -66 -30 -103q-31 -109 -38 -153q-9 -7 -15 -10q-19 -11 -33 -11q-16 0 -28 11t-18 39q5 10 41 115
q11 34 35 100l-56 -3q-18 12 -18 30q0 17 15 38q2 3 7 8l72 5l70 246q0 7 1 28t1 26q0 25 17 47q22 28 58 28q28 0 44 -6.5t16 -29.5q0 -36 -20 -66q-11 -14 -22 -27l-76 -238q58 0 141 8q187 18 240 18l63 207q-6 14 -6 31q0 8 1.5 18.5l2.5 17.5q7 51 44 72q12 7 37 11
q34 0 48 -14q10 -10 10 -27q0 -5 -1 -9q0 -1 -1 -3z" />
    <glyph glyph-name="i" unicode="i" horiz-adv-x="261" 
d="M297 651q0 -34 -27.5 -60.5t-62.5 -26.5q-33 0 -61.5 26.5t-28.5 61.5q0 38 27 65t63 27t63 -29t27 -64zM179 421q-28 -75 -49 -176q-14 -67 -26 -152l-8 -64q-11 -12 -18 -17q-22 -18 -39 -18q-14 0 -24 11q-13 14 -19 44q15 21 34 123q16 86 27 178l10 92
q2 9 25.5 25.5t32.5 16.5q29 0 44 -31q5 -10 10 -32z" />
    <glyph glyph-name="j" unicode="j" horiz-adv-x="693" 
d="M701 639q-26 -93 -51 -186q-68 -213 -152 -347q-117 -187 -249 -187q-69 0 -115 39q-57 48 -92 160q-2 6 -2 18q0 25 18 41t42 16q7 0 17.5 -2t23 -10.5t12.5 -23.5v-24v-17q0 -79 23 -104q20 -22 64 -22q94 0 157 94q45 68 100 235q75 229 105 301l-472 -123
q-20 1 -30 3q-31 9 -31 34q5 23 12 34q23 34 79 34q21 0 45 -2t44 -4q32 0 120.5 22.5t176.5 45.5t104 23q24 0 40 -24q5 -8 11 -24z" />
    <glyph glyph-name="k" unicode="k" horiz-adv-x="805" 
d="M767 707q0 -35 -16 -55q-10 -12 -36 -22q-18 -4 -47 8q-5 2 -14 7q-30 0 -55 -6q-48 -12 -119 -48q-92 -47 -224 -136l-63 -266q100 -62 215 -95q138 -39 308 -39q10 -5 14 -10q14 -15 14 -40q0 -23 -11.5 -32t-28.5 -9q-8 0 -14 1q-2 0 -6 2q-114 0 -241 40t-265 123
q-10 -58 -13 -68q-14 -54 -42 -67q-28 -5 -51 23q-4 4 -9 14q19 29 28 46q29 53 32 85q-35 17 -64 56t-29 72q11 53 39 90q46 62 135 124q4 6 6 22t2 36q0 22 -1 40t-3 32q12 16 20 24q25 25 47 25q13 0 18.5 -9.5t5.5 -27.5q0 -25 -13 -70q-2 -7 -6 -19q343 192 437 192
q10 2 15 2q14 0 24.5 -9.5t10.5 -35.5zM190 422q-41 -18 -70.5 -53.5t-29.5 -62.5q0 -11 26 -45q8 -11 27 -33z" />
    <glyph glyph-name="l" unicode="l" horiz-adv-x="477" 
d="M370 30q3 -6 3 -14q0 -19 -24 -32.5t-82 -13.5q-150 0 -201 46q-33 30 -33 98q0 67 20 187q28 166 72 268q59 137 139 137q10 -4 15 -7q16 -11 16 -30q0 -40 -25 -76q-8 -12 -26 -28q-19 -58 -37 -115q-41 -129 -69 -221q-37 -124 -36 -136q0 -47 70 -47h14q6 0 14.5 1
t12.5 1q35 10 54 14q59 15 72 13q16 -2 22 -11.5t9 -33.5z" />
    <glyph glyph-name="m" unicode="m" horiz-adv-x="880" 
d="M850 553q-68 -164 -102 -298q-26 -104 -35 -207q-7 -8 -11 -11q-14 -11 -28 -11q-9 0 -12 1q-12 4 -24 18q5 47 28 158q9 46 42 191q10 46 21 93q-33 -39 -65 -77q-78 -87 -151 -143q-101 -78 -168 -78q-63 0 -100 79q-26 56 -36 147q-3 39 -5 79l-108 -354
q9 -13 14 -33.5t5 -40.5q0 -38 -16 -64.5t-47 -26.5q-35 0 -50 23q-10 16 -10 40v9q0 1 2.5 21.5t46.5 153.5q34 103 82 235q43 118 44 118h37l9 9q20 -3 28 -10q13 -12 13 -38q0 -122 30 -186.5t76 -64.5q78 0 190 93q77 64 169 174l74 94l25 -11l-11 -39z" />
    <glyph glyph-name="n" unicode="n" horiz-adv-x="786" 
d="M726 561q0 -220 -68 -387q-78 -192 -208 -192q-97 0 -194 142q-72 105 -135 271q-50 132 -50 161q0 19 19 32q10 7 36 17q5 1 27 -15q7 -5 23 -17q24 -155 112 -341q95 -202 159 -196q61 0 120 147q63 157 63 351q0 34 -5 63t-13 55q-6 8 -9 13q-10 17 -10 28
q0 19 19 27.5t48 11.5q45 5 60 -82q5 -29 6 -89zM153 313q-44 -152 -64 -296q-9 -7 -15 -10q-18 -10 -33 -10q-11 0 -19 4.5t-14 17.5q7 75 26 149.5t49 146.5l43 22q15 -6 27 -24z" />
    <glyph glyph-name="o" unicode="o" horiz-adv-x="889" 
d="M834 387q0 -158 -161 -287q-155 -124 -328 -124q-159 0 -243 67t-84 191q0 146 113 270q131 143 366 199l27 -42q113 0 199 -58q111 -75 111 -216zM726 399q0 104 -83 162q-69 48 -163 48q-88 0 -148.5 -54.5t-60.5 -130.5q-7 -4 -14.5 -7t-12.5 -3q-16 0 -25 20
q8 43 24 81q-56 -44 -88 -117t-32 -146q0 -102 64 -157t177 -55q158 0 263 112q99 106 99 247z" />
    <glyph glyph-name="p" unicode="p" horiz-adv-x="639" 
d="M669 549q0 -38 -12 -65q-29 -65 -114 -117q-119 -73 -333 -116q-15 -53 -22 -81q-22 -85 -22 -105l-28 -65q-8 -6 -13 -8q-16 -8 -31 -8q-17 0 -29.5 10t-18.5 37l71 211h-45q-16 16 -23 26q-10 15 -10 28q0 22 33 40l75 1q6 14 9 22q9 27 9 50q0 29 -14 50q12 17 19 25
q23 25 43 25q18 0 37 -24q6 -8 16 -25q0 -8 -13 -62q-4 -18 -13 -53q17 0 93 17q106 24 173 57q94 47 94 106q0 96 -271 96q-77 0 -117 -9.5t-66 -27.5q-14 -2 -27 -2q-23 0 -35 8q-18 12 -18 40q0 44 55 63q38 13 93 13h21q3 0 8 -1q220 0 331 -48q95 -41 95 -108z" />
    <glyph glyph-name="q" unicode="q" horiz-adv-x="892" 
d="M834 375q0 -74 -48 -152q-34 -56 -90 -109q-44 -42 -49 -42l115 -103l-29 -35l-155 94q-89 -29 -133 -40q-62 -15 -115 -15q-144 0 -226.5 69.5t-82.5 185.5q0 153 115 280q130 144 361 193l28 -42q119 0 202 -59q107 -76 107 -225zM726 390q0 94 -76 157q-72 59 -170 59
q-88 0 -148 -51.5t-60 -131.5q-5 -3 -8 -4q-10 -4 -20 -4q-18 0 -26 17q2 19 7 36.5t18 45.5q-56 -45 -89.5 -119t-33.5 -143q0 -101 67.5 -157.5t185.5 -56.5q48 0 84.5 9.5t70.5 29.5q-33 30 -49 45q-50 48 -50 59q0 38 15 58.5t36 20.5t36 -21q20 -28 20 -55l60 -65
q3 0 33 36q40 48 63 96q34 71 34 139z" />
    <glyph glyph-name="r" unicode="r" horiz-adv-x="867" 
d="M828 576q0 -113 -110 -201q-74 -59 -244 -133q-201 -87 -253 -118q56 -32 129.5 -46.5t174.5 -14.5q81 0 131 6q38 6 77 13q24 0 46 -14t22 -29q0 -37 -32 -53q-26 -13 -73 -13q-30 0 -59 4t-60 8q-125 0 -221 18q-65 12 -122.5 34t-83.5 48t-26 53q0 9 1 13q13 0 154 62
q175 77 286 155q155 109 155 202q0 29 -20 50t-51.5 27t-59.5 6q-106 0 -204 -56q-119 -68 -198 -202q-94 -158 -127 -401q-10 -9 -16 -13q-19 -13 -36 -13q-28 0 -46 35q30 67 64 194q21 78 49 208q10 48 20 97q14 19 40 37q9 2 26.5 2t29.5 1h20q47 68 183 123t248 55
q80 0 133 -42.5t53 -101.5z" />
    <glyph glyph-name="s" unicode="s" horiz-adv-x="625" 
d="M670 710q0 -35 -23 -54t-55 -19q-4 0 -41 23q-12 7 -38 24q-42 0 -139 -52q-104 -56 -174 -118q-86 -76 -86 -130q0 -57 95 -103q89 -38 178 -75q96 -47 96 -104q0 -54 -47 -88q-57 -41 -175 -41q-7 0 -26.5 -1t-27.5 -1q-58 0 -92 11q-49 16 -49 54q0 21 20.5 39.5
t47.5 18.5q18 0 43 -18q8 -6 22 -19l74 -7q26 -3 48 -3q99 0 99 52q0 30 -98 72q-156 66 -182 81q-98 56 -98 120q0 117 170 259q175 146 337 146q48 0 84.5 -17.5t36.5 -49.5z" />
    <glyph glyph-name="t" unicode="t" horiz-adv-x="497" 
d="M609 769q2 -13 -10 -27q-4 -4 -13 -12q-61 -6 -121 -11q-114 -10 -233.5 -20.5t-120.5 -10.5q-12 10 -18 16q-18 19 -18 35q0 14 38 43q6 5 19 14q42 -5 97.5 -7t109.5 -2q84 0 136.5 2t94.5 5q12 -3 18 -5q19 -8 21 -20zM435 605q-28 -71 -80.5 -267.5t-52.5 -228.5
q4 -9 8.5 -28.5t4.5 -29.5q0 -25 -12 -39q-15 -18 -49 -18q-37 0 -50 14q-4 4 -6 15q0 62 42 215q30 111 78 253q41 122 42 122q8 8 13 11q15 11 25 11q12 0 26 -15q4 -5 11 -15z" />
    <glyph glyph-name="u" unicode="u" horiz-adv-x="815" 
d="M755 617q-14 -69 -22 -134t-8 -146q0 -106 18 -289l-14 -20q-10 -9 -20 -9q-13 0 -30 14q-22 115 -28.5 187.5t-6.5 158.5l-72 -96q-91 -111 -181 -180q-128 -97 -238 -97q-115 0 -115 145q0 107 59 284q63 188 141 292q9 5 13 7q15 7 24 7q23 -10 32 -24q16 -25 16 -63
q0 -30 -26 -49q-8 -6 -27 -13q-79 -159 -121 -288q-29 -90 -38 -157q-1 -6 -1 -16q0 -65 67 -65q57 0 139 53q99 64 189 179q109 140 182 331q21 10 35 10q16 0 26 -11q3 -3 7 -11z" />
    <glyph glyph-name="v" unicode="v" horiz-adv-x="727" 
d="M777 658q-122 -244 -250 -407q-107 -136 -214 -209q-88 -60 -151 -60q-47 0 -67 39.5t-20 131.5q0 147 8 225q13 128 60 324q11 9 17 13q21 14 33 14q20 0 34 -26q4 -8 11 -27q-1 0 -24 -105q-30 -134 -46 -232q-25 -151 -25 -235q0 -56 40 -56q71 0 185 121
q103 110 187 255t84 218q0 11 -1 16q6 25 22 45q21 25 46 25q18 0 45 -7q9 -2 26 -8v-55z" />
    <glyph glyph-name="w" unicode="w" horiz-adv-x="969" 
d="M912 566q0 -237 -66 -385q-50 -112 -131 -164q-54 -35 -97 -35q-48 0 -80 43q-54 71 -85 260q-39 -38 -77 -76q-82 -80 -155 -141q-92 -77 -118 -77q-40 0 -62 20q-27 24 -27 75q0 82 43 225q52 173 147 355q18 14 29 21q33 21 52 21q17 0 24 -12.5t7 -33.5
q0 -19 -1.5 -26.5t-2.5 -13.5q-63 -49 -141 -231.5t-78 -284.5q0 -39 15 -56q64 40 149 133q66 73 132 147q68 69 107 69q17 0 28.5 -17t21.5 -33q8 -100 16 -150q27 -151 80 -151q65 0 122 156q52 142 52 264q0 25 -10 60q-25 88 -25 107q1 8 1 12q3 24 22 39t44 15
q39 0 55 -36q11 -24 11 -67q0 -11 -0.5 -18.5t-1.5 -13.5z" />
    <glyph glyph-name="x" unicode="x" horiz-adv-x="739" 
d="M813 689q-12 -18 -20 -27q-24 -28 -46 -38q-32 5 -132 -71q-71 -55 -171 -146q-43 -40 -85 -80q16 -35 33 -70q41 -85 80 -148q54 -89 96 -126q1 -8 1 -12q0 -14 -6 -22q-10 -13 -33 -13q-16 0 -45 9q-44 34 -94 117q-38 63 -72 139l-28 68q-1 0 -72.5 -67.5
t-145.5 -141.5q-85 -85 -101 -111q-12 -1 -20 -1q-20 0 -33.5 6t-13.5 22q0 10 5 20l355 332q-1 0 -23 61q-30 82 -45 144q-24 96 -24 163q0 16 17.5 29.5t31.5 13.5q22 0 46 -17.5t27 -39.5q1 -8 -1 -22q-7 -42 -7 -65q0 -39 10 -87.5t37 -115.5q50 45 100 91
q124 112 194 170q111 92 131 92q21 0 37.5 -16.5t16.5 -39.5z" />
    <glyph glyph-name="y" unicode="y" horiz-adv-x="623" 
d="M687 723q-31 -45 -125 -235q-113 -228 -175 -334q-113 -192 -216 -288q-15 -6 -30 -7.5t-31 -1.5q-21 0 -34 4.5t-13 13.5q0 16 6 43q2 9 6 24q86 33 179 155q64 84 155 248q114 205 134 237q-86 -113 -169 -181t-131 -68q-64 0 -93.5 66.5t-29.5 194.5q0 102 11.5 134.5
t43.5 32.5q17 0 35.5 -12t20.5 -19q-2 -20 -3 -33q-9 -93 -9 -145q0 -68 10 -110.5t35 -42.5q33 0 135 100q108 106 224 255q27 9 40 9q15 0 21 -7t6 -18q0 -9 -3 -15z" />
    <glyph glyph-name="z" unicode="z" horiz-adv-x="812" 
d="M742 365l-343 3q-5 0 -84 -40q-99 -50 -158 -92q-85 -60 -85 -101t47.5 -58t135.5 -17q52 0 118 8.5t161 25.5q18 14 28 20q33 20 56 20q8 0 12 -1q35 -9 47 -20.5t12 -28.5q0 -47 -85.5 -73t-245.5 -26h-18h-7q-151 0 -240.5 38t-89.5 103q-5 55 54 106q51 44 227 143
q-2 0 -80 -5q-31 -2 -56 -2q-39 0 -45 7q-6 3 -8 5q-5 5 -5 11q0 13 15.5 29.5t37.5 32.5l283 -20q69 35 103 56q104 64 104 100q0 41 -26 63q-40 33 -143 33q-67 0 -111 -12l-82 -28q-26 0 -45 13.5t-19 37.5q0 47 67 66q45 13 120 13q19 0 32 -0.5t23 -1.5q158 0 221 -57
q41 -37 41 -98q0 -70 -91 -138q-30 -22 -92 -54l195 -5q23 -8 32.5 -15.5t9.5 -15.5q0 -9 -11 -18q-3 -3 -12 -7z" />
    <glyph glyph-name="braceleft" unicode="{" horiz-adv-x="254" 
d="M272 369q-24 -3 -46.5 -22.5t-25.5 -49.5l-43 -351q-8 -57 -79 -57h-40l2 21h11q40 0 52 12t17 54l41 320q3 31 22.5 50.5t48.5 22.5q-21 3 -38 20.5t-17 43.5q1 7 1 10l40 319q0 5 1 13t1 15q0 22 -11.5 30t-43.5 8h-12l4 22h38q75 0 67 -57l-43 -351q-1 -8 -1 -11
q0 -26 15 -43t39 -19z" />
    <glyph glyph-name="bar" unicode="|" horiz-adv-x="234" 
d="M183 0h-38v739h38v-739z" />
    <glyph glyph-name="braceright" unicode="}" horiz-adv-x="243" 
d="M310 850l-3 -22h-10q-40 0 -53 -12t-18 -54l-39 -319q-4 -29 -25 -50t-46 -24q22 -3 39 -24t13 -49l-39 -320q-2 -22 -2 -27q0 -23 11.5 -31t44.5 -8h10l-2 -21h-41q-66 0 -66 47q1 7 1 10l44 351q1 8 1 11q0 25 -15 41t-40 20q63 7 71 73l44 351q6 57 80 57h40z" />
    <glyph glyph-name="asciitilde" unicode="~" horiz-adv-x="404" 
d="M416 414q0 -57 -25 -83q-20 -21 -54 -21q-32 0 -98 29t-82 29q-18 0 -29 -10q-16 -15 -16 -49h-33q0 57 19 81t57 24q26 0 93 -29t92 -29q17 0 27 10q15 15 15 48h34z" />
    <glyph glyph-name="Adieresis" unicode="&#xc4;" horiz-adv-x="854" 
d="M757 284q0 -22 -32 -33q-10 -3 -33 -7q16 -59 23.5 -121t7.5 -127l-4 -4q-11 -9 -18 -10q-9 0 -22 10q-2 1 -6 6q0 67 -8.5 125.5t-28.5 118.5q-120 0 -254 -21.5t-296 -71.5q-15 -22 -21 -34q-21 -37 -19 -47t16 -19q4 -3 15 -7q0 -15 -5 -26t-9 -21q-36 -7 -78 -7
q-9 0 -20.5 1t-17.5 1q-7 16 -15 33.5t-8 34.5q0 8 2.5 26.5t73.5 101.5q80 93 191 185q136 112 281 192q13 -2 19.5 -9.5t6.5 -15.5q0 -7 -3 -13.5t-3 -7.5q-101 -62 -191 -138t-169 -169q92 31 217 56q80 16 187 30q76 10 80 10l-95 302q-14 3 -21 5q-22 8 -22 17
q0 26 22.5 43t48.5 17q13 0 31 -24l15 -24l80 -332q7 2 15.5 3t20.5 1q21 0 33.5 -6t12.5 -24zM694 792q0 -27 -20.5 -46.5t-49.5 -19.5t-48.5 20.5t-19.5 49.5t21 48t50 19t48 -21t19 -50zM490 793q0 -28 -20 -47t-50 -19q-29 0 -48.5 20.5t-19.5 49.5t21 48t50 19t48 -21
t19 -50z" />
    <glyph glyph-name="Aring" unicode="&#xc5;" horiz-adv-x="854" 
d="M757 284q0 -22 -32 -33q-10 -3 -33 -7q16 -59 23.5 -121t7.5 -127l-4 -4q-11 -9 -18 -10q-9 0 -22 10q-2 1 -6 6q0 67 -8.5 125.5t-28.5 118.5q-120 0 -254 -21.5t-296 -71.5q-15 -22 -21 -34q-21 -37 -19 -47t16 -19q4 -3 15 -7q0 -15 -5 -26t-9 -21q-36 -7 -78 -7
q-9 0 -20.5 1t-17.5 1q-7 16 -15 33.5t-8 34.5q0 8 2.5 26.5t73.5 101.5q80 93 191 185q136 112 281 192q13 -2 19.5 -9.5t6.5 -15.5q0 -7 -3 -13.5t-3 -7.5q-101 -62 -191 -138t-169 -169q92 31 217 56q80 16 187 30q76 10 80 10l-95 302q-14 3 -21 5q-22 8 -22 17
q0 26 22.5 43t48.5 17q13 0 31 -24l15 -24l80 -332q7 2 15.5 3t20.5 1q21 0 33.5 -6t12.5 -24zM664 812q0 -39 -29 -66q-33 -31 -90 -31q-41 0 -74.5 23t-33.5 56q0 21 23 49t47 28l7 -3q24 28 59 28q38 0 64.5 -25.5t26.5 -58.5zM599 814q0 15 -11.5 26.5t-27.5 11.5
q-18 3 -33 -5l4 -14q-12 -4 -20 -15t-6 -20q0 -13 9 -22t29 -13q19 0 37.5 14.5t18.5 36.5z" />
    <glyph glyph-name="Ccedilla" unicode="&#xc7;" horiz-adv-x="875" 
d="M888 681q-80 -90 -118 -208q-5 -5 -16 -5q-23 0 -39 19q14 67 40.5 125.5t66.5 112.5l32 7q12 -4 18 -7q19 -11 19 -30q0 -6 -3 -14zM724 22q0 -29 -80 -35q-38 -3 -83 -3h-24.5h-14.5q-20 0 -38.5 0.5t-66.5 4.5l-218 -192l-16 41q35 36 80 81q41 40 81 80
q-162 27 -258 101q-86 66 -86 137q0 57 142 152q130 87 299 156q176 72 263 72q9 0 15 -9.5t4 -19.5q-2 -12 -169 -84q-214 -92 -308 -146q-166 -95 -166 -164q0 -43 77 -79q95 -45 258 -45l50 77l68 -23q-4 -15 -6 -23q-8 -24 -19 -33q66 0 107.5 4t70.5 7q17 0 27.5 -17.5
t10.5 -39.5z" />
    <glyph glyph-name="Eacute" unicode="&#xc9;" horiz-adv-x="676" 
d="M658 687q0 -22 -18 -32q-6 -3 -19 -6q-27 0 -75 14q-24 7 -43 7q-50 0 -116 -13q-22 -4 -58 -14q-27 -50 -74 -126q-51 -81 -64 -106q-31 -57 -57 -135q248 42 451 42l26 -23q-4 -18 -13 -25q-83 0 -228 -26t-258 -61q-3 -20 -3 -38q0 -8 2 -22q8 -57 46.5 -88t100.5 -31
q35 0 73 19q12 6 32 20q9 24 16 35q22 35 50 35q57 0 57 -38q0 -48 -97 -95q-91 -44 -167 -44q-97 0 -154.5 50.5t-57.5 129.5q0 63 55 199q38 95 102 219q53 104 55 104q-11 1 -18 1q-42 5 -47 24q-4 19 14 37.5t41 18.5q8 0 33 -4.5t61 -4.5l222 16q39 0 85 -10
q15 -3 40 -11q2 -4 2 -6q3 -9 3 -12zM680 837q0 -8 -5 -16q-2 -2 -11 -13l-65 -19q-7 -4 -15 2q-5 6 -6 7l-170 -40q-9 1 -13 2q-14 5 -14 16q0 5 1 15q0 3 1 9q66 27 130 47q84 26 126 26q19 0 30 -7.5t11 -28.5z" />
    <glyph glyph-name="Ntilde" unicode="&#xd1;" horiz-adv-x="805" 
d="M790 674q0 -72 -51 -235q-57 -183 -129 -304q-89 -151 -172 -151q-69 0 -127 129q-41 92 -73 241q-12 65 -24 131q-57 -113 -99 -245q-45 -144 -45 -230q-13 -13 -29 -18.5t-39 -5.5q-14 0 -19.5 8t-5.5 22t5 31q0 3 3 8q3 29 48 149q58 156 82 233q44 142 44 217
q17 17 20 19q16 11 37 11q31 0 44 -14q9 -10 9 -25q0 -3 -1 -9q0 -12 -14 -52q-2 -7 -7 -19q22 -117 98 -319q80 -212 107 -212q16 0 65.5 93.5t92.5 211.5q51 137 68 243l-12 47q1 33 6 49q17 50 68 50q30 0 42 -12q9 -9 9 -26q-1 -12 -1 -16zM655 817q0 -17 -51.5 -51
t-81.5 -34q-27 0 -98.5 25.5t-82.5 25.5q-10 0 -19 -5q-28 -16 -35 -17q-9 -2 -14 4t-3 15q18 34 51.5 50.5t63.5 16.5q26 0 106 -28q40 -14 67 -14q14 0 43.5 22.5t36.5 22.5q10 0 13.5 -8.5t3.5 -24.5z" />
    <glyph glyph-name="Odieresis" unicode="&#xd6;" 
d="M886 380q0 -133 -190 -264q-200 -138 -432 -138q-123 0 -197.5 51.5t-74.5 134.5q0 73 65 158q72 94 192 160q137 76 309 97q11 -7 15 -13t4 -13q0 -8 -5 -15q0 -1 -3 -2q-170 -36 -281 -111q-90 -61 -133 -141q-33 -62 -33 -122q0 -66 40 -101t122 -35q153 0 314 102
q172 109 172 234q0 45 -33 76q-43 40 -127 40q-3 0 -18.5 -2.5t-20.5 -2.5q-14 0 -22 5t-8 18q0 26 51 35q17 2 52 3q93 0 153 -26q89 -38 89 -128zM759 705q0 -27 -20.5 -46.5t-49.5 -19.5t-48.5 20.5t-19.5 49.5t21 48t50 19t48 -21t19 -50zM555 706q0 -28 -20 -47
t-50 -19q-29 0 -48.5 20.5t-19.5 49.5t21 48t50 19t48 -21t19 -50z" />
    <glyph glyph-name="Udieresis" unicode="&#xdc;" horiz-adv-x="753" 
d="M745 577q-48 -273 -185 -435q-129 -152 -286 -152q-98 0 -168 58q-76 63 -76 166q1 24 3 49q8 60 33 129q33 93 95 183q18 5 27 7q32 8 40 8q21 0 29.5 -8.5t8.5 -22.5q0 -10 -2.5 -17t-5.5 -13q-60 -95 -94 -181.5t-34 -147.5q0 -78 39 -117t111 -39q16 -2 23 -2
q121 0 232 163q117 172 117 385l18 22q8 6 18 6q38 0 51 -20q4 -6 6 -21zM656 729q0 -27 -20.5 -46.5t-49.5 -19.5t-48.5 20.5t-19.5 49.5t21 48t50 19t48 -21t19 -50zM452 730q0 -28 -20 -47t-50 -19q-29 0 -48.5 20.5t-19.5 49.5t21 48t50 19t48 -21t19 -50z" />
    <glyph glyph-name="aacute" unicode="&#xe1;" horiz-adv-x="797" 
d="M730 248q0 -16 -8.5 -21t-16.5 -9l-42 -6q-18 -68 -28 -99q-15 -48 -40 -103q-9 -9 -19.5 -15t-23.5 -6q-37 0 -47 28q-3 9 -3 28l66 167q-124 0 -188 -13q-52 -16 -104 -31q-17 0 -33.5 9t-16.5 25q0 47 183 69q61 7 184 13q37 104 52.5 160.5t15.5 92.5t-31 36
q-42 0 -196.5 -112.5t-274.5 -234.5q-142 -144 -142 -214l-7 -11q-26 -10 -58 -10q-15 0 -22 1q-4 27 -5 40q-5 41 -5 43q71 108 214 244q138 132 276 224q148 99 220 99q51 0 73.5 -24.5t22.5 -83.5q0 -38 -8 -86t-34 -161h31q5 -4 7 -7q8 -12 8 -32zM844 776q0 -8 -5 -16
q-2 -2 -11 -13l-65 -19q-7 -4 -15 2q-5 6 -6 7l-170 -40q-9 1 -13 2q-14 5 -14 16q0 5 1 15q0 3 1 9q66 27 130 47q84 26 126 26q19 0 30 -7.5t11 -28.5z" />
    <glyph glyph-name="agrave" unicode="&#xe0;" horiz-adv-x="797" 
d="M730 248q0 -16 -8.5 -21t-16.5 -9l-42 -6q-18 -68 -28 -99q-15 -48 -40 -103q-9 -9 -19.5 -15t-23.5 -6q-37 0 -47 28q-3 9 -3 28l66 167q-124 0 -188 -13q-52 -16 -104 -31q-17 0 -33.5 9t-16.5 25q0 47 183 69q61 7 184 13q37 104 52.5 160.5t15.5 92.5t-31 36
q-42 0 -196.5 -112.5t-274.5 -234.5q-142 -144 -142 -214l-7 -11q-26 -10 -58 -10q-15 0 -22 1q-4 27 -5 40q-5 41 -5 43q71 108 214 244q138 132 276 224q148 99 220 99q51 0 73.5 -24.5t22.5 -83.5q0 -38 -8 -86t-34 -161h31q5 -4 7 -7q8 -12 8 -32zM671 750
q12 -16 12 -28q0 -9 -7 -15q-2 -2 -8 -5q-72 19 -108 29q-110 31 -116 37q-15 9 -23 14q-25 15 -28 21q0 15 13 34q4 6 14 16l66 -18q8 -3 15.5 -10t15.5 -13z" />
    <glyph glyph-name="acircumflex" unicode="&#xe2;" horiz-adv-x="797" 
d="M730 248q0 -16 -8.5 -21t-16.5 -9l-42 -6q-18 -68 -28 -99q-15 -48 -40 -103q-9 -9 -19.5 -15t-23.5 -6q-37 0 -47 28q-3 9 -3 28l66 167q-124 0 -188 -13q-52 -16 -104 -31q-17 0 -33.5 9t-16.5 25q0 47 183 69q61 7 184 13q37 104 52.5 160.5t15.5 92.5t-31 36
q-42 0 -196.5 -112.5t-274.5 -234.5q-142 -144 -142 -214l-7 -11q-26 -10 -58 -10q-15 0 -22 1q-4 27 -5 40q-5 41 -5 43q71 108 214 244q138 132 276 224q148 99 220 99q51 0 73.5 -24.5t22.5 -83.5q0 -38 -8 -86t-34 -161h31q5 -4 7 -7q8 -12 8 -32zM838 740q0 -22 -4 -32
q-10 -23 -38 -23q-21 0 -73.5 30.5t-68.5 30.5q-17 0 -63 -20l-92 -40q-11 2 -23 9t-12 14q0 17 85 63.5t117 46.5q30 0 75 -20.5t97 -58.5z" />
    <glyph glyph-name="adieresis" unicode="&#xe4;" horiz-adv-x="797" 
d="M730 248q0 -16 -8.5 -21t-16.5 -9l-42 -6q-18 -68 -28 -99q-15 -48 -40 -103q-9 -9 -19.5 -15t-23.5 -6q-37 0 -47 28q-3 9 -3 28l66 167q-124 0 -188 -13q-52 -16 -104 -31q-17 0 -33.5 9t-16.5 25q0 47 183 69q61 7 184 13q37 104 52.5 160.5t15.5 92.5t-31 36
q-42 0 -196.5 -112.5t-274.5 -234.5q-142 -144 -142 -214l-7 -11q-26 -10 -58 -10q-15 0 -22 1q-4 27 -5 40q-5 41 -5 43q71 108 214 244q138 132 276 224q148 99 220 99q51 0 73.5 -24.5t22.5 -83.5q0 -38 -8 -86t-34 -161h31q5 -4 7 -7q8 -12 8 -32zM827 765
q0 -27 -20.5 -46.5t-49.5 -19.5t-48.5 20.5t-19.5 49.5t21 48t50 19t48 -21t19 -50zM623 766q0 -28 -20 -47t-50 -19q-29 0 -48.5 20.5t-19.5 49.5t21 48t50 19t48 -21t19 -50z" />
    <glyph glyph-name="atilde" unicode="&#xe3;" horiz-adv-x="797" 
d="M730 248q0 -16 -8.5 -21t-16.5 -9l-42 -6q-18 -68 -28 -99q-15 -48 -40 -103q-9 -9 -19.5 -15t-23.5 -6q-37 0 -47 28q-3 9 -3 28l66 167q-124 0 -188 -13q-52 -16 -104 -31q-17 0 -33.5 9t-16.5 25q0 47 183 69q61 7 184 13q37 104 52.5 160.5t15.5 92.5t-31 36
q-42 0 -196.5 -112.5t-274.5 -234.5q-142 -144 -142 -214l-7 -11q-26 -10 -58 -10q-15 0 -22 1q-4 27 -5 40q-5 41 -5 43q71 108 214 244q138 132 276 224q148 99 220 99q51 0 73.5 -24.5t22.5 -83.5q0 -38 -8 -86t-34 -161h31q5 -4 7 -7q8 -12 8 -32zM824 787
q0 -17 -51.5 -51t-81.5 -34q-27 0 -98.5 25.5t-82.5 25.5q-10 0 -19 -5q-28 -16 -35 -17q-9 -2 -14 4t-3 15q18 34 51.5 50.5t63.5 16.5q26 0 106 -28q40 -14 67 -14q14 0 43.5 22.5t36.5 22.5q10 0 13.5 -8.5t3.5 -24.5z" />
    <glyph glyph-name="aring" unicode="&#xe5;" horiz-adv-x="797" 
d="M730 248q0 -16 -8.5 -21t-16.5 -9l-42 -6q-18 -68 -28 -99q-15 -48 -40 -103q-9 -9 -19.5 -15t-23.5 -6q-37 0 -47 28q-3 9 -3 28l66 167q-124 0 -188 -13q-52 -16 -104 -31q-17 0 -33.5 9t-16.5 25q0 47 183 69q61 7 184 13q37 104 52.5 160.5t15.5 92.5t-31 36
q-42 0 -196.5 -112.5t-274.5 -234.5q-142 -144 -142 -214l-7 -11q-26 -10 -58 -10q-15 0 -22 1q-4 27 -5 40q-5 41 -5 43q71 108 214 244q138 132 276 224q148 99 220 99q51 0 73.5 -24.5t22.5 -83.5q0 -38 -8 -86t-34 -161h31q5 -4 7 -7q8 -12 8 -32zM819 778
q0 -39 -29 -66q-33 -31 -90 -31q-41 0 -74.5 23t-33.5 56q0 21 23 49t47 28l7 -3q24 28 59 28q38 0 64.5 -25.5t26.5 -58.5zM754 780q0 15 -11.5 26.5t-27.5 11.5q-18 3 -33 -5l4 -14q-12 -4 -20 -15t-6 -20q0 -13 9 -22t29 -13q19 0 37.5 14.5t18.5 36.5z" />
    <glyph glyph-name="ccedilla" unicode="&#xe7;" horiz-adv-x="839" 
d="M796 629q1 -4 1 -13q0 -35 -23 -61t-58 -26q-29 0 -42 18q-9 13 -9 33q0 10 1 15q0 1 1 2q-12 4 -27.5 6.5t-30.5 2.5q-89 0 -227 -88q-130 -83 -229 -193q-105 -117 -105 -190q0 -41 29 -62q54 -39 210 -39l36 34l55 85l68 -23l-4 -22q-5 -19 -8 -22q-1 -2 -24 -21
l-37 -32h20q64 0 136 8.5t146 17.5q21 0 29.5 -4.5t8.5 -19.5q0 -38 -99 -56q-81 -15 -203 -15q-21 0 -59 1t-55 1l-185 -163l-16 41l128 129q-124 17 -190 61q-58 39 -58 86q0 86 92 224q100 150 237 249q163 118 322 118q66 0 113 -20.5t56 -61.5z" />
    <glyph glyph-name="eacute" unicode="&#xe9;" horiz-adv-x="770" 
d="M732 600q0 -26 -16.5 -43.5t-41.5 -17.5q-14 0 -34 14q-6 4 -17 15q-78 0 -132 -12l-102 -28q-19 0 -34 10.5t-15 28.5q0 25 133 50t235 25q8 -9 12 -14q12 -16 12 -28zM635 67q0 -38 -82.5 -58.5t-234.5 -20.5h-13h-5q-145 0 -209 28.5t-64 97.5q0 25 13 85q4 20 14 57
h-12q-28 3 -28 31q0 20 35 33q11 4 36 9q13 37 48 120q13 31 39 91v53q13 36 30 48q24 17 82 17q11 0 18 -33q2 -11 4 -33q-29 -57 -58 -115q-32 -65 -56 -118q90 16 202.5 32t150.5 16q15 -5 22 -10q22 -15 22 -41t-13 -36q-9 -7 -30 -7q-15 1 -23 1q-12 0 -25.5 4t-24.5 8
q-75 0 -159 -16q-66 -13 -156 -39q-27 -55 -35.5 -88t-8.5 -57q0 -37 27 -51.5t102 -14.5q97 0 182.5 13t172.5 28q37 0 37 -34zM716 819q0 -8 -5 -16q-2 -2 -11 -13l-65 -19q-7 -4 -15 2q-5 6 -6 7l-170 -40q-9 1 -13 2q-14 5 -14 16q0 5 1 15q0 3 1 9q66 27 130 47
q84 26 126 26q19 0 30 -7.5t11 -28.5z" />
    <glyph glyph-name="egrave" unicode="&#xe8;" horiz-adv-x="770" 
d="M732 600q0 -26 -16.5 -43.5t-41.5 -17.5q-14 0 -34 14q-6 4 -17 15q-78 0 -132 -12l-102 -28q-19 0 -34 10.5t-15 28.5q0 25 133 50t235 25q8 -9 12 -14q12 -16 12 -28zM635 67q0 -38 -82.5 -58.5t-234.5 -20.5h-13h-5q-145 0 -209 28.5t-64 97.5q0 25 13 85q4 20 14 57
h-12q-28 3 -28 31q0 20 35 33q11 4 36 9q13 37 48 120q13 31 39 91v53q13 36 30 48q24 17 82 17q11 0 18 -33q2 -11 4 -33q-29 -57 -58 -115q-32 -65 -56 -118q90 16 202.5 32t150.5 16q15 -5 22 -10q22 -15 22 -41t-13 -36q-9 -7 -30 -7q-15 1 -23 1q-12 0 -25.5 4t-24.5 8
q-75 0 -159 -16q-66 -13 -156 -39q-27 -55 -35.5 -88t-8.5 -57q0 -37 27 -51.5t102 -14.5q97 0 182.5 13t172.5 28q37 0 37 -34zM563 782q12 -16 12 -28q0 -9 -7 -15q-2 -2 -8 -5q-72 19 -108 29q-110 31 -116 37q-15 9 -23 14q-25 15 -28 21q0 15 13 34q4 6 14 16l66 -18
q8 -3 15.5 -10t15.5 -13z" />
    <glyph glyph-name="ecircumflex" unicode="&#xea;" horiz-adv-x="770" 
d="M732 600q0 -26 -16.5 -43.5t-41.5 -17.5q-14 0 -34 14q-6 4 -17 15q-78 0 -132 -12l-102 -28q-19 0 -34 10.5t-15 28.5q0 25 133 50t235 25q8 -9 12 -14q12 -16 12 -28zM635 67q0 -38 -82.5 -58.5t-234.5 -20.5h-13h-5q-145 0 -209 28.5t-64 97.5q0 25 13 85q4 20 14 57
h-12q-28 3 -28 31q0 20 35 33q11 4 36 9q13 37 48 120q13 31 39 91v53q13 36 30 48q24 17 82 17q11 0 18 -33q2 -11 4 -33q-29 -57 -58 -115q-32 -65 -56 -118q90 16 202.5 32t150.5 16q15 -5 22 -10q22 -15 22 -41t-13 -36q-9 -7 -30 -7q-15 1 -23 1q-12 0 -25.5 4t-24.5 8
q-75 0 -159 -16q-66 -13 -156 -39q-27 -55 -35.5 -88t-8.5 -57q0 -37 27 -51.5t102 -14.5q97 0 182.5 13t172.5 28q37 0 37 -34zM674 781q0 -22 -4 -32q-10 -23 -38 -23q-21 0 -73.5 30.5t-68.5 30.5q-17 0 -63 -20l-92 -40q-11 2 -23 9t-12 14q0 17 85 63.5t117 46.5
q30 0 75 -20.5t97 -58.5z" />
    <glyph glyph-name="edieresis" unicode="&#xeb;" horiz-adv-x="770" 
d="M732 600q0 -26 -16.5 -43.5t-41.5 -17.5q-14 0 -34 14q-6 4 -17 15q-78 0 -132 -12l-102 -28q-19 0 -34 10.5t-15 28.5q0 25 133 50t235 25q8 -9 12 -14q12 -16 12 -28zM635 67q0 -38 -82.5 -58.5t-234.5 -20.5h-13h-5q-145 0 -209 28.5t-64 97.5q0 25 13 85q4 20 14 57
h-12q-28 3 -28 31q0 20 35 33q11 4 36 9q13 37 48 120q13 31 39 91v53q13 36 30 48q24 17 82 17q11 0 18 -33q2 -11 4 -33q-29 -57 -58 -115q-32 -65 -56 -118q90 16 202.5 32t150.5 16q15 -5 22 -10q22 -15 22 -41t-13 -36q-9 -7 -30 -7q-15 1 -23 1q-12 0 -25.5 4t-24.5 8
q-75 0 -159 -16q-66 -13 -156 -39q-27 -55 -35.5 -88t-8.5 -57q0 -37 27 -51.5t102 -14.5q97 0 182.5 13t172.5 28q37 0 37 -34zM630 798q0 -27 -20.5 -46.5t-49.5 -19.5t-48.5 20.5t-19.5 49.5t21 48t50 19t48 -21t19 -50zM426 799q0 -28 -20 -47t-50 -19q-29 0 -48.5 20.5
t-19.5 49.5t21 48t50 19t48 -21t19 -50z" />
    <glyph glyph-name="iacute" unicode="&#xed;" horiz-adv-x="261" 
d="M180 421q-43 -118 -62 -218q-15 -80 -15 -152q3 -14 -18.5 -38.5t-44.5 -24.5q-15 0 -26 14t-17 47q16 20 43.5 170t27.5 223q20 22 36.5 31.5t29.5 9.5q22 0 36 -30q10 -31 10 -32zM403 653q0 -8 -5 -16q-2 -2 -11 -13l-65 -19q-7 -4 -15 2q-5 6 -6 7l-170 -40
q-9 1 -13 2q-14 5 -14 16q0 5 1 15q0 3 1 9q66 27 130 47q84 26 126 26q19 0 30 -7.5t11 -28.5z" />
    <glyph glyph-name="igrave" unicode="&#xec;" horiz-adv-x="261" 
d="M183 421q-43 -118 -62 -218q-15 -80 -15 -152q3 -14 -18.5 -38.5t-44.5 -24.5q-15 0 -26 14t-17 47q16 20 43.5 170t27.5 223q20 22 36.5 31.5t29.5 9.5q22 0 36 -30q10 -31 10 -32zM226 621q12 -16 12 -28q0 -9 -7 -15q-2 -2 -8 -5q-72 19 -108 29q-110 31 -116 37
q-15 9 -23 14q-25 15 -28 21q0 15 13 34q4 6 14 16l66 -18q8 -3 15.5 -10t15.5 -13z" />
    <glyph glyph-name="icircumflex" unicode="&#xee;" horiz-adv-x="261" 
d="M181 421q-43 -118 -62 -218q-15 -80 -15 -152q3 -14 -18.5 -38.5t-44.5 -24.5q-15 0 -26 14t-17 47q16 20 43.5 170t27.5 223q20 22 36.5 31.5t29.5 9.5q22 0 36 -30q10 -31 10 -32zM313 614q-3 -28 -7 -34q-9 -12 -28 -12q-18 0 -61 25.5t-56 25.5t-51.5 -16.5
t-77.5 -33.5q-11 2 -20 8.5t-9 10.5q0 15 70 54t98 39q24 0 62.5 -18t79.5 -49z" />
    <glyph glyph-name="idieresis" unicode="&#xef;" horiz-adv-x="261" 
d="M180 421q-43 -118 -62 -218q-15 -80 -15 -152q3 -14 -18.5 -38.5t-44.5 -24.5q-15 0 -26 14t-17 47q16 20 43.5 170t27.5 223q20 22 36.5 31.5t29.5 9.5q22 0 36 -30q10 -31 10 -32zM323 622q0 -27 -20.5 -46.5t-49.5 -19.5t-48.5 20.5t-19.5 49.5t21 48t50 19t48 -21
t19 -50zM119 623q0 -28 -20 -47t-50 -19q-29 0 -48.5 20.5t-19.5 49.5t21 48t50 19t48 -21t19 -50z" />
    <glyph glyph-name="ntilde" unicode="&#xf1;" horiz-adv-x="786" 
d="M726 561q0 -220 -68 -387q-78 -192 -208 -192q-97 0 -194 142q-72 105 -135 271q-50 132 -50 161q0 19 19 32q10 7 36 17q5 1 27 -15q7 -5 23 -17q24 -155 112 -341q95 -202 159 -196q61 0 120 147q63 157 63 351q0 34 -5 63t-13 55q-6 8 -9 13q-10 17 -10 28
q0 19 19 27.5t48 11.5q45 5 60 -82q5 -29 6 -89zM153 313q-44 -152 -64 -296q-9 -7 -15 -10q-18 -10 -33 -10q-11 0 -19 4.5t-14 17.5q7 75 26 149.5t49 146.5l43 22q15 -6 27 -24zM580 808q0 -17 -51.5 -51t-81.5 -34q-27 0 -98.5 25.5t-82.5 25.5q-10 0 -19 -5
q-28 -16 -35 -17q-9 -2 -14 4t-3 15q18 34 51.5 50.5t63.5 16.5q26 0 106 -28q40 -14 67 -14q14 0 43.5 22.5t36.5 22.5q10 0 13.5 -8.5t3.5 -24.5z" />
    <glyph glyph-name="oacute" unicode="&#xf3;" horiz-adv-x="889" 
d="M834 387q0 -158 -161 -287q-155 -124 -328 -124q-159 0 -243 67t-84 191q0 146 113 270q131 143 366 199l27 -42q113 0 199 -58q111 -75 111 -216zM726 399q0 104 -83 162q-69 48 -163 48q-88 0 -148.5 -54.5t-60.5 -130.5q-7 -4 -14.5 -7t-12.5 -3q-16 0 -25 20
q8 43 24 81q-56 -44 -88 -117t-32 -146q0 -102 64 -157t177 -55q158 0 263 112q99 106 99 247zM762 822q0 -8 -5 -16q-2 -2 -11 -13l-65 -19q-7 -4 -15 2q-5 6 -6 7l-170 -40q-9 1 -13 2q-14 5 -14 16q0 5 1 15q0 3 1 9q66 27 130 47q84 26 126 26q19 0 30 -7.5t11 -28.5z
" />
    <glyph glyph-name="ograve" unicode="&#xf2;" horiz-adv-x="889" 
d="M834 387q0 -158 -161 -287q-155 -124 -328 -124q-159 0 -243 67t-84 191q0 146 113 270q131 143 366 199l27 -42q113 0 199 -58q111 -75 111 -216zM726 399q0 104 -83 162q-69 48 -163 48q-88 0 -148.5 -54.5t-60.5 -130.5q-7 -4 -14.5 -7t-12.5 -3q-16 0 -25 20
q8 43 24 81q-56 -44 -88 -117t-32 -146q0 -102 64 -157t177 -55q158 0 263 112q99 106 99 247zM585 779q12 -16 12 -28q0 -9 -7 -15q-2 -2 -8 -5q-72 19 -108 29q-110 31 -116 37q-15 9 -23 14q-25 15 -28 21q0 15 13 34q4 6 14 16l66 -18q8 -3 15.5 -10t15.5 -13z" />
    <glyph glyph-name="ocircumflex" unicode="&#xf4;" horiz-adv-x="889" 
d="M834 387q0 -158 -161 -287q-155 -124 -328 -124q-159 0 -243 67t-84 191q0 146 113 270q131 143 366 199l27 -42q113 0 199 -58q111 -75 111 -216zM726 399q0 104 -83 162q-69 48 -163 48q-88 0 -148.5 -54.5t-60.5 -130.5q-7 -4 -14.5 -7t-12.5 -3q-16 0 -25 20
q8 43 24 81q-56 -44 -88 -117t-32 -146q0 -102 64 -157t177 -55q158 0 263 112q99 106 99 247zM731 787q0 -22 -4 -32q-10 -23 -38 -23q-21 0 -73.5 30.5t-68.5 30.5q-17 0 -63 -20l-92 -40q-11 2 -23 9t-12 14q0 17 85 63.5t117 46.5q30 0 75 -20.5t97 -58.5z" />
    <glyph glyph-name="odieresis" unicode="&#xf6;" horiz-adv-x="889" 
d="M834 387q0 -158 -161 -287q-155 -124 -328 -124q-159 0 -243 67t-84 191q0 146 113 270q131 143 366 199l27 -42q113 0 199 -58q111 -75 111 -216zM726 399q0 104 -83 162q-69 48 -163 48q-88 0 -148.5 -54.5t-60.5 -130.5q-7 -4 -14.5 -7t-12.5 -3q-16 0 -25 20
q8 43 24 81q-56 -44 -88 -117t-32 -146q0 -102 64 -157t177 -55q158 0 263 112q99 106 99 247zM730 792q0 -27 -20.5 -46.5t-49.5 -19.5t-48.5 20.5t-19.5 49.5t21 48t50 19t48 -21t19 -50zM526 793q0 -28 -20 -47t-50 -19q-29 0 -48.5 20.5t-19.5 49.5t21 48t50 19t48 -21
t19 -50z" />
    <glyph glyph-name="otilde" unicode="&#xf5;" horiz-adv-x="889" 
d="M834 387q0 -158 -161 -287q-155 -124 -328 -124q-159 0 -243 67t-84 191q0 146 113 270q131 143 366 199l27 -42q113 0 199 -58q111 -75 111 -216zM726 399q0 104 -83 162q-69 48 -163 48q-88 0 -148.5 -54.5t-60.5 -130.5q-7 -4 -14.5 -7t-12.5 -3q-16 0 -25 20
q8 43 24 81q-56 -44 -88 -117t-32 -146q0 -102 64 -157t177 -55q158 0 263 112q99 106 99 247zM749 826q0 -17 -51.5 -51t-81.5 -34q-27 0 -98.5 25.5t-82.5 25.5q-10 0 -19 -5q-28 -16 -35 -17q-9 -2 -14 4t-3 15q18 34 51.5 50.5t63.5 16.5q26 0 106 -28q40 -14 67 -14
q14 0 43.5 22.5t36.5 22.5q10 0 13.5 -8.5t3.5 -24.5z" />
    <glyph glyph-name="uacute" unicode="&#xfa;" horiz-adv-x="815" 
d="M755 617q-14 -69 -22 -134t-8 -146q0 -106 18 -289l-14 -20q-10 -9 -20 -9q-13 0 -30 14q-22 115 -28.5 187.5t-6.5 158.5l-72 -96q-91 -111 -181 -180q-128 -97 -238 -97q-115 0 -115 145q0 107 59 284q63 188 141 292q9 5 13 7q15 7 24 7q23 -10 32 -24q16 -25 16 -63
q0 -30 -26 -49q-8 -6 -27 -13q-79 -159 -121 -288q-29 -90 -38 -157q-1 -6 -1 -16q0 -65 67 -65q57 0 139 53q99 64 189 179q109 140 182 331q21 10 35 10q16 0 26 -11q3 -3 7 -11zM748 809q0 -8 -5 -16q-2 -2 -11 -13l-65 -19q-7 -4 -15 2q-5 6 -6 7l-170 -40q-9 1 -13 2
q-14 5 -14 16q0 5 1 15q0 3 1 9q66 27 130 47q84 26 126 26q19 0 30 -7.5t11 -28.5z" />
    <glyph glyph-name="ugrave" unicode="&#xf9;" horiz-adv-x="815" 
d="M755 617q-14 -69 -22 -134t-8 -146q0 -106 18 -289l-14 -20q-10 -9 -20 -9q-13 0 -30 14q-22 115 -28.5 187.5t-6.5 158.5l-72 -96q-91 -111 -181 -180q-128 -97 -238 -97q-115 0 -115 145q0 107 59 284q63 188 141 292q9 5 13 7q15 7 24 7q23 -10 32 -24q16 -25 16 -63
q0 -30 -26 -49q-8 -6 -27 -13q-79 -159 -121 -288q-29 -90 -38 -157q-1 -6 -1 -16q0 -65 67 -65q57 0 139 53q99 64 189 179q109 140 182 331q21 10 35 10q16 0 26 -11q3 -3 7 -11zM560 782q12 -16 12 -28q0 -9 -7 -15q-2 -2 -8 -5q-72 19 -108 29q-110 31 -116 37
q-15 9 -23 14q-25 15 -28 21q0 15 13 34q4 6 14 16l66 -18q8 -3 15.5 -10t15.5 -13z" />
    <glyph glyph-name="ucircumflex" unicode="&#xfb;" horiz-adv-x="815" 
d="M755 617q-14 -69 -22 -134t-8 -146q0 -106 18 -289l-14 -20q-10 -9 -20 -9q-13 0 -30 14q-22 115 -28.5 187.5t-6.5 158.5l-72 -96q-91 -111 -181 -180q-128 -97 -238 -97q-115 0 -115 145q0 107 59 284q63 188 141 292q9 5 13 7q15 7 24 7q23 -10 32 -24q16 -25 16 -63
q0 -30 -26 -49q-8 -6 -27 -13q-79 -159 -121 -288q-29 -90 -38 -157q-1 -6 -1 -16q0 -65 67 -65q57 0 139 53q99 64 189 179q109 140 182 331q21 10 35 10q16 0 26 -11q3 -3 7 -11zM723 793q0 -22 -4 -32q-10 -23 -38 -23q-21 0 -73.5 30.5t-68.5 30.5q-17 0 -63 -20
l-92 -40q-11 2 -23 9t-12 14q0 17 85 63.5t117 46.5q30 0 75 -20.5t97 -58.5z" />
    <glyph glyph-name="udieresis" unicode="&#xfc;" horiz-adv-x="815" 
d="M755 617q-14 -69 -22 -134t-8 -146q0 -106 18 -289l-14 -20q-10 -9 -20 -9q-13 0 -30 14q-22 115 -28.5 187.5t-6.5 158.5l-72 -96q-91 -111 -181 -180q-128 -97 -238 -97q-115 0 -115 145q0 107 59 284q63 188 141 292q9 5 13 7q15 7 24 7q23 -10 32 -24q16 -25 16 -63
q0 -30 -26 -49q-8 -6 -27 -13q-79 -159 -121 -288q-29 -90 -38 -157q-1 -6 -1 -16q0 -65 67 -65q57 0 139 53q99 64 189 179q109 140 182 331q21 10 35 10q16 0 26 -11q3 -3 7 -11zM717 774q0 -27 -20.5 -46.5t-49.5 -19.5t-48.5 20.5t-19.5 49.5t21 48t50 19t48 -21t19 -50
zM513 775q0 -28 -20 -47t-50 -19q-29 0 -48.5 20.5t-19.5 49.5t21 48t50 19t48 -21t19 -50z" />
    <glyph glyph-name="dagger" unicode="&#x2020;" horiz-adv-x="661" 
d="M676 540q7 -22 -22 -47q-9 -8 -31 -21q-33 4 -54 5q-71 6 -105 6q-46 0 -60 -7q-10 -20 -55 -137q-13 -33 -77 -206q-39 -106 -40 -106q21 -14 25 -25.5t4 -36.5q0 -32 -23 -51t-58 -19q-17 0 -36 15t-20 21q-4 14 48 154q36 97 98 254q53 134 54 134q-48 0 -150 -19
q-34 -6 -93 -19q-2 4 -3.5 12.5t-1.5 15.5q0 40 42 69q7 5 20 11q31 5 92.5 7.5t120.5 4.5l49 197q23 12 51.5 21t53.5 9q5 -29 -33 -130q-12 -33 -39 -96q18 1 41.5 1.5t54.5 0.5q79 0 110 -4.5t37 -13.5z" />
    <glyph glyph-name="degree" unicode="&#xb0;" horiz-adv-x="376" 
d="M400 621q0 -56 -39 -95t-95 -39t-95.5 38.5t-39.5 95.5q0 55 39.5 93.5t95.5 38.5q54 0 94 -39t40 -93zM356 621q0 37 -26 64t-64 27q-39 0 -66 -26t-27 -65q0 -38 27 -65t66 -27q38 0 64 27t26 65z" />
    <glyph glyph-name="cent" unicode="&#xa2;" horiz-adv-x="688" 
d="M634 482q-6 -26 -21 -41t-37 -15q-6 0 -19 4.5t-22 29.5q-3 8 -6 25q-14 5 -23 7.5t-20 2.5q-26 0 -78 -20l-136 -446q8 -1 15.5 -1.5t19.5 -0.5q36 0 87 6q120 14 134 14q42 0 42 -17q0 -36 -109 -50q-68 -9 -169 -9h-23h-9q-4 -9 -5 -14q-5 -17 -5 -32q0 -17 7 -30
q2 -8 2 -13q0 -18 -10 -29q-15 -16 -49 -16q-14 0 -25 1.5t-17.5 12t-12.5 31.5q-2 8 -2 13q0 22 18 53q6 10 18 27q-71 7 -106 17q-106 32 -106 107q0 92 118 233q127 151 277 213l30 122l25 10l55 -38l-30 -70q16 6 33.5 8t31.5 2q55 0 87 -14q43 -19 43 -61q0 -10 -3 -22
zM334 444q-134 -67 -227 -179q-80 -96 -80 -151q0 -45 86 -69q28 -8 87 -15q9 24 41 123q14 44 61 191z" />
    <glyph glyph-name="sterling" unicode="&#xa3;" horiz-adv-x="834" 
d="M773 652q0 -31 -18 -56.5t-48 -25.5q-35 0 -49 47t-48 47q-74 0 -178 -117q-97 -109 -97 -155q10 2 37.5 3t63.5 1q70 0 120 -1t94 -4q10 -8 20 -15q17 -15 17 -47q0 -16 -20 -22q-8 -2 -36 -5l-36 9q-38 11 -43 21q-62 0 -125 1l-126 2q-43 -114 -114 -227q88 0 171 -6
t192 -19q11 10 20 14q28 15 60 15q28 0 51.5 -21.5t25 -36t1.5 -22.5q0 -24 -18.5 -38.5t-46.5 -14.5q-37 9 -73 17q-78 17 -171 31q-120 18 -197 18q-35 0 -67 -3q-43 -43 -74.5 -60.5t-76.5 -17.5q-28 3 -42 17q-17 17 -17 45v10q3 27 39 45q27 13 58 17.5t55 6.5t50 2
q33 48 60 107q24 52 43 115l-96 -13q-16 16 -16 26q0 7 8 14t7 11l116 19q63 177 141 270q83 98 178 98q52 0 128.5 -36t76.5 -66z" />
    <glyph glyph-name="section" unicode="&#xa7;" horiz-adv-x="798" 
d="M774 795q0 -71 -68 -110q-51 -29 -109 -29q-7 17 -12 25q-16 26 -29 24q-56 -8 -108 -47.5t-52 -69.5q0 -63 91 -83q85 -12 171 -23q92 -18 92 -76q0 -108 -124 -220q-108 -98 -269 -166q-152 -65 -258 -65q-61 0 -90 20.5t-24 48.5q10 58 61 119q60 72 122 72
q12 0 24 -3q-5 -14 -38 -77q-10 -20 -31 -60q0 -12 8.5 -21.5t16 -11.5t19.5 -2q57 0 126.5 57t69.5 110q0 58 -72 97q-67 28 -134 57q-73 35 -73 83q0 70 128 161q111 79 267 142t235 63q21 0 40.5 -4.5t19.5 -10.5zM639 339q0 53 -91 84q-85 23 -169 47q-91 31 -91 85
q0 20 8 35q-36 -21 -53 -35q-54 -43 -54 -75q0 -33 67 -61q108 -46 126 -57q68 -43 68 -110q0 -40 -16 -79.5t-51 -74.5q5 0 66 37q76 46 123 90q67 63 67 114z" />
    <glyph glyph-name="bullet" unicode="&#x2022;" horiz-adv-x="376" 
d="M369 369q0 -54 -39 -94t-95 -40t-95.5 39.5t-39.5 94.5q0 56 39.5 94.5t95.5 38.5t95 -38t39 -95z" />
    <glyph glyph-name="paragraph" unicode="&#xb6;" horiz-adv-x="543" 
d="M530 665l-83 -665h-38l83 665h38zM610 739l-3 -37h-299q-67 0 -116 -44t-49 -107q0 -61 37 -103t92 -42h77l31 259h38l-83 -665h-37l45 369h-75q-69 0 -116.5 48.5t-47.5 118.5q0 12 1 18q7 78 66.5 131.5t141.5 53.5h297z" />
    <glyph glyph-name="germandbls" unicode="&#xdf;" horiz-adv-x="700" 
d="M712 528q-26 -95 -139.5 -123t-123.5 -51q-3 -9 -3 -15q0 -19 75 -55t75 -94q0 -29 -16 -68q-29 -67 -100 -103q-61 -31 -130 -31q-51 0 -83.5 13t-24.5 30l36 87q10 24 28 24q11 0 11 -20q0 -10 -2.5 -31.5t-2.5 -26.5q0 -27 10.5 -42t39.5 -15q39 0 78 21q49 26 68 72
q9 23 9 39q0 40 -72.5 79.5t-72.5 79.5q0 19 8 38q23 55 124.5 81.5t134.5 102.5q7 15 7 31q0 29 -25 46t-61 17q-56 0 -108 -37q-60 -43 -93 -120l-230 -543q-14 -30 -19.5 -34.5t-29.5 -4.5h-87q-22 0 -25 1q-5 2 -2 7q6 16 42.5 16.5t56.5 46.5l186 440q60 140 165 209
q78 51 157 51q68 0 107 -30q35 -27 35 -66q0 -11 -3 -22z" />
    <glyph glyph-name="registered" unicode="&#xae;" horiz-adv-x="926" 
d="M893 370q0 -159 -113.5 -270.5t-274.5 -111.5q-159 0 -272.5 112.5t-113.5 269.5q0 159 113 271t273 112t274 -112t114 -271zM852 376q0 136 -94 237q-100 107 -250 107q-149 0 -248.5 -103.5t-99.5 -246.5q0 -142 101 -244t251 -102t248 109q92 102 92 243zM714 528
q0 -60 -33 -109q-39 -59 -129 -109q17 -54 45 -83q23 -24 36 -22q8 -10 11 -16q11 -18 11 -27q2 -22 -7 -30.5t-24 -8.5q-6 0 -14 2q-2 0 -6 2q-41 54 -63 107.5t-22 86.5q0 18 9 22q3 1 8 -1q1 0 5 -3q55 17 89 77q27 48 27 88q0 58 -41 58q-40 -4 -85 -40
q-52 -41 -103 -119q-31 -123 -91 -257q-9 -2 -26 -2q-10 0 -12.5 17t-2.5 24v13q0 1 1 2q27 61 42 95q46 99 73 137q9 62 9 86q0 9 -1.5 18t-2.5 13q5 9 7 13q9 14 15 14t9 -9.5t3 -23.5t-1.5 -28t-6.5 -36q42 59 99.5 101.5t95.5 42.5q34 0 55 -27t21 -68z" />
    <glyph glyph-name="copyright" unicode="&#xa9;" horiz-adv-x="926" 
d="M893 370q0 -159 -113.5 -270.5t-274.5 -111.5q-159 0 -272.5 112.5t-113.5 269.5q0 159 113 271t273 112t274 -112t114 -271zM852 369q0 141 -95 243q-100 108 -253 108q-147 0 -245.5 -103.5t-98.5 -246.5q0 -141 100 -242t244 -101q158 0 256 104q92 98 92 238z
M734 591q-45 -54 -69 -130q-3 -3 -9 -3q-14 0 -23 11q8 41 24 79t38 71l19 4q7 -2 10 -4q11 -7 11 -19q0 -6 -1 -9zM638 177q0 -15 -26.5 -19.5t-65.5 -4.5h-26q-140 0 -228 54q-76 47 -76 105q0 55 164.5 147t246.5 92q14 0 11 -18q-1 -7 -98 -52q-118 -55 -180 -93
q-97 -60 -97 -103q0 -28 54 -51q67 -28 182 -28q106 7 117 7q10 0 16 -11.5t6 -24.5z" />
    <glyph glyph-name="trademark" unicode="&#x2122;" horiz-adv-x="745" 
d="M731 754l-18 -385h-49l25 274q-2 -5 -51.5 -76.5t-96.5 -138.5q-26 -36 -51 -72h-4l-57 287q-1 -6 -56 -141q-18 -44 -55 -133h-48l173 385h4l61 -316q2 7 58 87q60 87 104 149q56 80 57 80h4zM374 739l-10 -41h-89l-81 -329h-47l82 329h-86l9 41h222z" />
    <glyph glyph-name="acute" unicode="&#xb4;" horiz-adv-x="372" 
d="M448 818q0 -8 -5 -16q-2 -2 -11 -13l-65 -19q-7 -4 -15 2q-5 6 -6 7l-170 -40q-9 1 -13 2q-14 5 -14 16q0 5 1 15q0 3 1 9q66 27 130 47q84 26 126 26q19 0 30 -7.5t11 -28.5z" />
    <glyph glyph-name="dieresis" unicode="&#xa8;" horiz-adv-x="340" 
d="M343 714q0 -27 -20.5 -46.5t-49.5 -19.5t-48.5 20.5t-19.5 49.5t21 48t50 19t48 -21t19 -50zM139 715q0 -28 -20 -47t-50 -19q-29 0 -48.5 20.5t-19.5 49.5t21 48t50 19t48 -21t19 -50z" />
    <glyph glyph-name="AE" unicode="&#xc6;" horiz-adv-x="1158" 
d="M1112 616q0 -22 -13.5 -33.5t-34.5 -11.5q-19 0 -45 21q-4 3 -10 10q-62 0 -121 -5t-114 -17v54q74 19 148.5 31.5t133.5 12.5q27 0 41.5 -14.5t14.5 -47.5zM1049 300q0 -25 -12 -39q-17 -19 -55 -19q-3 0 -26 15q-7 5 -23 15q-137 0 -201.5 -3.5t-137.5 -12.5
q-54 -95 -54 -145q0 -41 47 -55t177 -14q47 0 127 21q26 7 71 21q21 1 34 1q29 0 39 -8t10 -24q0 -12 -6 -29q-2 -6 -7 -16l-324 -29q-136 0 -198.5 26.5t-62.5 84.5q0 28 10 62.5t34 89.5q-52 -7 -108 -22q-71 -19 -113 -43q-30 0 -42 7.5t-12 19.5q0 11 10 26q1 2 6 7
q64 22 116 35q74 19 168 31q41 75 74 141q67 130 63 152q-2 9 -21 9q-27 0 -135 -75q-116 -81 -233 -189q-139 -129 -218 -244q-2 -6 -3 -18t-1 -17v-13q0 -26 -9 -36q-14 -15 -58 -15q-24 0 -34 18.5t-10 48.5q0 11 1 21q0 2 3 19q174 233 380 398q211 169 336 169
q31 0 47 -25t16 -66q0 -45 -46 -158q-15 -37 -46 -105q89 10 181.5 17t162.5 7q43 0 63 -12t20 -30z" />
    <glyph glyph-name="Oslash" unicode="&#xd8;" horiz-adv-x="890" 
d="M840 392q0 -173 -155 -298q-147 -118 -329 -118q-44 0 -89 7t-79 18l-97 -117q-17 4 -26 7q-28 11 -33 31l26 39l26 13l48 56q-48 27 -76 82t-28 124q0 150 105 271q127 146 372 195l26 -41q20 0 49 -5q10 -2 49 -10l52 66l50 -21l-50 -65q69 -12 117 -94q42 -72 42 -140
zM734 386q0 64 -25.5 112.5t-71.5 71.5l-398 -504q47 -26 125 -26q142 0 250 90q120 100 120 256zM583 594q-24 7 -47.5 10.5t-47.5 3.5q-76 0 -133 -44q-64 -50 -77 -138q-4 -4 -6 -5q-8 -5 -18 -5q-15 0 -27 19q5 43 24 80q-52 -39 -84 -103q-35 -69 -35 -148
q0 -56 15 -97t44 -68z" />
    <glyph glyph-name="plusminus" unicode="&#xb1;" horiz-adv-x="613" 
d="M623 315q-18 -54 -36 -74t-45 -20q-12 0 -61 9t-91 9q-12 -44 -19 -68q-23 -83 -29 -108q30 0 55.5 3t69.5 12l56 -10q2 -16 2 -22q0 -64 -67 -64q-21 0 -53 9q-91 0 -181 -0.5t-162 -1.5q-16 10 -22.5 20.5t-6.5 24.5q0 17 11 36q3 6 11 15q32 -8 55 -11q69 -11 138 -11
q0 42 30 113q10 24 31 64q-64 -2 -128.5 -4.5t-83.5 -5.5q-1 5 -10 15t-9 18q0 12 9.5 28t35.5 44q28 -12 125 -20q31 -2 90 -6q15 58 23 88q26 91 37 106q18 13 30.5 18.5t22.5 5.5q11 0 18 -7q11 -11 8 -25q4 -16 -30 -101q-11 -28 -36 -84l155 16l10 1z" />
    <glyph glyph-name="yen" unicode="&#xa5;" horiz-adv-x="670" 
d="M721 604q0 -48 -76 -108q-67 -53 -158 -91l-20 -23h129v-43h-166l-54 -61h189v-43h-225q-55 -63 -94 -116q-45 -61 -68 -104q-22 -15 -27 -17q-17 -9 -31 -9q-9 0 -16.5 2.5t-16.5 10.5t-17 16q0 25 52 92q39 50 108 125h-233v43h272l59 61h-300v43h106
q-31 28 -48.5 67.5t-17.5 82.5q0 44 9 71q16 48 57 48q18 0 32.5 -6t14.5 -21v-11q0 -34 -15 -76q-5 -14 -15 -35q20 -48 70.5 -78t113.5 -30q6 0 14 1t12 1l29 5q74 68 133 118q63 54 141 112q19 -2 28 -4q29 -7 29 -23z" />
    <glyph glyph-name="mu" unicode="&#xb5;" horiz-adv-x="815" 
d="M755 617q-14 -69 -22 -134t-8 -146q0 -106 18 -289l-14 -20q-10 -9 -20 -9q-13 0 -30 14q-22 115 -28.5 187.5t-6.5 158.5l-72 -96q-91 -111 -181 -180q-128 -97 -238 -97q-23 0 -45 8q0 -23 0.5 -50t1.5 -58q0 -30 -5 -34q-19 -4 -67 37q0 31 6.5 71t13.5 77
q-20 37 -20 94q0 107 59 284q63 188 141 292q9 5 13 7q15 7 24 7q23 -10 32 -24q16 -25 16 -63q0 -30 -26 -49q-8 -6 -27 -13q-79 -159 -121 -288q-29 -90 -38 -157q-1 -6 -1 -16q0 -65 67 -65q57 0 139 53q99 64 189 179q109 140 182 331q21 10 35 10q16 0 26 -11
q3 -3 7 -11z" />
    <glyph glyph-name="ordfeminine" unicode="&#xaa;" horiz-adv-x="489" 
d="M504 739l-41 -325h-44l10 85q-15 -45 -62 -70q-40 -21 -85 -21q-58 0 -99.5 43.5t-41.5 103.5q0 73 61 134t125 61q32 -1 49 -7q53 -20 74 -83l9 79h45zM456 361l-3 -41h-341l5 41h339zM441 599q0 50 -32 81t-76 31q-49 0 -95.5 -40t-46.5 -89q-1 -13 -1 -17
q0 -44 29.5 -79t71.5 -39q58 0 104 50t46 102z" />
    <glyph glyph-name="ordmasculine" unicode="&#xba;" horiz-adv-x="491" 
d="M487 580q-13 -75 -63 -123.5t-127 -48.5q-66 0 -109.5 42.5t-43.5 110.5q0 84 66 142q56 49 123 56q67 0 111.5 -43.5t44.5 -111.5v-12q-2 -8 -2 -12zM460 361l-4 -41h-339l5 41h338zM441 600q0 47 -32 82t-79 35q-51 0 -94.5 -48.5t-43.5 -107.5q-1 -8 -1 -12
q0 -45 32.5 -73.5t76.5 -28.5q58 0 99.5 48.5t41.5 104.5z" />
    <glyph glyph-name="ae" unicode="&#xe6;" horiz-adv-x="1158" 
d="M1112 616q0 -22 -13.5 -33.5t-34.5 -11.5q-19 0 -45 21q-4 3 -10 10q-62 0 -121 -5t-114 -17v54q74 19 148.5 31.5t133.5 12.5q27 0 41.5 -14.5t14.5 -47.5zM1049 300q0 -25 -12 -39q-17 -19 -55 -19q-3 0 -26 15q-7 5 -23 15q-137 0 -201.5 -3.5t-137.5 -12.5
q-54 -95 -54 -145q0 -41 47 -55t177 -14q47 0 127 21q26 7 71 21q21 1 34 1q29 0 39 -8t10 -24q0 -12 -6 -29q-2 -6 -7 -16l-324 -29q-136 0 -198.5 26.5t-62.5 84.5q0 28 10 62.5t34 89.5q-52 -7 -108 -22q-71 -19 -113 -43q-30 0 -42 7.5t-12 19.5q0 11 10 26q1 2 6 7
q64 22 116 35q74 19 168 31q41 75 74 141q67 130 63 152q-2 9 -21 9q-27 0 -135 -75q-116 -81 -233 -189q-139 -129 -218 -244q-2 -6 -3 -18t-1 -17v-13q0 -26 -9 -36q-14 -15 -58 -15q-24 0 -34 18.5t-10 48.5q0 11 1 21q0 2 3 19q174 233 380 398q211 169 336 169
q31 0 47 -25t16 -66q0 -45 -46 -158q-15 -37 -46 -105q89 10 181.5 17t162.5 7q43 0 63 -12t20 -30z" />
    <glyph glyph-name="oslash" unicode="&#xf8;" 
d="M888 378q0 -118 -164 -243q-171 -130 -376 -150l-11 -22q-14 -32 -18 -44t-6 -29q-5 -3 -13.5 -6.5t-16.5 -3.5t-14.5 3.5t-11.5 12.5q0 16 2 25.5t16 57.5l-33 -1q-105 0 -176.5 55.5t-71.5 137.5q0 69 70 154q75 90 196 157q137 75 296 97l19 -10q-9 15 -9 31
q0 22 15 39q20 20 39 20q16 0 29 -15q4 -5 10 -15q4 -18 4 -25q0 -11 -10 -46l-9 -28q45 0 63 -2q72 -8 117 -36q64 -40 64 -114zM774 351q0 66 -44 96q-38 26 -111 26l-245 -443q148 24 277 133q123 104 123 188zM555 528q-151 -31 -255 -101q-89 -60 -135 -139
q-39 -66 -39 -126q0 -61 32.5 -96t103.5 -42q6 -1 18 -1h18q1 0 64 115q73 135 121 228q67 131 72 162z" />
    <glyph glyph-name="questiondown" unicode="&#xbf;" horiz-adv-x="445" 
d="M383 598q0 -35 -26 -58.5t-58 -23.5q-30 0 -54 26t-24 56t26 54t58 24q30 0 54 -23t24 -55zM334 41q0 -21 -55.5 -41t-135.5 -20q-74 0 -121 32t-47 80q0 63 81.5 148t166.5 172q0 10 -28 21q-14 6 -14 12q0 18 7.5 21.5t17.5 3.5q16 -2 23 -2q70 0 70 -68
q0 -46 -66 -115q-16 -16 -124 -114q-68 -61 -68 -83q0 -12 26.5 -19t62.5 -7q27 0 53 5t50 18q6 21 12 43q9 13 35 13q13 0 35 -34.5t19 -65.5z" />
    <glyph glyph-name="exclamdown" unicode="&#xa1;" horiz-adv-x="318" 
d="M314 582q0 -32 -25 -54t-55 -22q-31 0 -54.5 24.5t-23.5 55.5t24.5 54.5t55.5 23.5q30 0 54 -25t24 -57zM222 438q-8 -77 -15 -121q-22 -133 -54 -193l24 -35l-45 -91q-31 -5 -40 -6t-21 -1q-24 0 -33.5 11.5t-17.5 43.5q25 43 81.5 189.5t73.5 212.5q3 1 5 1q10 2 13 2
q7 0 14.5 -2t14.5 -11z" />
    <glyph glyph-name="logicalnot" unicode="&#xac;" horiz-adv-x="1200" 
d="M1182 47q0 -36 -32 -48q-18 -7 -52 -7q-41 0 -61 22q-14 15 -14 33h62q0 -20 20 -20q19 0 19 16q0 6 -11 10l-59 16q-28 6 -28 39q0 25 23.5 38.5t49.5 13.5q32 0 55.5 -12t27.5 -36h-58q0 6 -7 9t-13 3q-15 0 -15 -11q0 -4 6 -10q7 -3 30 -9l24 -6q33 -9 33 -41z
M926 168h-61v97q0 6 -8 13t-17 7q-8 0 -15 -6t-7 -14v-97h-62v160h62v-20q20 23 58 23q19 0 34.5 -16.5t15.5 -42.5v-104zM743 348h-65v34h64zM1016 64h-114q0 -15 8.5 -23.5t21.5 -8.5q16 0 24 11h56q-10 -27 -36 -41q-19 -10 -40 -10q-44 0 -69.5 23.5t-25.5 59.5
q0 35 24 60t61 25q40 0 65 -25t25 -71zM742 168h-64v169h64v-169zM663 168h-60q-10 0 -20 10t-10 22v94h-23v34h23v34h61v-34h29v-34h-29v-74q0 -8 11 -8.5t18 -0.5v-43zM832 -4h-59v95q0 6 -5.5 11.5t-14.5 5.5q-7 0 -14.5 -7.5t-7.5 -19.5v-85h-59v92q0 8 -7 14t-14 6
t-14.5 -6.5t-7.5 -14.5v-91h-59v160h59v-20q20 24 43 24q18 0 28.5 -6t22.5 -19q8 8 14 12q19 13 40 13q19 0 35 -12t20 -32v-120zM1181 -53h-792v32h792v-32zM542 219q0 -36 -31 -48q-18 -7 -52 -7q-41 0 -61 22q-14 15 -14 33h62q0 -11 6 -16q4 -3 15 -3q18 0 18 15
q0 6 -10 10l-59 16q-29 8 -29 41q0 25 23.5 37t50.5 12q33 0 55 -11t26 -35h-57q0 6 -7 9t-12 3q-17 0 -17 -11q0 -3 2 -6t5 -5l55 -15q31 -9 31 -41zM559 -4h-67l-2 16q-8 -9 -25 -14.5t-32 -5.5q-51 0 -51 46q0 24 13 35.5t51 17.5l36 5q6 0 6 12t-18 12q-20 0 -20 -12
h-60q0 20 15 34q20 18 63 18q83 0 83 -48v-93q0 -19 8 -23zM374 168h-62v21q-11 -13 -25.5 -19t-29.5 -6q-18 0 -34 14q-19 17 -19 41v109h61v-91q0 -6 5.5 -13.5t14.5 -7.5q27 0 27 20v92h62v-160zM374 -49q0 -14 -12.5 -23.5t-31.5 -9.5h-43v28q9 0 17.5 1t8.5 10v194h61
v-200zM198 168h-66l-2 17h-4q-8 -10 -23.5 -15.5t-29.5 -5.5q-52 0 -52 46q0 24 13.5 35.5t50.5 18.5l36 4q2 3 3 4q3 5 3 8q0 14 -18 14q-20 0 -20 -14h-59q0 20 15 33q21 18 62 18q83 0 83 -46v-93q0 -18 8 -24zM959 96q-4 23 -27 23q-11 0 -20.5 -6.5t-9.5 -16.5h57z
M488 65l-15 -3q-18 -7 -20 -8q-10 -5 -10 -14q0 -13 17 -13q12 0 23 9q5 13 5 29zM127 238l-15 -4q-30 -4 -30 -22q2 -6 4 -8q5 -4 12 -4q15 0 24 9q5 12 5 29z" />
    <glyph glyph-name="florin" unicode="&#x192;" horiz-adv-x="463" 
d="M582 650q0 -29 -13 -36q-4 -2 -14 -2q-26 21 -45 30q-25 12 -48 12q-27 0 -65 -119q-12 -39 -45 -152l123 -1l-1 -43h-135q-41 -138 -76 -225q-50 -124 -102 -185q-64 -76 -140 -76q-31 0 -72.5 21.5t-41.5 36.5q0 29 13 36q4 2 14 2q28 -23 45 -31q26 -13 48 -11
q58 0 105 66q37 52 75 162q24 70 61 203h-121l6 46h127q29 103 50 160q30 80 59 118q36 46 79 46q31 0 72.5 -21.5t41.5 -36.5z" />
    <glyph glyph-name="guillemotleft" unicode="&#xab;" horiz-adv-x="498" 
d="M458 546l-5 -18q-52 -48 -87 -94q-40 -54 -46 -80q-5 -20 52.5 -50t57.5 -46q0 -39 -40 -49q-44 -4 -50 -5q-34 28 -51 44q-51 50 -51 80q0 34 96 134q32 33 96 93zM298 543q-71 -71 -89 -90q-42 -44 -61 -71q-22 -31 -22 -50q0 -33 66 -88q22 -18 66 -49l-2 -19
q-19 -19 -35.5 -31t-37.5 -21q-22 7 -32 12q-32 17 -32 45q-30 21 -45 35q-46 43 -46 78q0 31 62 102q46 52 116 117q61 56 63 56l29 -10v-16z" />
    <glyph glyph-name="guillemotright" unicode="&#xbb;" horiz-adv-x="498" 
d="M458 398q0 -31 -62 -102q-46 -52 -116 -117q-61 -56 -63 -56l-29 10v16q71 71 89 90q42 44 62.5 73t20.5 48q0 33 -66 88q-22 18 -66 49l2 19q19 19 35.5 31t37.5 21q22 -7 32 -12q32 -17 32 -45q30 -21 45 -35q46 -43 46 -78zM248 364q0 -34 -96 -134q-32 -33 -96 -93
l-28 9l5 18q52 48 87 94q40 54 46 80q5 20 -52.5 50t-57.5 46q0 39 40 49q44 4 50 5q34 -28 51 -44q51 -50 51 -80z" />
    <glyph glyph-name="ellipsis" unicode="&#x2026;" horiz-adv-x="494" 
d="M453 30q0 -15 -11.5 -26.5t-26.5 -11.5q-16 0 -27 11t-11 27q0 15 11 26t27 11q15 0 26.5 -10.5t11.5 -26.5zM287 30q0 -15 -10.5 -26.5t-27.5 -11.5q-15 0 -25.5 11.5t-10.5 26.5q0 16 10.5 26.5t25.5 10.5q17 0 27.5 -10.5t10.5 -26.5zM123 30q0 -15 -10.5 -26.5
t-26.5 -11.5t-26.5 11.5t-10.5 26.5q0 16 10.5 26.5t26.5 10.5t26.5 -10.5t10.5 -26.5z" />
    <glyph glyph-name="nonbreakingspace" unicode="&#xa0;" horiz-adv-x="259" 
 />
    <glyph glyph-name="Agrave" unicode="&#xc0;" horiz-adv-x="854" 
d="M757 284q0 -22 -32 -33q-10 -3 -33 -7q16 -59 23.5 -121t7.5 -127l-4 -4q-11 -9 -18 -10q-9 0 -22 10q-2 1 -6 6q0 67 -8.5 125.5t-28.5 118.5q-120 0 -254 -21.5t-296 -71.5q-15 -22 -21 -34q-21 -37 -19 -47t16 -19q4 -3 15 -7q0 -15 -5 -26t-9 -21q-36 -7 -78 -7
q-9 0 -20.5 1t-17.5 1q-7 16 -15 33.5t-8 34.5q0 8 2.5 26.5t73.5 101.5q80 93 191 185q136 112 281 192q13 -2 19.5 -9.5t6.5 -15.5q0 -7 -3 -13.5t-3 -7.5q-101 -62 -191 -138t-169 -169q92 31 217 56q80 16 187 30q76 10 80 10l-95 302q-14 3 -21 5q-22 8 -22 17
q0 26 22.5 43t48.5 17q13 0 31 -24l15 -24l80 -332q7 2 15.5 3t20.5 1q21 0 33.5 -6t12.5 -24zM567 768q12 -16 12 -28q0 -9 -7 -15q-2 -2 -8 -5q-72 19 -108 29q-110 31 -116 37q-15 9 -23 14q-25 15 -28 21q0 15 13 34q4 6 14 16l66 -18q8 -3 15.5 -10t15.5 -13z" />
    <glyph glyph-name="Atilde" unicode="&#xc3;" horiz-adv-x="854" 
d="M757 284q0 -22 -32 -33q-10 -3 -33 -7q16 -59 23.5 -121t7.5 -127l-4 -4q-11 -9 -18 -10q-9 0 -22 10q-2 1 -6 6q0 67 -8.5 125.5t-28.5 118.5q-120 0 -254 -21.5t-296 -71.5q-15 -22 -21 -34q-21 -37 -19 -47t16 -19q4 -3 15 -7q0 -15 -5 -26t-9 -21q-36 -7 -78 -7
q-9 0 -20.5 1t-17.5 1q-7 16 -15 33.5t-8 34.5q0 8 2.5 26.5t73.5 101.5q80 93 191 185q136 112 281 192q13 -2 19.5 -9.5t6.5 -15.5q0 -7 -3 -13.5t-3 -7.5q-101 -62 -191 -138t-169 -169q92 31 217 56q80 16 187 30q76 10 80 10l-95 302q-14 3 -21 5q-22 8 -22 17
q0 26 22.5 43t48.5 17q13 0 31 -24l15 -24l80 -332q7 2 15.5 3t20.5 1q21 0 33.5 -6t12.5 -24zM728 820q0 -17 -51.5 -51t-81.5 -34q-27 0 -98.5 25.5t-82.5 25.5q-10 0 -19 -5q-28 -16 -35 -17q-9 -2 -14 4t-3 15q18 34 51.5 50.5t63.5 16.5q26 0 106 -28q40 -14 67 -14
q14 0 43.5 22.5t36.5 22.5q10 0 13.5 -8.5t3.5 -24.5z" />
    <glyph glyph-name="Otilde" unicode="&#xd5;" 
d="M886 380q0 -133 -190 -264q-200 -138 -432 -138q-123 0 -197.5 51.5t-74.5 134.5q0 73 65 158q72 94 192 160q137 76 309 97q11 -7 15 -13t4 -13q0 -8 -5 -15q0 -1 -3 -2q-170 -36 -281 -111q-90 -61 -133 -141q-33 -62 -33 -122q0 -66 40 -101t122 -35q153 0 314 102
q172 109 172 234q0 45 -33 76q-43 40 -127 40q-3 0 -18.5 -2.5t-20.5 -2.5q-14 0 -22 5t-8 18q0 26 51 35q17 2 52 3q93 0 153 -26q89 -38 89 -128zM776 729q0 -17 -51.5 -51t-81.5 -34q-27 0 -98.5 25.5t-82.5 25.5q-10 0 -19 -5q-28 -16 -35 -17q-9 -2 -14 4t-3 15
q18 34 51.5 50.5t63.5 16.5q26 0 106 -28q40 -14 67 -14q14 0 43.5 22.5t36.5 22.5q10 0 13.5 -8.5t3.5 -24.5z" />
    <glyph glyph-name="OE" unicode="&#x152;" horiz-adv-x="1199" 
d="M1153 626q0 -30 -18 -43q-14 -10 -39 -10q-41 0 -58 23q-85 0 -187 -19q-30 -6 -108 -23q9 -29 9 -58q0 -26 -4 -55q-7 -41 -10 -62q135 12 270 12q9 -10 18.5 -20.5t9.5 -22.5q0 -5 -1 -8q-5 -18 -16 -27q-16 -13 -47 -13q-17 0 -43 15q-4 2 -11 7q-41 0 -74 -2
q-117 -7 -128 -7q-18 -49 -79 -140q-20 -30 -58 -83q2 -15 25.5 -27.5t67.5 -12.5h54q61 0 115.5 5t114.5 21q13 11 27 16t37 5q5 1 14 1q25 0 43 -10t18 -30q0 -54 -181 -70q-69 -6 -144 -6h-21.5t-14.5 1h-25q-79 0 -118 9q-70 16 -70 60q0 8 3 19q-108 -84 -266 -84
q-110 0 -175 61t-65 165q0 132 97 258q106 137 294 215l20 -37q34 11 71 23t64 12q59 0 102 -26t66 -74l6 10q7 10 15 14q209 57 366 57q14 -7 24 -16.5t10 -22.5zM654 443q0 88 -36.5 134.5t-101.5 46.5q-77 0 -126 -60q-16 -20 -34 -61q-7 -8 -10 -11q-12 -12 -18 -14
q-2 -1 -18 14l-8 8q9 42 38 81q-103 -67 -162 -180q-51 -98 -51 -189q0 -81 45.5 -125.5t124.5 -44.5q99 0 184 67q62 49 110 125l36 68q-26 0 -92 -15q-22 -5 -62 -15q-32 3 -26 40q1 2 17 16q5 4 16 14l165 27q9 38 9 74z" />
    <glyph glyph-name="oe" unicode="&#x153;" horiz-adv-x="1199" 
d="M1153 626q0 -30 -18 -43q-14 -10 -39 -10q-41 0 -58 23q-85 0 -187 -19q-30 -6 -108 -23q9 -29 9 -58q0 -26 -4 -55q-7 -41 -10 -62q135 12 270 12q9 -10 18.5 -20.5t9.5 -22.5q0 -5 -1 -8q-5 -18 -16 -27q-16 -13 -47 -13q-17 0 -43 15q-4 2 -11 7q-41 0 -74 -2
q-117 -7 -128 -7q-18 -49 -79 -140q-20 -30 -58 -83q2 -15 25.5 -27.5t67.5 -12.5h54q61 0 115.5 5t114.5 21q13 11 27 16t37 5q5 1 14 1q25 0 43 -10t18 -30q0 -54 -181 -70q-69 -6 -144 -6h-21.5t-14.5 1h-25q-79 0 -118 9q-70 16 -70 60q0 8 3 19q-108 -84 -266 -84
q-110 0 -175 61t-65 165q0 132 97 258q106 137 294 215l20 -37q34 11 71 23t64 12q59 0 102 -26t66 -74l6 10q7 10 15 14q209 57 366 57q14 -7 24 -16.5t10 -22.5zM654 443q0 88 -36.5 134.5t-101.5 46.5q-77 0 -126 -60q-16 -20 -34 -61q-7 -8 -10 -11q-12 -12 -18 -14
q-2 -1 -18 14l-8 8q9 42 38 81q-103 -67 -162 -180q-51 -98 -51 -189q0 -81 45.5 -125.5t124.5 -44.5q99 0 184 67q62 49 110 125l36 68q-26 0 -92 -15q-22 -5 -62 -15q-32 3 -26 40q1 2 17 16q5 4 16 14l165 27q9 38 9 74z" />
    <glyph glyph-name="endash" unicode="&#x2013;" horiz-adv-x="616" 
d="M539 405q4 -26 -38 -90q-69 6 -148 8.5t-173 2.5h-120q-15 -1 -24 -1q-19 0 -29.5 4t-10.5 17q0 7 6 19q16 28 30 40q25 21 66 21q17 2 43 -3q4 0 12 -3q-1 -1 -1 -5v-5q11 -5 32.5 -7t47.5 -2q36 0 98 4q139 9 157 9q28 0 38.5 -1.5t13.5 -7.5z" />
    <glyph glyph-name="emdash" unicode="&#x2014;" horiz-adv-x="616" 
d="M579 314h-541v95h541v-95z" />
    <glyph glyph-name="quotedblleft" unicode="&#x201c;" horiz-adv-x="444" 
d="M434 718q3 -16 -23 -88q-29 -79 -56 -112l-7 -55q-3 -4 -6 -6q-20 -16 -63 -16q-29 0 -29 18q0 53 28 93q32 41 56 74q21 38 36 62q29 47 42 47q9 0 14 -4t8 -13zM266 718q3 -16 -23 -88q-29 -79 -56 -112l-7 -55q-3 -4 -6 -6q-20 -16 -63 -16q-29 0 -29 18q0 53 28 93
q32 41 56 74q21 38 36 62q29 47 42 47q9 0 14 -4t8 -13z" />
    <glyph glyph-name="quotedblright" unicode="&#x201d;" horiz-adv-x="444" 
d="M434 717q0 -53 -28 -93q-32 -41 -56 -74q-21 -38 -36 -62q-29 -47 -42 -47q-9 0 -14 4t-8 13q-3 16 24.5 91.5t54.5 108.5l7 55q3 4 6 6q20 16 63 16q29 0 29 -18zM266 717q0 -53 -28 -93q-32 -41 -56 -74q-21 -38 -36 -62q-29 -47 -42 -47q-9 0 -14 4t-8 13
q-3 16 24.5 91.5t54.5 108.5l7 55q3 4 6 6q20 16 63 16q29 0 29 -18z" />
    <glyph glyph-name="quoteleft" unicode="&#x2018;" horiz-adv-x="229" 
d="M266 718q3 -16 -23 -88q-29 -79 -56 -112l-7 -55q-3 -4 -6 -6q-20 -16 -63 -16q-29 0 -29 18q0 53 28 93q32 41 56 74q21 38 36 62q29 47 42 47q9 0 14 -4t8 -13z" />
    <glyph glyph-name="quoteright" unicode="&#x2019;" horiz-adv-x="229" 
d="M266 717q0 -53 -28 -93q-32 -41 -56 -74q-21 -38 -36 -62q-29 -47 -42 -47q-9 0 -14 4t-8 13q-3 16 24.5 91.5t54.5 108.5l7 55q3 4 6 6q20 16 63 16q29 0 29 -18z" />
    <glyph glyph-name="divide" unicode="&#xf7;" horiz-adv-x="561" 
d="M364 391q0 -30 -23 -54t-55 -24q-7 1 -10 1q-31 3 -51 26t-20 55q0 33 24.5 54.5t59.5 21.5q30 0 52.5 -24.5t22.5 -55.5zM526 275q2 -16 2 -22q0 -64 -67 -64q-21 0 -53 9q-91 0 -181 -0.5t-162 -1.5q-16 10 -22.5 20.5t-6.5 24.5q0 17 11 36q3 6 11 15q41 -8 69 -11
q90 -12 167 -12q51 0 90.5 3.5t85.5 12.5zM364 73q0 -30 -23 -54t-55 -24q-7 1 -10 1q-31 3 -51 26t-20 55q0 33 24.5 54.5t59.5 21.5q30 0 52.5 -24.5t22.5 -55.5z" />
    <glyph glyph-name="ydieresis" unicode="&#xff;" horiz-adv-x="623" 
d="M687 723q-31 -45 -125 -235q-113 -228 -175 -334q-113 -192 -216 -288q-15 -6 -30 -7.5t-31 -1.5q-21 0 -34 4.5t-13 13.5q0 16 6 43q2 9 6 24q86 33 179 155q64 84 155 248q114 205 134 237q-86 -113 -169 -181t-131 -68q-64 0 -93.5 66.5t-29.5 194.5q0 102 11.5 134.5
t43.5 32.5q17 0 35.5 -12t20.5 -19q-2 -20 -3 -33q-9 -93 -9 -145q0 -68 10 -110.5t35 -42.5q33 0 135 100q108 106 224 255q27 9 40 9q15 0 21 -7t6 -18q0 -9 -3 -15zM591 794q0 -27 -20.5 -46.5t-49.5 -19.5t-48.5 20.5t-19.5 49.5t21 48t50 19t48 -21t19 -50zM387 795
q0 -28 -20 -47t-50 -19q-29 0 -48.5 20.5t-19.5 49.5t21 48t50 19t48 -21t19 -50z" />
    <glyph glyph-name="Ydieresis" unicode="&#x178;" horiz-adv-x="670" 
d="M715 604q0 -48 -76 -108q-67 -53 -158 -91q-89 -104 -178 -207q-94 -114 -131 -183q-22 -15 -27 -17q-17 -9 -31 -9q-9 0 -16.5 2.5t-16.5 10.5t-17 16q0 30 69 115q51 63 129 145q68 71 70 71q-22 -7 -48 -10t-50 -3q-67 0 -119.5 60.5t-52.5 135.5q0 44 9 71
q16 48 57 48q18 0 32.5 -6t14.5 -21v-11q0 -34 -15 -76q-5 -14 -15 -35q20 -48 70.5 -78t113.5 -30q6 0 14 1t12 1l29 5q74 68 133 118q63 54 141 112q19 -2 28 -4q29 -7 29 -23zM580 779q0 -26 -20 -44t-48 -18t-47 19t-19 47q0 27 20 45t49 18q27 0 46 -20t19 -47z
M382 780q0 -26 -20 -44t-47 -18q-28 0 -47 19t-19 47q0 27 20 45t48 18q27 0 46 -20t19 -47z" />
    <glyph glyph-name="fraction" unicode="&#x2215;" horiz-adv-x="130" 
d="M224 728q5 -55 -66 -239q-42 -110 -138 -324q-76 -172 -78 -183q-11 -8 -18 -8q-12 0 -20 17q-4 33 63 194q63 151 127 302q69 174 69 234q0 10 -1 14q6 7 11 11q10 8 19 8q8 0 16 -6t16 -20z" />
    <glyph glyph-name="currency" unicode="&#xa4;" horiz-adv-x="499" 
d="M473 514l-70 -66q25 -34 25 -76q0 -49 -26 -81l69 -71l-27 -25l-68 69q-37 -29 -81 -29t-80 30l-71 -68q-6 5 -11 9q-9 7 -14 14l70 71q-15 13 -23 34.5t-8 44.5q0 43 30 78l-69 65l25 29l70 -67q38 29 84 29q40 0 79 -29l68 67zM386 369q0 38 -26 65t-65 27t-66 -27
t-27 -65t27.5 -64.5t65.5 -26.5q39 0 65 26t26 65z" />
    <glyph glyph-name="guilsinglleft" unicode="&#x2039;" horiz-adv-x="338" 
d="M298 543q-90 -90 -125 -132q-47 -56 -47 -83q0 -26 66 -82q22 -18 66 -51l-2 -19q-20 -20 -38 -34q-23 -18 -35 -18q-19 0 -38 12q-26 16 -26 45q-30 25 -45 39q-46 45 -46 72q0 31 62 102q44 50 116 118q61 57 63 57q25 -2 29 -14q1 -4 0 -12z" />
    <glyph glyph-name="guilsinglright" unicode="&#x203a;" horiz-adv-x="338" 
d="M298 400q0 -31 -62 -102q-44 -50 -116 -118q-61 -57 -63 -57q-25 2 -27.5 10t-1.5 16q90 90 125 132q47 56 47 83q0 26 -66 82q-22 18 -66 51l2 19q20 20 38 34q23 18 35 18q19 0 38 -12q26 -16 26 -45q30 -25 45 -39q46 -45 46 -72z" />
    <glyph glyph-name="fi" unicode="&#xf001;" horiz-adv-x="699" 
d="M617 681q2 -8 2 -12q0 -19 -13.5 -34.5t-31.5 -15.5q-24 0 -68 12t-84 12q-51 0 -119 -13t-179 -49q-9 -6 -14 -8q-18 -9 -27 -9q-17 0 -31 13t-14 31q0 12 10 22l14 14q92 33 225 52q95 13 171.5 16.5t118.5 3.5q11 -6 17 -10q19 -13 23 -25zM680 397q-28 -75 -49 -176
q-14 -67 -26 -152l-8 -64q-11 -12 -18 -17q-22 -18 -39 -18q-14 0 -24 11q-13 14 -19 44q15 21 34 123q16 86 27 178l10 92q2 9 25.5 25.5t32.5 16.5q29 0 44 -31q5 -10 10 -32zM530 379q5 -24 -16.5 -41t-51.5 -23q-18 -3 -46 7q-9 3 -26 11q-39 0 -82.5 -7t-83.5 -14
l-45 -194q5 -16 9 -39t4 -42q0 -41 -40 -60q-13 -6 -41 -10q-34 0 -40 22q-1 5 -7 43q-3 22 36 147q25 80 32 109q-10 -6 -16 -8q-20 -8 -31 -4q-9 2 -18 5q-8 5 -8 24q0 26 44 47q14 6 45 15q8 45 12 67q13 68 16 74.5t18 20.5q20 19 37 16q16 -4 25.5 -11.5t9.5 -20.5
q0 -19 -11 -75q-3 -19 -12 -54q54 10 134 19t117 9q11 -1 15 -1q9 -1 13.5 -10t7.5 -22z" />
    <glyph glyph-name="fl" unicode="&#xf002;" horiz-adv-x="894" 
d="M871 42q3 -6 3 -14q0 -19 -24 -32.5t-82 -13.5q-150 0 -201 46q-33 30 -33 98q0 67 20 187q28 166 72 268q59 137 139 137q10 -4 15 -7q16 -11 16 -30q0 -40 -25 -76q-8 -12 -26 -28q-19 -58 -37 -115q-41 -129 -69 -221q-37 -124 -36 -136q0 -47 70 -47h14q6 0 14.5 1
t12.5 1q35 10 54 14q59 15 72 13q16 -2 22 -11.5t9 -33.5zM617 681q2 -8 2 -12q0 -19 -13.5 -34.5t-31.5 -15.5q-24 0 -68 12t-84 12q-51 0 -119 -13t-179 -49q-9 -6 -14 -8q-18 -9 -27 -9q-17 0 -31 13t-14 31q0 12 10 22l14 14q92 33 225 52q95 13 171.5 16.5t118.5 3.5
q11 -6 17 -10q19 -13 23 -25zM530 379q5 -24 -16.5 -41t-51.5 -23q-18 -3 -46 7q-9 3 -26 11q-39 0 -82.5 -7t-83.5 -14l-45 -194q5 -16 9 -39t4 -42q0 -41 -40 -60q-13 -6 -41 -10q-34 0 -40 22q-1 5 -7 43q-3 22 36 147q25 80 32 109q-10 -6 -16 -8q-20 -8 -31 -4
q-9 2 -18 5q-8 5 -8 24q0 26 44 47q14 6 45 15q8 45 12 67q13 68 16 74.5t18 20.5q20 19 37 16q16 -4 25.5 -11.5t9.5 -20.5q0 -19 -11 -75q-3 -19 -12 -54q54 10 134 19t117 9q11 -1 15 -1q9 -1 13.5 -10t7.5 -22z" />
    <glyph glyph-name="daggerdbl" unicode="&#x2021;" horiz-adv-x="661" 
d="M676 540q7 -22 -22 -47q-9 -8 -31 -21q-33 4 -54 5q-71 6 -105 6q-46 0 -60 -7q-2 -4 -22 -58l-9 -24q18 1 41.5 1.5t54.5 0.5q79 0 110 -4.5t37 -13.5q7 -22 -22 -47q-9 -8 -31 -21q-33 4 -54 5q-71 6 -105 6q-46 0 -60 -7q-15 -29 -65 -161q-16 -43 -47 -126
q21 -14 25 -25.5t4 -36.5q0 -32 -23 -51t-58 -19q-17 0 -36 15t-20 21q-3 10 19 73q18 52 53 145q16 43 63 162q-50 0 -149 -19q-33 -6 -89 -19q-2 4 -3.5 12.5t-1.5 15.5q0 40 42 69q7 5 20 11l215 15l31 77q-48 0 -150 -19q-34 -6 -93 -19q-2 4 -3.5 12.5t-1.5 15.5
q0 40 42 69q7 5 20 11q31 5 92.5 7.5t120.5 4.5l49 197q23 12 51.5 21t53.5 9q5 -29 -33 -130q-12 -33 -39 -96q18 1 41.5 1.5t54.5 0.5q79 0 110 -4.5t37 -13.5z" />
    <glyph glyph-name="periodcentered" unicode="&#xb7;" horiz-adv-x="265" 
d="M171 254q0 -33 -22.5 -56.5t-55.5 -23.5t-57.5 22.5t-24.5 55.5t23 57t56 24t57 -23t24 -56z" />
    <glyph glyph-name="periodcentered" unicode="&#x2219;" horiz-adv-x="265" 
d="M171 254q0 -33 -22.5 -56.5t-55.5 -23.5t-57.5 22.5t-24.5 55.5t23 57t56 24t57 -23t24 -56z" />
    <glyph glyph-name="quotesinglbase" unicode="&#x201a;" horiz-adv-x="207" 
d="M65 71q-41 -59 -82 -119t-53 -90q-5 -4 -8 -5q-9 -5 -16 -5q-18 0 -18 29q0 36 39 115q13 26 40 73q3 18 4 29t2 25q12 13 32 18t42 5q15 -1 17 -1q4 -4 6 -11.5t2 -16.5q0 -13 -2.5 -24t-4.5 -22z" />
    <glyph glyph-name="quotedblbase" unicode="&#x201e;" horiz-adv-x="250" 
d="M233 75q-41 -59 -82 -119t-53 -90q-5 -4 -8 -5q-9 -5 -16 -5q-18 0 -18 29q0 36 39 115q13 26 40 73q3 18 4 29t2 25q12 13 32 18t42 5q15 -1 17 -1q4 -4 6 -11.5t2 -16.5q0 -13 -2.5 -24t-4.5 -22zM65 71q-41 -59 -82 -119t-53 -90q-5 -4 -8 -5q-9 -5 -16 -5
q-18 0 -18 29q0 36 39 115q13 26 40 73q3 18 4 29t2 25q12 13 32 18t42 5q15 -1 17 -1q4 -4 6 -11.5t2 -16.5q0 -13 -2.5 -24t-4.5 -22z" />
    <glyph glyph-name="perthousand" unicode="&#x2030;" horiz-adv-x="1317" 
d="M1296 231q0 -95 -59 -174q-67 -90 -169 -90q-55 0 -92.5 34.5t-37.5 90.5q0 74 49 149q54 82 125 93l10 -13q12 14 39.5 23.5t50.5 9.5q39 0 61.5 -32.5t22.5 -90.5zM912 231q0 -95 -59 -174q-67 -90 -169 -90q-55 0 -92.5 34.5t-37.5 90.5q0 74 49 149q54 82 125 93
l10 -13q12 14 39.5 23.5t50.5 9.5q39 0 61.5 -32.5t22.5 -90.5zM765 637q-62 -59 -175 -211q-79 -106 -178 -251l-82 -122q-5 -25 -9 -37q-14 -38 -36 -38q-19 0 -38 27q-6 9 -15 28q70 114 212 302q148 196 213 257q-42 -13 -77 -13q-10 -1 -22.5 -1.5t-18.5 -0.5
q-55 0 -101 17q2 -9 0 -18t-3 -18q0 -102 -65 -161q-54 -49 -124 -49t-105 29q-42 35 -42 115q0 46 25 99t57 79q20 -1 30 -3q31 -8 31 -31q0 -7 -3 -16q-40 -23 -58 -82q-6 -20 -11 -56q0 -45 20.5 -69.5t55.5 -24.5q49 0 88 62q35 56 35 114l-7 61q-94 43 -87 71
q6 10 11 14q16 15 35 15q38 0 68 -28q24 -22 32 -46q27 -15 61.5 -22.5t75.5 -7.5q34 0 119 20q28 6 79 20zM1226 224q0 43 -10 60t-34 13q-14 -2 -48 -27q-11 -8 -32 -25l-7 9q-37 -35 -62 -84.5t-25 -85.5q0 -33 16.5 -54t49.5 -21q58 0 105 69t47 146zM842 224
q0 43 -10 60t-34 13q-14 -2 -48 -27q-11 -8 -32 -25l-7 9q-37 -35 -62 -84.5t-25 -85.5q0 -33 16.5 -54t49.5 -21q58 0 105 69t47 146z" />
    <glyph glyph-name="Acircumflex" unicode="&#xc2;" horiz-adv-x="873" 
d="M757 284q0 -22 -32 -33q-10 -3 -33 -7q16 -59 23.5 -121t7.5 -127l-4 -4q-11 -9 -18 -10q-9 0 -22 10q-2 1 -6 6q0 67 -8.5 125.5t-28.5 118.5q-120 0 -254 -21.5t-296 -71.5q-15 -22 -21 -34q-21 -37 -19 -47t16 -19q4 -3 15 -7q0 -15 -5 -26t-9 -21q-36 -7 -78 -7
q-9 0 -20.5 1t-17.5 1q-7 16 -15 33.5t-8 34.5q0 8 2.5 26.5t73.5 101.5q80 93 191 185q136 112 281 192q13 -2 19.5 -9.5t6.5 -15.5q0 -7 -3 -13.5t-3 -7.5q-101 -62 -191 -138t-169 -169q92 31 217 56q80 16 187 30q76 10 80 10l-95 302q-14 3 -21 5q-22 8 -22 17
q0 26 22.5 43t48.5 17q13 0 31 -24l15 -24l80 -332q7 2 15.5 3t20.5 1q21 0 33.5 -6t12.5 -24zM714 790q0 -22 -4 -32q-10 -23 -38 -23q-21 0 -73.5 30.5t-68.5 30.5q-17 0 -63 -20l-92 -40q-11 2 -23 9t-12 14q0 17 85 63.5t117 46.5q30 0 75 -20.5t97 -58.5z" />
    <glyph glyph-name="Ecircumflex" unicode="&#xca;" horiz-adv-x="676" 
d="M658 687q0 -22 -18 -32q-6 -3 -19 -6q-27 0 -75 14q-24 7 -43 7q-50 0 -116 -13q-22 -4 -58 -14q-27 -50 -74 -126q-51 -81 -64 -106q-31 -57 -57 -135q248 42 451 42l26 -23q-4 -18 -13 -25q-83 0 -228 -26t-258 -61q-3 -20 -3 -38q0 -8 2 -22q8 -57 46.5 -88t100.5 -31
q35 0 73 19q12 6 32 20q9 24 16 35q22 35 50 35q57 0 57 -38q0 -48 -97 -95q-91 -44 -167 -44q-97 0 -154.5 50.5t-57.5 129.5q0 63 55 199q38 95 102 219q53 104 55 104q-11 1 -18 1q-42 5 -47 24q-4 19 14 37.5t41 18.5q8 0 33 -4.5t61 -4.5l222 16q39 0 85 -10
q15 -3 40 -11q2 -4 2 -6q3 -9 3 -12zM638 809q0 -22 -4 -32q-10 -23 -38 -23q-21 0 -73.5 30.5t-68.5 30.5q-17 0 -63 -20l-92 -40q-11 2 -23 9t-12 14q0 17 85 63.5t117 46.5q30 0 75 -20.5t97 -58.5z" />
    <glyph glyph-name="Aacute" unicode="&#xc1;" horiz-adv-x="854" 
d="M757 284q0 -22 -32 -33q-10 -3 -33 -7q16 -59 23.5 -121t7.5 -127l-4 -4q-11 -9 -18 -10q-9 0 -22 10q-2 1 -6 6q0 67 -8.5 125.5t-28.5 118.5q-120 0 -254 -21.5t-296 -71.5q-15 -22 -21 -34q-21 -37 -19 -47t16 -19q4 -3 15 -7q0 -15 -5 -26t-9 -21q-36 -7 -78 -7
q-9 0 -20.5 1t-17.5 1q-7 16 -15 33.5t-8 34.5q0 8 2.5 26.5t73.5 101.5q80 93 191 185q136 112 281 192q13 -2 19.5 -9.5t6.5 -15.5q0 -7 -3 -13.5t-3 -7.5q-101 -62 -191 -138t-169 -169q92 31 217 56q80 16 187 30q76 10 80 10l-95 302q-14 3 -21 5q-22 8 -22 17
q0 26 22.5 43t48.5 17q13 0 31 -24l15 -24l80 -332q7 2 15.5 3t20.5 1q21 0 33.5 -6t12.5 -24zM763 818q0 -8 -5 -16q-2 -2 -11 -13l-65 -19q-7 -4 -15 2q-5 6 -6 7l-170 -40q-9 1 -13 2q-14 5 -14 16q0 5 1 15q0 3 1 9q66 27 130 47q84 26 126 26q19 0 30 -7.5t11 -28.5z
" />
    <glyph glyph-name="Edieresis" unicode="&#xcb;" horiz-adv-x="676" 
d="M658 687q0 -22 -18 -32q-6 -3 -19 -6q-27 0 -75 14q-24 7 -43 7q-50 0 -116 -13q-22 -4 -58 -14q-27 -50 -74 -126q-51 -81 -64 -106q-31 -57 -57 -135q248 42 451 42l26 -23q-4 -18 -13 -25q-83 0 -228 -26t-258 -61q-3 -20 -3 -38q0 -8 2 -22q8 -57 46.5 -88t100.5 -31
q35 0 73 19q12 6 32 20q9 24 16 35q22 35 50 35q57 0 57 -38q0 -48 -97 -95q-91 -44 -167 -44q-97 0 -154.5 50.5t-57.5 129.5q0 63 55 199q38 95 102 219q53 104 55 104q-11 1 -18 1q-42 5 -47 24q-4 19 14 37.5t41 18.5q8 0 33 -4.5t61 -4.5l222 16q39 0 85 -10
q15 -3 40 -11q2 -4 2 -6q3 -9 3 -12zM622 815q0 -27 -20.5 -46.5t-49.5 -19.5t-48.5 20.5t-19.5 49.5t21 48t50 19t48 -21t19 -50zM418 816q0 -28 -20 -47t-50 -19q-29 0 -48.5 20.5t-19.5 49.5t21 48t50 19t48 -21t19 -50z" />
    <glyph glyph-name="Egrave" unicode="&#xc8;" horiz-adv-x="676" 
d="M658 687q0 -22 -18 -32q-6 -3 -19 -6q-27 0 -75 14q-24 7 -43 7q-50 0 -116 -13q-22 -4 -58 -14q-27 -50 -74 -126q-51 -81 -64 -106q-31 -57 -57 -135q248 42 451 42l26 -23q-4 -18 -13 -25q-83 0 -228 -26t-258 -61q-3 -20 -3 -38q0 -8 2 -22q8 -57 46.5 -88t100.5 -31
q35 0 73 19q12 6 32 20q9 24 16 35q22 35 50 35q57 0 57 -38q0 -48 -97 -95q-91 -44 -167 -44q-97 0 -154.5 50.5t-57.5 129.5q0 63 55 199q38 95 102 219q53 104 55 104q-11 1 -18 1q-42 5 -47 24q-4 19 14 37.5t41 18.5q8 0 33 -4.5t61 -4.5l222 16q39 0 85 -10
q15 -3 40 -11q2 -4 2 -6q3 -9 3 -12zM525 801q12 -16 12 -28q0 -9 -7 -15q-2 -2 -8 -5q-72 19 -108 29q-110 31 -116 37q-15 9 -23 14q-25 15 -28 21q0 15 13 34q4 6 14 16l66 -18q8 -3 15.5 -10t15.5 -13z" />
    <glyph glyph-name="Iacute" unicode="&#xcd;" horiz-adv-x="257" 
d="M272 718l-17 -106q-33 -39 -77 -194q-30 -107 -65 -271l-28 -138q-16 -19 -34 -19t-36 17q-6 5 -15 18q1 0 44 170q54 210 82 326q44 180 44 199q16 5 24 7q28 8 33 8q15 0 26 -3.5t19 -13.5zM448 840q0 -8 -5 -16q-2 -2 -11 -13l-65 -19q-7 -4 -15 2q-5 6 -6 7l-170 -40
q-9 1 -13 2q-14 5 -14 16q0 5 1 15q0 3 1 9q66 27 130 47q84 26 126 26q19 0 30 -7.5t11 -28.5z" />
    <glyph glyph-name="Icircumflex" unicode="&#xce;" horiz-adv-x="257" 
d="M274 718l-17 -106q-33 -39 -77 -194q-30 -107 -65 -271l-28 -138q-16 -19 -34 -19t-36 17q-6 5 -15 18q1 0 44 170q54 210 82 326q44 180 44 199q16 5 24 7q28 8 33 8q15 0 26 -3.5t19 -13.5zM421 798q0 -22 -4 -32q-10 -23 -38 -23q-21 0 -73.5 30.5t-68.5 30.5
q-17 0 -63 -20l-92 -40q-11 2 -23 9t-12 14q0 17 85 63.5t117 46.5q30 0 75 -20.5t97 -58.5z" />
    <glyph glyph-name="Idieresis" unicode="&#xcf;" horiz-adv-x="257" 
d="M278 718l-17 -106q-33 -39 -77 -194q-30 -107 -65 -271l-28 -138q-16 -19 -34 -19t-36 17q-6 5 -15 18q1 0 44 170q54 210 82 326q44 180 44 199q16 5 24 7q28 8 33 8q15 0 26 -3.5t19 -13.5zM408 800q0 -27 -20.5 -46.5t-49.5 -19.5t-48.5 20.5t-19.5 49.5t21 48t50 19
t48 -21t19 -50zM204 801q0 -28 -20 -47t-50 -19q-29 0 -48.5 20.5t-19.5 49.5t21 48t50 19t48 -21t19 -50z" />
    <glyph glyph-name="Igrave" unicode="&#xcc;" horiz-adv-x="257" 
d="M272 718l-17 -106q-33 -39 -77 -194q-30 -107 -65 -271l-28 -138q-16 -19 -34 -19t-36 17q-6 5 -15 18q1 0 44 170q54 210 82 326q44 180 44 199q16 5 24 7q28 8 33 8q15 0 26 -3.5t19 -13.5zM296 817q12 -16 12 -28q0 -9 -7 -15q-2 -2 -8 -5q-72 19 -108 29
q-110 31 -116 37q-15 9 -23 14q-25 15 -28 21q0 15 13 34q4 6 14 16l66 -18q8 -3 15.5 -10t15.5 -13z" />
    <glyph glyph-name="Oacute" unicode="&#xd3;" 
d="M886 380q0 -133 -190 -264q-200 -138 -432 -138q-123 0 -197.5 51.5t-74.5 134.5q0 73 65 158q72 94 192 160q137 76 309 97q11 -7 15 -13t4 -13q0 -8 -5 -15q0 -1 -3 -2q-170 -36 -281 -111q-90 -61 -133 -141q-33 -62 -33 -122q0 -66 40 -101t122 -35q153 0 314 102
q172 109 172 234q0 45 -33 76q-43 40 -127 40q-3 0 -18.5 -2.5t-20.5 -2.5q-14 0 -22 5t-8 18q0 26 51 35q17 2 52 3q93 0 153 -26q89 -38 89 -128zM812 732q0 -8 -5 -16q-2 -2 -11 -13l-65 -19q-7 -4 -15 2q-5 6 -6 7l-170 -40q-9 1 -13 2q-14 5 -14 16q0 5 1 15q0 3 1 9
q66 27 130 47q84 26 126 26q19 0 30 -7.5t11 -28.5z" />
    <glyph glyph-name="Ocircumflex" unicode="&#xd4;" 
d="M886 380q0 -133 -190 -264q-200 -138 -432 -138q-123 0 -197.5 51.5t-74.5 134.5q0 73 65 158q72 94 192 160q137 76 309 97q11 -7 15 -13t4 -13q0 -8 -5 -15q0 -1 -3 -2q-170 -36 -281 -111q-90 -61 -133 -141q-33 -62 -33 -122q0 -66 40 -101t122 -35q153 0 314 102
q172 109 172 234q0 45 -33 76q-43 40 -127 40q-3 0 -18.5 -2.5t-20.5 -2.5q-14 0 -22 5t-8 18q0 26 51 35q17 2 52 3q93 0 153 -26q89 -38 89 -128zM774 684q0 -22 -4 -32q-10 -23 -38 -23q-21 0 -73.5 30.5t-68.5 30.5q-17 0 -63 -20l-92 -40q-11 2 -23 9t-12 14
q0 17 85 63.5t117 46.5q30 0 75 -20.5t97 -58.5z" />
    <glyph glyph-name="Ograve" unicode="&#xd2;" 
d="M886 380q0 -133 -190 -264q-200 -138 -432 -138q-123 0 -197.5 51.5t-74.5 134.5q0 73 65 158q72 94 192 160q137 76 309 97q11 -7 15 -13t4 -13q0 -8 -5 -15q0 -1 -3 -2q-170 -36 -281 -111q-90 -61 -133 -141q-33 -62 -33 -122q0 -66 40 -101t122 -35q153 0 314 102
q172 109 172 234q0 45 -33 76q-43 40 -127 40q-3 0 -18.5 -2.5t-20.5 -2.5q-14 0 -22 5t-8 18q0 26 51 35q17 2 52 3q93 0 153 -26q89 -38 89 -128zM606 693q12 -16 12 -28q0 -9 -7 -15q-2 -2 -8 -5q-72 19 -108 29q-110 31 -116 37q-15 9 -23 14q-25 15 -28 21q0 15 13 34
q4 6 14 16l66 -18q8 -3 15.5 -10t15.5 -13z" />
    <glyph glyph-name="Uacute" unicode="&#xda;" horiz-adv-x="753" 
d="M745 577q-48 -273 -185 -435q-129 -152 -286 -152q-98 0 -168 58q-76 63 -76 166q1 24 3 49q8 60 33 129q33 93 95 183q18 5 27 7q32 8 40 8q21 0 29.5 -8.5t8.5 -22.5q0 -10 -2.5 -17t-5.5 -13q-60 -95 -94 -181.5t-34 -147.5q0 -78 39 -117t111 -39q16 -2 23 -2
q121 0 232 163q117 172 117 385l18 22q8 6 18 6q38 0 51 -20q4 -6 6 -21zM715 753q0 -8 -5 -16q-2 -2 -11 -13l-65 -19q-7 -4 -15 2q-5 6 -6 7l-170 -40q-9 1 -13 2q-14 5 -14 16q0 5 1 15q0 3 1 9q66 27 130 47q84 26 126 26q19 0 30 -7.5t11 -28.5z" />
    <glyph glyph-name="Ucircumflex" unicode="&#xdb;" horiz-adv-x="753" 
d="M745 577q-48 -273 -185 -435q-129 -152 -286 -152q-98 0 -168 58q-76 63 -76 166q1 24 3 49q8 60 33 129q33 93 95 183q18 5 27 7q32 8 40 8q21 0 29.5 -8.5t8.5 -22.5q0 -10 -2.5 -17t-5.5 -13q-60 -95 -94 -181.5t-34 -147.5q0 -78 39 -117t111 -39q16 -2 23 -2
q121 0 232 163q117 172 117 385l18 22q8 6 18 6q38 0 51 -20q4 -6 6 -21zM684 723q0 -22 -4 -32q-10 -23 -38 -23q-21 0 -73.5 30.5t-68.5 30.5q-17 0 -63 -20l-92 -40q-11 2 -23 9t-12 14q0 17 85 63.5t117 46.5q30 0 75 -20.5t97 -58.5z" />
    <glyph glyph-name="Ugrave" unicode="&#xd9;" horiz-adv-x="753" 
d="M739 577q-48 -273 -185 -435q-129 -152 -286 -152q-98 0 -168 58q-76 63 -76 166q1 24 3 49q8 60 33 129q33 93 95 183q18 5 27 7q32 8 40 8q21 0 29.5 -8.5t8.5 -22.5q0 -10 -2.5 -17t-5.5 -13q-60 -95 -94 -181.5t-34 -147.5q0 -78 39 -117t111 -39q16 -2 23 -2
q121 0 232 163q117 172 117 385l18 22q8 6 18 6q38 0 51 -20q4 -6 6 -21zM540 716q12 -16 12 -28q0 -9 -7 -15q-2 -2 -8 -5q-72 19 -108 29q-110 31 -116 37q-15 9 -23 14q-25 15 -28 21q0 15 13 34q4 6 14 16l66 -18q8 -3 15.5 -10t15.5 -13z" />
    <glyph glyph-name="dotlessi" unicode="&#x131;" horiz-adv-x="217" 
d="M179 421q-43 -118 -62 -218q-15 -80 -15 -152q3 -14 -18.5 -38.5t-44.5 -24.5q-15 0 -26 14t-17 47q16 20 43.5 170t27.5 223q20 22 36.5 31.5t29.5 9.5q22 0 36 -30q10 -31 10 -32z" />
    <glyph glyph-name="circumflex" unicode="&#x2c6;" horiz-adv-x="373" 
d="M448 794q0 -22 -4 -32q-10 -23 -38 -23q-21 0 -73.5 30.5t-68.5 30.5q-17 0 -63 -20l-92 -40q-11 2 -23 9t-12 14q0 17 85 63.5t117 46.5q30 0 75 -20.5t97 -58.5z" />
    <glyph glyph-name="tilde" unicode="&#x2dc;" horiz-adv-x="386" 
d="M460 826q0 -17 -51.5 -51t-81.5 -34q-27 0 -98.5 25.5t-82.5 25.5q-10 0 -19 -5q-28 -16 -35 -17q-9 -2 -14 4t-3 15q18 34 51.5 50.5t63.5 16.5q26 0 106 -28q40 -14 67 -14q14 0 43.5 22.5t36.5 22.5q10 0 13.5 -8.5t3.5 -24.5z" />
    <glyph glyph-name="macron" unicode="&#xaf;" horiz-adv-x="390" 
d="M462 831q5 -39 -28 -89q-46 6 -93 8t-104 2q-37 0 -75 -0.5t-78 -0.5q-11 13 -11 28q0 20 18 42q15 18 34 29l61 -3q-4 -13 7 -18t35 -5q25 0 94 8t99 8q17 0 25.5 -1.5t15.5 -7.5z" />
    <glyph glyph-name="breve" unicode="&#x2d8;" horiz-adv-x="377" 
d="M453 841q-54 -42 -107 -83q-31 -17 -81 -17q-42 0 -88 16q-57 20 -101 59q-4 20 9.5 37t33.5 21q106 -60 159 -60q21 0 77 33q19 11 53 34z" />
    <glyph glyph-name="ring" unicode="&#x2da;" horiz-adv-x="300" 
d="M263 835q0 -39 -29 -66q-33 -31 -90 -31q-41 0 -74.5 23t-33.5 56q0 21 23 49t47 28l7 -3q24 28 59 28q38 0 64.5 -25.5t26.5 -58.5zM198 837q0 15 -11.5 26.5t-27.5 11.5q-18 3 -33 -5l4 -14q-12 -4 -20 -15t-6 -20q0 -13 9 -22t29 -13q19 0 37.5 14.5t18.5 36.5z" />
    <glyph glyph-name="cedilla" unicode="&#xb8;" horiz-adv-x="350" 
d="M350 133l-4 -22q-5 -19 -8 -22q-1 -2 -24 -21l-298 -262l-16 41q57 58 113 114q60 59 114 110l55 85z" />
    <glyph glyph-name="caron" unicode="&#x2c7;" horiz-adv-x="374" 
d="M448 838q-78 -52 -124 -74.5t-78 -22.5q-23 0 -61 14q-56 21 -110 63q3 32 10 42q11 15 32 13q9 0 70 -31t71 -31q21 0 90 30q23 10 66 31l34 -17v-17z" />
    <glyph glyph-name="Lslash" unicode="&#x141;" horiz-adv-x="522" 
d="M417 42q0 -18 -30 -38q-5 -3 -14 -8q-36 6 -84 9t-85 3q-90 0 -171 -9q-14 -1 -35 -5q-15 3 -21 8q-10 8 -14 26l-1 20q48 102 93 231l-131 -76l-49 83l223 129q41 132 72 288q19 12 29 18q32 19 42 19q30 0 43 -24q8 -15 8 -39v-10q-1 -1 -7 -7.5t-30.5 -59
t-53.5 -125.5l143 82l48 -82l-245 -142q-24 -64 -67 -187q-11 -33 -29 -82q68 16 120 23q69 10 138 10q12 0 50 -7q13 -2 38 -8q11 -12 15.5 -19.5t4.5 -20.5z" />
    <glyph glyph-name="lslash" unicode="&#x142;" horiz-adv-x="477" 
d="M386 478l-209 -122q-33 -102 -52 -170q-23 -81 -23 -93q0 -47 70 -47h14q6 0 14.5 1t12.5 1q35 10 54 14q59 15 72 13q16 -2 22 -11.5t9 -33.5q3 -6 3 -14q0 -19 -24 -32.5t-82 -13.5q-150 0 -201 46q-33 30 -33 98q0 43 19 170l-134 -78l-49 83l207 119q31 132 71 205
q51 93 117 93q10 -4 15 -7q16 -11 16 -30q0 -40 -25 -76q-8 -12 -26 -28l-24 -73l118 68z" />
    <glyph glyph-name="Scaron" unicode="&#x160;" horiz-adv-x="755" 
d="M703 558q-2 -10 -5 -16q-3 -5 -15 -17l-124 9q-10 28 -47 37q-12 2 -36 3q-87 0 -165 -31q-97 -39 -97 -103q0 -54 110 -111q102 -48 205 -96q111 -59 111 -117q0 -67 -93 -109q-108 -49 -313 -49q-115 0 -212 18q-134 25 -134 72q0 28 23 46q7 6 23 13q114 -34 207 -45
t205 -11q169 0 212 16q18 7 18 31q0 33 -121 77q-177 65 -225 91q-122 67 -122 154t90 147q100 66 275 66q86 0 134.5 -8t91.5 -30q2 -8 3.5 -19.5t0.5 -17.5zM666 830q-78 -52 -124 -74.5t-78 -22.5q-23 0 -61 14q-56 21 -110 63q3 32 10 42q11 15 32 13q9 0 70 -31t71 -31
q21 0 90 30q23 10 66 31l34 -17v-17z" />
    <glyph glyph-name="scaron" unicode="&#x161;" horiz-adv-x="625" 
d="M670 710q0 -35 -23 -54t-55 -19q-4 0 -41 23q-12 7 -38 24q-42 0 -139 -52q-104 -56 -174 -118q-86 -76 -86 -130q0 -57 95 -103q89 -38 178 -75q96 -47 96 -104q0 -54 -47 -88q-57 -41 -175 -41q-7 0 -26.5 -1t-27.5 -1q-58 0 -92 11q-49 16 -49 54q0 21 20.5 39.5
t47.5 18.5q18 0 43 -18q8 -6 22 -19l74 -7q26 -3 48 -3q99 0 99 52q0 30 -98 72q-156 66 -182 81q-98 56 -98 120q0 117 170 259q175 146 337 146q48 0 84.5 -17.5t36.5 -49.5zM688 895q-78 -52 -124 -74.5t-78 -22.5q-23 0 -61 14q-56 21 -110 63q3 32 10 42q11 15 32 13
q9 0 70 -31t71 -31q21 0 90 30q23 10 66 31l34 -17v-17z" />
    <glyph glyph-name="Zcaron" unicode="&#x17d;" horiz-adv-x="676" 
d="M706 546q0 -103 -177 -207q-81 -48 -331 -154q-178 -76 -178 -109q0 -24 35.5 -29.5t110.5 -5.5q116 0 160 9t66 28q8 2 18.5 3t23.5 1q22 0 34 -5t12 -19q0 -13 -8 -31q-2 -6 -9 -17l-263 -26q-140 0 -208 29t-68 79q0 26 178 117q272 139 331 174q179 107 179 171
q0 37 -45 56t-122 19q-121 0 -189 -34q-22 -11 -44 -34q-6 -1 -16 -2t-16 -1q-29 0 -46 8q-24 11 -24 38q0 43 58 65q66 25 236 25q128 0 206 -31q96 -38 96 -117zM620 839q-78 -52 -124 -74.5t-78 -22.5q-23 0 -61 14q-56 21 -110 63q3 32 10 42q11 15 32 13q9 0 70 -31
t71 -31q21 0 90 30q23 10 66 31l34 -17v-17z" />
    <glyph glyph-name="zcaron" unicode="&#x17e;" horiz-adv-x="812" 
d="M742 365l-343 3q-5 0 -84 -40q-99 -50 -158 -92q-85 -60 -85 -101t47.5 -58t135.5 -17q52 0 118 8.5t161 25.5q18 14 28 20q33 20 56 20q8 0 12 -1q35 -9 47 -20.5t12 -28.5q0 -47 -85.5 -73t-245.5 -26h-18h-7q-151 0 -240.5 38t-89.5 103q-5 55 54 106q51 44 227 143
q-2 0 -80 -5q-31 -2 -56 -2q-39 0 -45 7q-6 3 -8 5q-5 5 -5 11q0 13 15.5 29.5t37.5 32.5l283 -20q69 35 103 56q104 64 104 100q0 41 -26 63q-40 33 -143 33q-67 0 -111 -12l-82 -28q-26 0 -45 13.5t-19 37.5q0 47 67 66q45 13 120 13q19 0 32 -0.5t23 -1.5q158 0 221 -57
q41 -37 41 -98q0 -70 -91 -138q-30 -22 -92 -54l195 -5q23 -8 32.5 -15.5t9.5 -15.5q0 -9 -11 -18q-3 -3 -12 -7zM692 901q-78 -52 -124 -74.5t-78 -22.5q-23 0 -61 14q-56 21 -110 63q3 32 10 42q11 15 32 13q9 0 70 -31t71 -31q21 0 90 30q23 10 66 31l34 -17v-17z" />
    <glyph glyph-name="brokenbar" unicode="&#xa6;" horiz-adv-x="282" 
d="M180 312h-94v245h94v-245zM180 -2h-94v245h94v-245z" />
    <glyph glyph-name="Eth" unicode="&#xd0;" horiz-adv-x="828" 
d="M798 494q0 -183 -237.5 -354.5t-494.5 -171.5q-35 0 -65 5.5t-67 17.5q-4 17 16 54q24 43 52 43q37 -19 84.5 -33.5t83.5 -14.5q85 0 210 59q131 62 218 148q100 99 100 193q0 73 -46 122q-59 62 -176 62q-47 0 -111.5 -8.5t-125.5 -27.5q0 -12 -10 -44t-46 -130
q25 2 53.5 4.5t38.5 2.5q25 0 28 -7q2 -21 -22 -69q-43 5 -66 7.5t-54 2.5q-26 -67 -51 -130q-9 -23 -23 -57q-14 -25 -36 -25q-15 -2 -23 12q-1 2 -3 7q43 99 74 194q-11 0 -34.5 -1t-36.5 -1q-9 -1 -14 -1q-12 0 -16 2q-7 4 -7 14q0 5 3 14q8 20 17 29q14 15 38 18
q10 0 25 -3q2 0 7 -2l-1 -7q14 -7 36 -7q21 75 36 148q-6 11 -9 17q-10 19 -10 49q0 26 32.5 51t76.5 25q17 0 17 -24q0 -15 -5 -33q0 -3 -3 -8q55 27 123 42.5t146 15.5q123 0 193 -41q85 -50 85 -159z" />
    <glyph glyph-name="eth" unicode="&#xf0;" horiz-adv-x="828" 
d="M798 494q0 -183 -237.5 -354.5t-494.5 -171.5q-35 0 -65 5.5t-67 17.5q-4 17 16 54q24 43 52 43q37 -19 84.5 -33.5t83.5 -14.5q85 0 210 59q131 62 218 148q100 99 100 193q0 73 -46 122q-59 62 -176 62q-47 0 -111.5 -8.5t-125.5 -27.5q0 -14 -19 -71q-14 -42 -45 -123
h101v-64h-125l-64 -162q-14 -25 -36 -25q-15 -2 -23 12q-1 2 -3 7q19 43 35 83q13 33 31 85h-92v64h112q25 86 41 165q-6 11 -9 17q-10 19 -10 49q0 26 32.5 51t76.5 25q17 0 17 -24q0 -15 -5 -33q0 -3 -3 -8q55 27 123 42.5t146 15.5q123 0 193 -41q85 -50 85 -159z" />
    <glyph glyph-name="Yacute" unicode="&#xdd;" horiz-adv-x="670" 
d="M721 604q0 -48 -76 -108q-67 -53 -158 -91q-89 -104 -178 -207q-94 -114 -131 -183q-22 -15 -27 -17q-17 -9 -31 -9q-9 0 -16.5 2.5t-16.5 10.5t-17 16q0 30 69 115q51 63 129 145q68 71 70 71q-22 -7 -48 -10t-50 -3q-67 0 -119.5 60.5t-52.5 135.5q0 44 9 71
q16 48 57 48q18 0 32.5 -6t14.5 -21v-11q0 -34 -15 -76q-5 -14 -15 -35q20 -48 70.5 -78t113.5 -30q6 0 14 1t12 1l29 5q74 68 133 118q63 54 141 112q19 -2 28 -4q29 -7 29 -23zM663 778q0 -8 -5 -16q-2 -2 -11 -13l-65 -19q-7 -4 -15 2q-5 6 -6 7l-170 -40q-9 1 -13 2
q-14 5 -14 16q0 5 1 15q0 3 1 9q66 27 130 47q84 26 126 26q19 0 30 -7.5t11 -28.5z" />
    <glyph glyph-name="yacute" unicode="&#xfd;" horiz-adv-x="623" 
d="M687 723q-31 -45 -125 -235q-113 -228 -175 -334q-113 -192 -216 -288q-15 -6 -30 -7.5t-31 -1.5q-21 0 -34 4.5t-13 13.5q0 16 6 43q2 9 6 24q86 33 179 155q64 84 155 248q114 205 134 237q-86 -113 -169 -181t-131 -68q-64 0 -93.5 66.5t-29.5 194.5q0 102 11.5 134.5
t43.5 32.5q17 0 35.5 -12t20.5 -19q-2 -20 -3 -33q-9 -93 -9 -145q0 -68 10 -110.5t35 -42.5q33 0 135 100q108 106 224 255q27 9 40 9q15 0 21 -7t6 -18q0 -9 -3 -15zM672 829q0 -8 -5 -16q-2 -2 -11 -13l-65 -19q-7 -4 -15 2q-5 6 -6 7l-170 -40q-9 1 -13 2q-14 5 -14 16
q0 5 1 15q0 3 1 9q66 27 130 47q84 26 126 26q19 0 30 -7.5t11 -28.5z" />
    <glyph glyph-name="Thorn" unicode="&#xde;" horiz-adv-x="523" 
d="M541 222q-21 -100 -87 -163q-78 -74 -195 -74q-53 0 -94 15l-34 -161l-133 39l3 15q19 6 31 11q40 17 55 88l99 465q2 12 2 15q0 16 -17 20q-31 8 -35 10l1 7l146 52l-40 -189q50 32 79.5 41.5t74.5 9.5q76 0 115 -44q35 -39 35 -105q0 -26 -6 -52zM452 208q5 27 5 48
q0 53 -23 91.5t-60 38.5q-38 0 -78.5 -16t-60.5 -36l-46 -215q-4 -16 -4 -33q0 -38 22 -58t57 -20q66 0 121 63q50 57 67 137z" />
    <glyph glyph-name="thorn" unicode="&#xfe;" horiz-adv-x="523" 
d="M541 222q-21 -100 -87 -163q-78 -74 -195 -74q-53 0 -94 15l-49 -231l-133 39l3 15q18 3 30 9q41 21 71 160l137 645q2 12 2 15q0 16 -17 20q-31 8 -35 10l1 7l147 52l-79 -369q50 32 79.5 41.5t74.5 9.5q76 0 115 -44q35 -39 35 -105q0 -26 -6 -52zM452 208q5 27 5 48
q0 53 -23 91.5t-60 38.5q-38 0 -78.5 -16t-60.5 -36l-46 -215q-4 -16 -4 -33q0 -38 22 -58t57 -20q66 0 121 63q50 57 67 137z" />
    <glyph glyph-name="minus" unicode="&#xad;" horiz-adv-x="561" 
d="M526 275q2 -16 2 -22q0 -64 -67 -64q-21 0 -53 9q-91 0 -181 -0.5t-162 -1.5q-16 10 -22.5 20.5t-6.5 24.5q0 17 11 36q3 6 11 15q41 -8 69 -11q90 -12 167 -12q51 0 90.5 3.5t85.5 12.5z" />
    <glyph glyph-name="multiply" unicode="&#xd7;" horiz-adv-x="613" 
d="M443 576q26 -53 26 -80q0 -30 -41 -59q-69 -48 -96 -79q25 -45 38 -69q39 -69 58 -98q0 -3 1 -10.5t1 -13.5q0 -25 -8 -37q-12 -19 -41 -16q-34 13 -74 101q-13 29 -33 86q-44 -47 -66 -71q-69 -74 -77 -86q-16 3 -25 4q-31 6 -31 89q31 12 103 73q24 20 68 60
q-31 52 -46 79q-47 84 -49 101q5 34 15.5 48t23.5 14q14 0 22 -12q13 -8 50 -93q12 -28 35 -84l98 121l6 7z" />
    <glyph glyph-name="onesuperior" unicode="&#xb9;" horiz-adv-x="246" 
d="M188 631q0 -16 -38 -114.5t-35 -116.5q-2 -6 -5 -9q-9 -9 -28 -9q-17 0 -23 11q-2 14 36.5 106.5t38.5 100.5q0 20 -8 19l-63 -26q-6 -1 -11 2q-6 3 -6 9q0 21 31 35q39 18 76 18q35 0 35 -26z" />
    <glyph glyph-name="twosuperior" unicode="&#xb2;" horiz-adv-x="246" 
d="M224 576q0 -50 -87 -103q-54 -32 -107 -63q25 -2 44.5 -3.5t23.5 -1.5q20 0 36.5 2t22.5 11q5 2 11 2h12q12 0 18 -1q4 -11 7 -19t3 -15q0 -5 -8 -11q-25 -4 -62 -4h-34.5t-38.5 1h-13q-28 0 -37 2q-30 6 -30 29q0 31 94.5 78t94.5 82q0 34 -45 34q-24 0 -32 -9l-16 -1
q-25 0 -30.5 6t-5.5 18q0 21 26 28.5t56 7.5q40 0 68.5 -20.5t28.5 -49.5z" />
    <glyph glyph-name="threesuperior" unicode="&#xb3;" horiz-adv-x="247" 
d="M224 614q0 -32 -40 -68q-13 -12 -40 -29q18 -8 33 -29t15 -43q0 -44 -75 -84q-66 -35 -108 -35q-18 0 -18 20q1 12 11 20t24 8q4 0 12 -2.5t12 -2.5q21 0 53.5 25.5t32.5 43.5q0 33 -29 56q-14 11 -14 20q0 11 39 38t39 49q0 14 -8 20q-12 9 -42 9q-7 -2 -16 -3t-20 -1
q-26 0 -26 12q0 21 31 28q10 2 31 3q49 0 76 -15.5t27 -39.5z" />
    <glyph glyph-name="onehalf" unicode="&#xbd;" horiz-adv-x="555" 
d="M188 631q0 -16 -38 -114.5t-35 -116.5q-2 -6 -5 -9q-9 -9 -28 -9q-17 0 -23 11q-2 14 36.5 106.5t38.5 100.5q0 20 -8 19l-63 -26q-6 -1 -11 2q-6 3 -6 9q0 21 31 35q39 18 76 18q35 0 35 -26zM511 200q0 -50 -87 -103q-54 -32 -107 -63q25 -2 44.5 -3.5t23.5 -1.5
q20 0 36.5 2t22.5 11q5 2 11 2h12q12 0 18 -1q4 -11 7 -19t3 -15q0 -5 -8 -11q-25 -4 -62 -4q-21 0 -39 0.5t-34 0.5h-13q-28 0 -37 2q-30 6 -30 29q0 31 94.5 78t94.5 82q0 34 -45 34q-24 0 -32 -9l-16 -1q-25 0 -30.5 6t-5.5 18q0 21 26 28.5t56 7.5q40 0 68.5 -20.5
t28.5 -49.5zM402 706q5 -52 -65 -232q-45 -117 -133 -314q-75 -168 -76 -177q-11 -8 -18 -8q-11 0 -19 16q-3 33 61 188q61 147 123 294q68 171 68 226q0 10 -1 14q6 9 14 14t14 5q8 0 16 -6t16 -20z" />
    <glyph glyph-name="onequarter" unicode="&#xbc;" horiz-adv-x="555" 
d="M188 631q0 -16 -38 -114.5t-35 -116.5q-2 -6 -5 -9q-9 -9 -28 -9q-17 0 -23 11q-2 14 36.5 106.5t38.5 100.5q0 20 -8 19l-63 -26q-6 -1 -11 2q-6 3 -6 9q0 21 31 35q39 18 76 18q35 0 35 -26zM387 701q5 -53 -64 -232q-44 -115 -133 -314q-75 -168 -76 -177
q-11 -8 -18 -8q-11 0 -19 16q-4 32 61 188q61 146 123 293q67 169 67 227q0 10 -1 14q8 9 15.5 14t13.5 5q8 0 15.5 -6t15.5 -20zM495 34q5 -21 -7 -28t-29 -7h-7q-1 0 -3 1l-12 -48q-9 -9 -23 -9q-13 0 -22 12l9 45l-68 2q-70 9 -70 49q0 21 24 87q21 59 46 110q7 9 17 14
t19 5q12 0 20.5 -5.5t8.5 -14.5q0 -16 -12 -32q-6 -8 -26 -27q-23 -37 -38 -91q-5 -18 -11 -47q2 -15 35 -15q9 -1 22 -1.5t24 -0.5q14 0 18 2q4 21 20 64q2 7 8 21l24 10q6 -1 14 -7q2 -2 7 -6l-26 -81h7q7 0 15 1q14 0 16 -3z" />
    <glyph glyph-name="threequarters" unicode="&#xbe;" horiz-adv-x="555" 
d="M224 614q0 -32 -40 -68q-13 -12 -40 -29q18 -8 33 -29t15 -43q0 -44 -75 -84q-66 -35 -108 -35q-18 0 -18 20q1 12 11 20t24 8q4 0 12 -2.5t12 -2.5q21 0 53.5 25.5t32.5 43.5q0 33 -29 56q-14 11 -14 20q0 11 39 38t39 49q0 14 -8 20q-12 9 -42 9q-7 -2 -16 -3t-20 -1
q-26 0 -26 12q0 21 31 28q10 2 31 3q49 0 76 -15.5t27 -39.5zM429 706q5 -53 -64 -232q-40 -104 -134 -314q-75 -167 -76 -177q-8 -8 -18 -8q-11 0 -18 16q-4 31 61 188q61 147 123 294q67 169 67 226q0 10 -1 14q8 9 15.5 14t13.5 5q8 0 15.5 -6t15.5 -20zM529 39
q5 -21 -7 -28t-29 -7h-8q-1 0 -2 1l-12 -48q-9 -9 -23 -9q-13 0 -22 12l9 45l-68 2q-70 9 -70 49q0 21 24 87q21 59 46 110q7 9 17 14t19 5q12 0 20.5 -5.5t8.5 -14.5q0 -16 -12 -32q-6 -8 -26 -27q-23 -37 -38 -91q-5 -18 -11 -47q2 -15 35 -15q9 -1 22 -1.5t24 -0.5
q14 0 18 2q4 21 20 64q2 7 8 21l24 10q6 -1 14 -7q2 -2 7 -6l-26 -81h7q7 0 15 1q14 0 16 -3z" />
    </font>
</defs>
</svg>
